{
.appVersion = "1075";
DisplayStrings = (
Januarylove,
ii/dotaccentcomb/dotbelowcomb/odotbelow
);
copyright = "Copyright © 2018 by Cadson Demak Co.,Ltd.. All rights reserved.";
customParameters = (
{
name = vendorID;
value = CDK;
},
{
name = description;
value = "Copyright (c) 2018, Cadson Demak (info@cadsondemak.com)";
},
{
name = license;

glyphs = (
{
glyphname = A;
lastChange = "2018-02-12 19:21:41 +0000";
layers = (
{
layerId = "0B1DFD06-3317-40CA-B510-4969A0718C16";
paths = (
{
closed = 1;
nodes = (
"177 -11 OFFCURVE",
"221 57 OFFCURVE",
"355 251 CURVE SMOOTH",
"420 345 OFFCURVE",
"538 519 OFFCURVE",
"607 615 CURVE SMOOTH",
"610 619 OFFCURVE",
"612 621 OFFCURVE",
"614 621 CURVE SMOOTH",
"616 621 OFFCURVE",
"617 619 OFFCURVE",
"617 617 CURVE SMOOTH",
"617 590 OFFCURVE",
"602 362 OFFCURVE",
"599 286 CURVE",
"588 286 OFFCURVE",
"530 283 OFFCURVE",
"472 283 CURVE SMOOTH",
"418 283 OFFCURVE",
"298 294 OFFCURVE",
"269 306 CURVE",
"263 301 OFFCURVE",
"252 285 OFFCURVE",
"252 270 CURVE SMOOTH",
"252 254 OFFCURVE",
"307 245 OFFCURVE",
"367 245 CURVE SMOOTH",
"442 245 OFFCURVE",
"541 246 OFFCURVE",
"565 246 CURVE SMOOTH",
"590 246 OFFCURVE",
"600 240 OFFCURVE",
"601 212 CURVE SMOOTH",
"604 137 OFFCURVE",
"613 101 OFFCURVE",
"628 57 CURVE SMOOTH",
"641 20 OFFCURVE",
"669 -6 OFFCURVE",
"699 -6 CURVE SMOOTH",
"739 -6 OFFCURVE",
"798 38 OFFCURVE",
"820 67 CURVE SMOOTH",
"826 75 OFFCURVE",
"829 86 OFFCURVE",
"829 96 CURVE SMOOTH",
"829 103 OFFCURVE",
"828 109 OFFCURVE",
"826 114 CURVE",
"794 79 OFFCURVE",
"756 52 OFFCURVE",
"728 52 CURVE SMOOTH",
"655 52 OFFCURVE",
"653 211 OFFCURVE",
"653 334 CURVE SMOOTH",
"653 433 OFFCURVE",
"659 539 OFFCURVE",
"665 610 CURVE SMOOTH",
"669 658 OFFCURVE",
"678 705 OFFCURVE",
"697 735 CURVE",
"690 737 OFFCURVE",
"676 740 OFFCURVE",
"666 740 CURVE SMOOTH",
"647 740 OFFCURVE",
"636 735 OFFCURVE",
"619 711 CURVE SMOOTH",
"546 604 OFFCURVE",
"414 404 OFFCURVE",
"311 259 CURVE SMOOTH",
"196 98 OFFCURVE",
"139 36 OFFCURVE",
"81 36 CURVE SMOOTH",
"38 36 OFFCURVE",
"18 62 OFFCURVE",
"21 114 CURVE",
"4 106 OFFCURVE",
"-16 82 OFFCURVE",
"-16 53 CURVE SMOOTH",
"-16 13 OFFCURVE",
"16 -11 OFFCURVE",
"68 -11 CURVE SMOOTH"
);
}
);
width = 844;
}
);
note = A;
unicode = 0041;
},
{
glyphname = B;
lastChange = "2018-02-06 08:36:44 +0000";
layers = (
{
layerId = "0B1DFD06-3317-40CA-B510-4969A0718C16";
paths = (
{
closed = 1;
nodes = (
"124 1 LINE",
"151 19 OFFCURVE",
"172 44 OFFCURVE",
"200 44 CURVE SMOOTH",
"236 44 OFFCURVE",
"284 -17 OFFCURVE",
"421 -17 CURVE SMOOTH",
"619 -17 OFFCURVE",
"702 99 OFFCURVE",
"702 203 CURVE SMOOTH",
"702 319 OFFCURVE",
"583 370 OFFCURVE",
"514 376 CURVE",
"514 366 LINE",
"628 401 OFFCURVE",
"695 490 OFFCURVE",
"695 563 CURVE SMOOTH",
"695 690 OFFCURVE",
"576 707 OFFCURVE",
"381 707 CURVE SMOOTH",
"292 707 OFFCURVE",
"251 710 OFFCURVE",
"184 710 CURVE SMOOTH",
"123 710 OFFCURVE",
"118 717 OFFCURVE",
"111 724 CURVE",
"107 715 OFFCURVE",
"102 694 OFFCURVE",
"102 678 CURVE SMOOTH",
"102 662 OFFCURVE",
"114 655 OFFCURVE",
"131 655 CURVE SMOOTH",
"160 655 OFFCURVE",
"261 675 OFFCURVE",
"318 675 CURVE SMOOTH",
"328 675 OFFCURVE",
"331 672 OFFCURVE",
"328 662 CURVE SMOOTH",
"267 445 OFFCURVE",
"222 298 OFFCURVE",
"152 88 CURVE SMOOTH",
"141 55 OFFCURVE",
"130 32 OFFCURVE",
"109 4 CURVE"
);
},
{
closed = 1;
nodes = (
"273 296 OFFCURVE",
"317 445 OFFCURVE",
"356 564 CURVE SMOOTH",
"385 653 OFFCURVE",
"390 676 OFFCURVE",
"453 676 CURVE SMOOTH",
"549 676 OFFCURVE",
"625 652 OFFCURVE",
"628 560 CURVE SMOOTH",
"633 459 OFFCURVE",
"556 389 OFFCURVE",
"452 389 CURVE SMOOTH",
"426 389 OFFCURVE",
"399 395 OFFCURVE",
"383 395 CURVE SMOOTH",
"373 395 OFFCURVE",
"369 376 OFFCURVE",
"370 365 CURVE SMOOTH",
"370 352 OFFCURVE",
"377 334 OFFCURVE",
"382 333 CURVE",
"414 338 OFFCURVE",
"450 338 OFFCURVE",
"480 338 CURVE SMOOTH",
"583 338 OFFCURVE",
"635 287 OFFCURVE",
"635 212 CURVE SMOOTH",
"635 95 OFFCURVE",
"548 26 OFFCURVE",
"412 26 CURVE SMOOTH",
"300 26 OFFCURVE",
"228 77 OFFCURVE",
"228 112 CURVE SMOOTH",
"228 127 OFFCURVE",
"232 154 OFFCURVE",
"236 164 CURVE"
);
}
);
width = 806;
}
);
note = B;
unicode = 0042;
},
{
glyphname = C;
lastChange = "2018-02-10 10:47:48 +0000";
layers = (
{
layerId = "0B1DFD06-3317-40CA-B510-4969A0718C16";
paths = (
{
closed = 1;
nodes = (
"781 503 LINE",
"783 550 OFFCURVE",
"794 608 OFFCURVE",
"807 643 CURVE",
"803 652 OFFCURVE",
"796 658 OFFCURVE",
"788 662 CURVE SMOOTH",
"712 703 OFFCURVE",
"622 716 OFFCURVE",
"546 716 CURVE SMOOTH",
"285 716 OFFCURVE",
"115 491 OFFCURVE",
"125 246 CURVE SMOOTH",
"132 69 OFFCURVE",
"263 -17 OFFCURVE",
"414 -17 CURVE SMOOTH",
"608 -17 OFFCURVE",
"758 79 OFFCURVE",
"817 213 CURVE SMOOTH",
"824 229 OFFCURVE",
"829 247 OFFCURVE",
"829 268 CURVE SMOOTH",
"829 294 OFFCURVE",
"812 305 OFFCURVE",
"796 305 CURVE",
"731 144 OFFCURVE",
"595 33 OFFCURVE",
"415 33 CURVE SMOOTH",
"306 33 OFFCURVE",
"199 114 OFFCURVE",
"193 250 CURVE SMOOTH",
"184 461 OFFCURVE",
"348 676 OFFCURVE",
"559 676 CURVE SMOOTH",
"689 676 OFFCURVE",
"739 633 OFFCURVE",
"750 566 CURVE SMOOTH",
"753 547 OFFCURVE",
"756 512 OFFCURVE",
"756 499 CURVE"
);
}
);
width = 829;
}
);
note = C;
unicode = 0043;
},
{
glyphname = D;
lastChange = "2018-02-06 18:21:28 +0000";
layers = (
{
layerId = "0B1DFD06-3317-40CA-B510-4969A0718C16";
paths = (
{
closed = 1;
nodes = (
"669 -13 OFFCURVE",
"870 144 OFFCURVE",
"860 422 CURVE SMOOTH",
"851 659 OFFCURVE",
"663 707 OFFCURVE",
"470 707 CURVE SMOOTH",
"365 707 OFFCURVE",
"290 694 OFFCURVE",
"169 694 CURVE SMOOTH",
"139 694 OFFCURVE",
"101 713 OFFCURVE",
"98 713 CURVE SMOOTH",
"87 713 OFFCURVE",
"101 644 OFFCURVE",
"120 644 CURVE SMOOTH",
"188 645 OFFCURVE",
"249 665 OFFCURVE",
"317 665 CURVE SMOOTH",
"321 665 OFFCURVE",
"330 663 OFFCURVE",
"331 657 CURVE",
"312 558 OFFCURVE",
"176 161 OFFCURVE",
"154 96 CURVE SMOOTH",
"146 73 OFFCURVE",
"140 64 OFFCURVE",
"128 50 CURVE",
"139 43 OFFCURVE",
"149 35 OFFCURVE",
"168 35 CURVE SMOOTH",
"221 35 OFFCURVE",
"289 -13 OFFCURVE",
"417 -13 CURVE SMOOTH"
);
},
{
closed = 1;
nodes = (
"347 30 OFFCURVE",
"286 45 OFFCURVE",
"242 82 CURVE SMOOTH",
"227 93 OFFCURVE",
"224 107 OFFCURVE",
"230 124 CURVE SMOOTH",
"277 286 OFFCURVE",
"340 478 OFFCURVE",
"401 651 CURVE",
"409 670 OFFCURVE",
"425 670 OFFCURVE",
"450 670 CURVE SMOOTH",
"725 670 OFFCURVE",
"789 574 OFFCURVE",
"793 413 CURVE SMOOTH",
"802 188 OFFCURVE",
"621 30 OFFCURVE",
"414 30 CURVE SMOOTH"
);
}
);
width = 921;
}
);
note = D;
unicode = 0044;
},
{
glyphname = E;
lastChange = "2017-12-19 08:22:12 +0000";
layers = (
{
layerId = "0B1DFD06-3317-40CA-B510-4969A0718C16";
paths = (
{
closed = 1;
nodes = (
"658 58 OFFCURVE",
"428 32 OFFCURVE",
"309 32 CURVE SMOOTH",
"243 32 OFFCURVE",
"203 37 OFFCURVE",
"202 86 CURVE SMOOTH",
"199 171 OFFCURVE",
"236 258 OFFCURVE",
"268 339 CURVE SMOOTH",
"270 345 OFFCURVE",
"275 349 OFFCURVE",
"283 349 CURVE",
"331 352 OFFCURVE",
"545 349 OFFCURVE",
"609 349 CURVE SMOOTH",
"618 349 OFFCURVE",
"621 351 OFFCURVE",
"622 355 CURVE",
"622 365 OFFCURVE",
"634 399 OFFCURVE",
"638 408 CURVE",
"632 413 LINE",
"556 390 OFFCURVE",
"395 388 OFFCURVE",
"303 394 CURVE",
"293 394 OFFCURVE",
"288 399 OFFCURVE",
"290 408 CURVE",
"322 501 OFFCURVE",
"338 569 OFFCURVE",
"382 645 CURVE",
"388 658 OFFCURVE",
"396 662 OFFCURVE",
"414 662 CURVE SMOOTH",
"491 662 OFFCURVE",
"577 657 OFFCURVE",
"649 647 CURVE",
"656 644 OFFCURVE",
"662 635 OFFCURVE",
"668 620 CURVE",
"674 619 LINE",
"679 641 OFFCURVE",
"696 693 OFFCURVE",
"700 703 CURVE",
"699 709 OFFCURVE",
"695 713 OFFCURVE",
"689 713 CURVE SMOOTH",
"589 713 OFFCURVE",
"387 702 OFFCURVE",
"343 702 CURVE SMOOTH",
"276 702 OFFCURVE",
"199 704 OFFCURVE",
"132 709 CURVE",
"125 702 OFFCURVE",
"115 664 OFFCURVE",
"119 645 CURVE",
"123 644 LINE",
"164 657 OFFCURVE",
"232 660 OFFCURVE",
"298 660 CURVE SMOOTH",
"303 660 OFFCURVE",
"307 658 OFFCURVE",
"308 655 CURVE SMOOTH",
"314 637 OFFCURVE",
"257 463 OFFCURVE",
"248 434 CURVE SMOOTH",
"234 395 OFFCURVE",
"232 401 OFFCURVE",
"200 395 CURVE",
"187 392 OFFCURVE",
"177 370 OFFCURVE",
"177 362 CURVE SMOOTH",
"177 358 OFFCURVE",
"181 356 OFFCURVE",
"187 356 CURVE SMOOTH",
"212 356 OFFCURVE",
"217 353 OFFCURVE",
"215 349 CURVE",
"199 300 OFFCURVE",
"129 107 OFFCURVE",
"132 63 CURVE",
"132 20 OFFCURVE",
"164 -13 OFFCURVE",
"336 -13 CURVE SMOOTH",
"444 -13 OFFCURVE",
"588 6 OFFCURVE",
"689 31 CURVE",
"709 37 OFFCURVE",
"724 46 OFFCURVE",
"729 60 CURVE",
"733 71 OFFCURVE",
"740 117 OFFCURVE",
"752 129 CURVE",
"750 136 OFFCURVE",
"747 138 OFFCURVE",
"744 134 CURVE"
);
}
);
width = 732;
}
);
note = E;
unicode = 0045;
},
{
glyphname = F;
lastChange = "2018-02-06 08:43:41 +0000";
layers = (
{
layerId = "0B1DFD06-3317-40CA-B510-4969A0718C16";
paths = (
{
closed = 1;
nodes = (
"601 386 LINE",
"543 368 OFFCURVE",
"469 361 OFFCURVE",
"393 361 CURVE SMOOTH",
"294 361 OFFCURVE",
"278 378 OFFCURVE",
"282 391 CURVE SMOOTH",
"303 456 OFFCURVE",
"346 584 OFFCURVE",
"369 641 CURVE SMOOTH",
"374 655 OFFCURVE",
"378 660 OFFCURVE",
"396 662 CURVE SMOOTH",
"461 668 OFFCURVE",
"581 666 OFFCURVE",
"653 670 CURVE SMOOTH",
"662 670 OFFCURVE",
"666 676 OFFCURVE",
"669 687 CURVE SMOOTH",
"672 700 OFFCURVE",
"678 731 OFFCURVE",
"687 741 CURVE",
"687 745 OFFCURVE",
"684 747 OFFCURVE",
"678 747 CURVE SMOOTH",
"677 747 OFFCURVE",
"674 746 OFFCURVE",
"670 745 CURVE",
"598 710 OFFCURVE",
"386 697 OFFCURVE",
"228 707 CURVE",
"218 692 OFFCURVE",
"212 677 OFFCURVE",
"212 671 CURVE SMOOTH",
"212 668 OFFCURVE",
"215 666 OFFCURVE",
"224 666 CURVE SMOOTH",
"242 666 OFFCURVE",
"274 665 OFFCURVE",
"288 664 CURVE SMOOTH",
"298 663 OFFCURVE",
"308 651 OFFCURVE",
"305 640 CURVE SMOOTH",
"253 497 OFFCURVE",
"171 258 OFFCURVE",
"96 44 CURVE SMOOTH",
"86 15 OFFCURVE",
"76 -7 OFFCURVE",
"104 -9 CURVE SMOOTH",
"116 -10 OFFCURVE",
"148 -7 OFFCURVE",
"160 0 CURVE",
"159 17 OFFCURVE",
"165 50 OFFCURVE",
"171 71 CURVE SMOOTH",
"186 118 OFFCURVE",
"216 191 OFFCURVE",
"256 303 CURVE SMOOTH",
"260 313 OFFCURVE",
"264 319 OFFCURVE",
"275 319 CURVE SMOOTH",
"355 309 OFFCURVE",
"555 318 OFFCURVE",
"587 318 CURVE",
"596 324 OFFCURVE",
"605 378 OFFCURVE",
"605 382 CURVE"
);
}
);
width = 563;
}
);
note = F;
unicode = 0046;
},
{
glyphname = G;
lastChange = "2018-02-10 10:49:36 +0000";
layers = (
{
layerId = "0B1DFD06-3317-40CA-B510-4969A0718C16";
paths = (
{
closed = 1;
nodes = (
"263 -416 OFFCURVE",
"323 -424 OFFCURVE",
"365 -424 CURVE SMOOTH",
"549 -424 OFFCURVE",
"625 -305 OFFCURVE",
"657 -246 CURVE SMOOTH",
"716 -143 OFFCURVE",
"806 121 OFFCURVE",
"850 280 CURVE SMOOTH",
"858 309 OFFCURVE",
"869 317 OFFCURVE",
"902 326 CURVE",
"906 332 OFFCURVE",
"903 358 OFFCURVE",
"900 362 CURVE",
"831 339 OFFCURVE",
"701 337 OFFCURVE",
"615 337 CURVE",
"607 323 OFFCURVE",
"605 309 OFFCURVE",
"605 296 CURVE",
"666 300 OFFCURVE",
"725 306 OFFCURVE",
"760 306 CURVE SMOOTH",
"777 306 OFFCURVE",
"782 298 OFFCURVE",
"781 274 CURVE SMOOTH",
"779 221 OFFCURVE",
"607 24 OFFCURVE",
"415 24 CURVE SMOOTH",
"287 24 OFFCURVE",
"208 92 OFFCURVE",
"205 221 CURVE SMOOTH",
"200 433 OFFCURVE",
"392 662 OFFCURVE",
"606 662 CURVE SMOOTH",
"722 662 OFFCURVE",
"809 640 OFFCURVE",
"820 560 CURVE SMOOTH",
"822 544 OFFCURVE",
"821 528 OFFCURVE",
"821 514 CURVE",
"825 511 OFFCURVE",
"831 509 OFFCURVE",
"839 509 CURVE SMOOTH",
"849 509 OFFCURVE",
"853 511 OFFCURVE",
"857 513 CURVE",
"865 552 OFFCURVE",
"873 610 OFFCURVE",
"875 649 CURVE",
"820 694 OFFCURVE",
"716 713 OFFCURVE",
"643 713 CURVE SMOOTH",
"322 713 OFFCURVE",
"126 454 OFFCURVE",
"134 229 CURVE SMOOTH",
"140 67 OFFCURVE",
"243 -21 OFFCURVE",
"420 -21 CURVE SMOOTH",
"589 -18 OFFCURVE",
"701 96 OFFCURVE",
"733 132 CURVE",
"737 138 OFFCURVE",
"740 137 OFFCURVE",
"743 129 CURVE",
"694 -26 OFFCURVE",
"584 -392 OFFCURVE",
"363 -392 CURVE SMOOTH",
"333 -392 OFFCURVE",
"296 -386 OFFCURVE",
"269 -372 CURVE",
"265 -376 OFFCURVE",
"263 -382 OFFCURVE",
"263 -388 CURVE SMOOTH"
);
}
);
width = 915;
}
);
note = G;
unicode = 0047;
},
{
glyphname = H;
lastChange = "2018-02-06 08:13:51 +0000";
layers = (
{
layerId = "0B1DFD06-3317-40CA-B510-4969A0718C16";
paths = (
{
closed = 1;
nodes = (
"101 -7 LINE",
"121 4 OFFCURVE",
"128 7 OFFCURVE",
"170 7 CURVE SMOOTH",
"181 7 OFFCURVE",
"187 11 OFFCURVE",
"190 24 CURVE SMOOTH",
"210 123 OFFCURVE",
"253 220 OFFCURVE",
"292 303 CURVE SMOOTH",
"299 318 OFFCURVE",
"303 326 OFFCURVE",
"316 328 CURVE SMOOTH",
"393 340 OFFCURVE",
"520 340 OFFCURVE",
"621 340 CURVE SMOOTH",
"673 340 OFFCURVE",
"700 329 OFFCURVE",
"700 294 CURVE SMOOTH",
"700 243 OFFCURVE",
"668 165 OFFCURVE",
"668 74 CURVE SMOOTH",
"668 28 OFFCURVE",
"693 -6 OFFCURVE",
"740 -6 CURVE SMOOTH",
"826 -6 OFFCURVE",
"868 18 OFFCURVE",
"914 45 CURVE",
"926 63 OFFCURVE",
"921 81 OFFCURVE",
"912 81 CURVE",
"881 61 OFFCURVE",
"845 46 OFFCURVE",
"800 46 CURVE SMOOTH",
"751 46 OFFCURVE",
"733 56 OFFCURVE",
"733 98 CURVE SMOOTH",
"733 131 OFFCURVE",
"726 219 OFFCURVE",
"774 389 CURVE SMOOTH",
"808 510 OFFCURVE",
"836 637 OFFCURVE",
"925 728 CURVE SMOOTH",
"962 766 OFFCURVE",
"1016 774 OFFCURVE",
"1035 774 CURVE SMOOTH",
"1040 774 OFFCURVE",
"1045 781 OFFCURVE",
"1044 790 CURVE SMOOTH",
"1044 803 OFFCURVE",
"1032 809 OFFCURVE",
"1027 809 CURVE SMOOTH",
"988 809 OFFCURVE",
"887 761 OFFCURVE",
"842 741 CURVE SMOOTH",
"833 737 OFFCURVE",
"826 725 OFFCURVE",
"823 715 CURVE SMOOTH",
"795 623 OFFCURVE",
"765 533 OFFCURVE",
"721 412 CURVE SMOOTH",
"717 401 OFFCURVE",
"709 395 OFFCURVE",
"698 393 CURVE SMOOTH",
"647 380 OFFCURVE",
"486 380 OFFCURVE",
"449 380 CURVE SMOOTH",
"414 380 OFFCURVE",
"375 378 OFFCURVE",
"326 382 CURVE SMOOTH",
"320 383 OFFCURVE",
"318 389 OFFCURVE",
"320 400 CURVE SMOOTH",
"359 541 OFFCURVE",
"382 610 OFFCURVE",
"413 689 CURVE SMOOTH",
"418 702 OFFCURVE",
"416 709 OFFCURVE",
"405 709 CURVE SMOOTH",
"374 709 OFFCURVE",
"312 696 OFFCURVE",
"205 696 CURVE SMOOTH",
"197 696 OFFCURVE",
"192 693 OFFCURVE",
"192 681 CURVE SMOOTH",
"192 673 OFFCURVE",
"195 663 OFFCURVE",
"201 652 CURVE",
"224 656 OFFCURVE",
"261 659 OFFCURVE",
"283 659 CURVE SMOOTH",
"313 659 OFFCURVE",
"320 652 OFFCURVE",
"320 631 CURVE SMOOTH",
"320 597 OFFCURVE",
"282 427 OFFCURVE",
"264 394 CURVE SMOOTH",
"259 386 OFFCURVE",
"253 381 OFFCURVE",
"246 381 CURVE SMOOTH",
"214 381 LINE SMOOTH",
"205 381 OFFCURVE",
"200 369 OFFCURVE",
"200 364 CURVE",
"206 355 OFFCURVE",
"221 338 OFFCURVE",
"239 319 CURVE",
"144 81 OFFCURVE",
"112 37 OFFCURVE",
"96 -5 CURVE"
);
}
);
width = 919;
}
);
note = H;
unicode = 0048;
},
{
glyphname = I;
lastChange = "2017-12-19 08:22:12 +0000";
layers = (
{
layerId = "0B1DFD06-3317-40CA-B510-4969A0718C16";
paths = (
{
closed = 1;
nodes = (
"61 -4 LINE",
"108 -7 OFFCURVE",
"139 -14 OFFCURVE",
"164 40 CURVE SMOOTH",
"256 225 OFFCURVE",
"326 484 OFFCURVE",
"390 647 CURVE SMOOTH",
"396 662 OFFCURVE",
"426 670 OFFCURVE",
"426 674 CURVE",
"427 682 OFFCURVE",
"426 701 OFFCURVE",
"418 704 CURVE",
"362 695 OFFCURVE",
"282 696 OFFCURVE",
"193 691 CURVE",
"189 685 OFFCURVE",
"180 660 OFFCURVE",
"183 645 CURVE",
"208 650 OFFCURVE",
"243 652 OFFCURVE",
"270 652 CURVE SMOOTH",
"312 652 OFFCURVE",
"322 646 OFFCURVE",
"318 616 CURVE",
"303 489 OFFCURVE",
"150 131 OFFCURVE",
"94 32 CURVE",
"84 18 OFFCURVE",
"70 10 OFFCURVE",
"52 8 CURVE"
);
}
);
width = 394;
}
);
note = I;
unicode = 0049;
},
{
glyphname = J;
lastChange = "2018-02-12 18:37:04 +0000";
layers = (
{
layerId = "0B1DFD06-3317-40CA-B510-4969A0718C16";
paths = (
{
closed = 1;
nodes = (
"143 -168 OFFCURVE",
"261 -77 OFFCURVE",
"331 60 CURVE SMOOTH",
"415 225 OFFCURVE",
"477 420 OFFCURVE",
"534 574 CURVE SMOOTH",
"561 647 OFFCURVE",
"564 681 OFFCURVE",
"603 681 CURVE SMOOTH",
"632 681 OFFCURVE",
"645 679 OFFCURVE",
"654 679 CURVE",
"654 700 OFFCURVE",
"649 715 OFFCURVE",
"639 715 CURVE SMOOTH",
"343 715 OFFCURVE",
"85 697 OFFCURVE",
"85 546 CURVE SMOOTH",
"85 499 OFFCURVE",
"120 462 OFFCURVE",
"158 450 CURVE",
"165 450 OFFCURVE",
"173 451 OFFCURVE",
"178 453 CURVE",
"146 471 OFFCURVE",
"135 500 OFFCURVE",
"135 528 CURVE SMOOTH",
"135 645 OFFCURVE",
"329 668 OFFCURVE",
"474 668 CURVE SMOOTH",
"488 668 OFFCURVE",
"494 657 OFFCURVE",
"489 644 CURVE SMOOTH",
"438 498 OFFCURVE",
"358 267 OFFCURVE",
"269 77 CURVE SMOOTH",
"208 -52 OFFCURVE",
"126 -139 OFFCURVE",
"0 -139 CURVE SMOOTH",
"-102 -139 OFFCURVE",
"-145 -94 OFFCURVE",
"-168 -37 CURVE",
"-184 -41 LINE",
"-184 -76 OFFCURVE",
"-184 -110 OFFCURVE",
"-178 -139 CURVE",
"-141 -152 OFFCURVE",
"-71 -168 OFFCURVE",
"-23 -168 CURVE SMOOTH"
);
}
);
width = 555;
}
);
note = J;
unicode = 004A;
},
{
glyphname = K;
lastChange = "2018-02-12 20:29:03 +0000";
layers = (
{
layerId = "0B1DFD06-3317-40CA-B510-4969A0718C16";
paths = (
{
closed = 1;
nodes = (
"133 -2 OFFCURVE",
"139 0 OFFCURVE",
"169 0 CURVE SMOOTH",
"209 0 OFFCURVE",
"196 -5 OFFCURVE",
"206 38 CURVE",
"234 125 OFFCURVE",
"253 198 OFFCURVE",
"295 302 CURVE",
"300 317 OFFCURVE",
"306 312 OFFCURVE",
"311 306 CURVE",
"495 -5 OFFCURVE",
"877 -194 OFFCURVE",
"1150 -194 CURVE SMOOTH",
"1218 -194 OFFCURVE",
"1282 -183 OFFCURVE",
"1333 -164 CURVE SMOOTH",
"1389 -143 OFFCURVE",
"1403 -119 OFFCURVE",
"1403 -94 CURVE SMOOTH",
"1403 -78 OFFCURVE",
"1397 -68 OFFCURVE",
"1391 -64 CURVE",
"1346 -99 OFFCURVE",
"1259 -144 OFFCURVE",
"1172 -144 CURVE SMOOTH",
"864 -144 OFFCURVE",
"512 69 OFFCURVE",
"368 340 CURVE SMOOTH",
"367 343 OFFCURVE",
"368 346 OFFCURVE",
"372 350 CURVE",
"462 425 OFFCURVE",
"854 699 OFFCURVE",
"872 687 CURVE",
"873 690 OFFCURVE",
"875 693 OFFCURVE",
"873 695 CURVE",
"858 700 OFFCURVE",
"831 714 OFFCURVE",
"818 720 CURVE",
"812 720 LINE",
"625 602 OFFCURVE",
"506 484 OFFCURVE",
"327 370 CURVE SMOOTH",
"321 367 OFFCURVE",
"312 372 OFFCURVE",
"315 381 CURVE",
"365 513 OFFCURVE",
"381 568 OFFCURVE",
"419 655 CURVE",
"424 663 OFFCURVE",
"430 668 OFFCURVE",
"437 668 CURVE",
"455 671 OFFCURVE",
"484 670 OFFCURVE",
"497 670 CURVE",
"500 675 OFFCURVE",
"513 704 OFFCURVE",
"506 712 CURVE",
"396 702 OFFCURVE",
"298 691 OFFCURVE",
"190 710 CURVE",
"180 713 OFFCURVE",
"174 719 OFFCURVE",
"173 728 CURVE",
"157 728 OFFCURVE",
"143 684 OFFCURVE",
"143 665 CURVE SMOOTH",
"143 658 OFFCURVE",
"150 655 OFFCURVE",
"163 655 CURVE SMOOTH",
"211 655 OFFCURVE",
"274 664 OFFCURVE",
"334 664 CURVE SMOOTH",
"343 664 OFFCURVE",
"347 657 OFFCURVE",
"344 651 CURVE",
"283 436 OFFCURVE",
"213 190 OFFCURVE",
"109 -5 CURVE",
"109 -10 OFFCURVE",
"113 -12 OFFCURVE",
"119 -12 CURVE"
);
}
);
width = 807;
}
);
note = K;
unicode = 004B;
},
{
glyphname = L;
lastChange = "2018-02-12 21:45:14 +0000";
layers = (
{
anchors = (
{
name = bottom;
position = "{313, 0}";
},
{
name = center;
position = "{374, 350}";
},
{
name = top;
position = "{436, 700}";
},
{
name = topright;
position = "{595, 485}";
}
);
layerId = "0B1DFD06-3317-40CA-B510-4969A0718C16";
paths = (
{
closed = 1;
nodes = (
"552 682 OFFCURVE",
"552 720 OFFCURVE",
"539 724 CURVE",
"483 724 OFFCURVE",
"427 715 OFFCURVE",
"386 697 CURVE",
"376 694 OFFCURVE",
"364 688 OFFCURVE",
"361 675 CURVE",
"299 508 OFFCURVE",
"258 37 OFFCURVE",
"25 37 CURVE SMOOTH",
"17 37 OFFCURVE",
"14 33 OFFCURVE",
"15 27 CURVE",
"18 19 OFFCURVE",
"27 -13 OFFCURVE",
"37 -13 CURVE",
"161 20 OFFCURVE",
"506 44 OFFCURVE",
"640 -4 CURVE",
"653 -7 OFFCURVE",
"656 -24 OFFCURVE",
"656 -33 CURVE",
"660 -37 OFFCURVE",
"665 -38 OFFCURVE",
"669 -38 CURVE",
"676 -20 OFFCURVE",
"672 42 OFFCURVE",
"672 51 CURVE",
"669 64 OFFCURVE",
"659 71 OFFCURVE",
"641 74 CURVE",
"526 96 OFFCURVE",
"293 55 OFFCURVE",
"186 55 CURVE SMOOTH",
"177 55 OFFCURVE",
"179 62 OFFCURVE",
"182 65 CURVE",
"264 113 OFFCURVE",
"376 522 OFFCURVE",
"406 625 CURVE SMOOTH",
"414 657 OFFCURVE",
"455 685 OFFCURVE",
"494 685 CURVE SMOOTH",
"519 685 OFFCURVE",
"533 683 OFFCURVE",
"547 679 CURVE"
);
}
);
width = 707;
}
);
note = L;
unicode = 004C;
},
{
glyphname = M;
lastChange = "2018-02-06 08:37:23 +0000";
layers = (
{
layerId = "0B1DFD06-3317-40CA-B510-4969A0718C16";
paths = (
{
closed = 1;
nodes = (
"1113 -31 OFFCURVE",
"1182 64 OFFCURVE",
"1182 140 CURVE SMOOTH",
"1182 164 OFFCURVE",
"1177 171 OFFCURVE",
"1169 180 CURVE",
"1144 84 OFFCURVE",
"1093 18 OFFCURVE",
"1026 18 CURVE SMOOTH",
"946 18 OFFCURVE",
"925 113 OFFCURVE",
"925 187 CURVE SMOOTH",
"925 308 OFFCURVE",
"954 484 OFFCURVE",
"1014 590 CURVE SMOOTH",
"1052 657 OFFCURVE",
"1084 702 OFFCURVE",
"1129 702 CURVE SMOOTH",
"1136 702 OFFCURVE",
"1144 698 OFFCURVE",
"1151 698 CURVE SMOOTH",
"1155 698 OFFCURVE",
"1157 700 OFFCURVE",
"1157 704 CURVE",
"1153 722 OFFCURVE",
"1138 769 OFFCURVE",
"1114 769 CURVE SMOOTH",
"1076 769 OFFCURVE",
"1052 719 OFFCURVE",
"957 606 CURVE SMOOTH",
"871 504 OFFCURVE",
"662 206 OFFCURVE",
"602 111 CURVE",
"616 92 LINE",
"582 335 OFFCURVE",
"568 439 OFFCURVE",
"568 516 CURVE SMOOTH",
"568 629 OFFCURVE",
"603 671 OFFCURVE",
"634 671 CURVE SMOOTH",
"657 671 OFFCURVE",
"662 652 OFFCURVE",
"662 634 CURVE SMOOTH",
"662 590 OFFCURVE",
"640 501 OFFCURVE",
"564 371 CURVE SMOOTH",
"510 275 OFFCURVE",
"312 46 OFFCURVE",
"167 46 CURVE SMOOTH",
"61 46 OFFCURVE",
"12 108 OFFCURVE",
"8 205 CURVE SMOOTH",
"7 244 OFFCURVE",
"21 288 OFFCURVE",
"54 327 CURVE",
"56 336 OFFCURVE",
"27 350 OFFCURVE",
"25 344 CURVE",
"-19 305 OFFCURVE",
"-43 243 OFFCURVE",
"-39 182 CURVE SMOOTH",
"-36 64 OFFCURVE",
"49 -7 OFFCURVE",
"137 -7 CURVE SMOOTH",
"307 -7 OFFCURVE",
"483 160 OFFCURVE",
"579 311 CURVE SMOOTH",
"650 428 OFFCURVE",
"712 538 OFFCURVE",
"706 668 CURVE SMOOTH",
"704 701 OFFCURVE",
"679 741 OFFCURVE",
"641 741 CURVE SMOOTH",
"567 741 OFFCURVE",
"525 639 OFFCURVE",
"525 526 CURVE SMOOTH",
"525 418 OFFCURVE",
"568 162 OFFCURVE",
"568 62 CURVE SMOOTH",
"568 13 OFFCURVE",
"555 14 OFFCURVE",
"555 8 CURVE",
"556 6 OFFCURVE",
"566 -1 OFFCURVE",
"570 -1 CURVE SMOOTH",
"571 -1 OFFCURVE",
"572 -1 OFFCURVE",
"572 0 CURVE",
"585 18 OFFCURVE",
"603 17 OFFCURVE",
"621 20 CURVE",
"625 22 OFFCURVE",
"626 24 OFFCURVE",
"626 27 CURVE SMOOTH",
"626 30 OFFCURVE",
"624 35 OFFCURVE",
"624 41 CURVE SMOOTH",
"624 43 OFFCURVE",
"624 44 OFFCURVE",
"624 45 CURVE",
"627 60 OFFCURVE",
"640 81 OFFCURVE",
"650 95 CURVE SMOOTH",
"716 206 OFFCURVE",
"835 366 OFFCURVE",
"915 461 CURVE SMOOTH",
"920 467 OFFCURVE",
"927 465 OFFCURVE",
"927 458 CURVE SMOOTH",
"927 431 OFFCURVE",
"869 292 OFFCURVE",
"869 180 CURVE SMOOTH",
"869 75 OFFCURVE",
"913 -31 OFFCURVE",
"1012 -31 CURVE SMOOTH"
);
}
);
width = 1141;
}
);
note = M;
unicode = 004D;
},
{
glyphname = N;
lastChange = "2017-12-19 08:22:12 +0000";
layers = (
{
layerId = "0B1DFD06-3317-40CA-B510-4969A0718C16";
paths = (
{
closed = 1;
nodes = (
"186 -25 LINE",
"201 192 OFFCURVE",
"253 339 OFFCURVE",
"333 565 CURVE SMOOTH",
"342 589 OFFCURVE",
"352 595 OFFCURVE",
"365 572 CURVE SMOOTH",
"437 450 OFFCURVE",
"577 130 OFFCURVE",
"644 -8 CURVE",
"659 -17 OFFCURVE",
"676 -14 OFFCURVE",
"689 -8 CURVE",
"770 325 OFFCURVE",
"840 798 OFFCURVE",
"1027 798 CURVE SMOOTH",
"1041 798 OFFCURVE",
"970 835 OFFCURVE",
"956 835 CURVE SMOOTH",
"796 835 OFFCURVE",
"716 324 OFFCURVE",
"664 129 CURVE SMOOTH",
"660 115 OFFCURVE",
"657 113 OFFCURVE",
"652 113 CURVE SMOOTH",
"643 113 OFFCURVE",
"640 115 OFFCURVE",
"632 133 CURVE SMOOTH",
"546 305 OFFCURVE",
"438 518 OFFCURVE",
"362 678 CURVE SMOOTH",
"357 689 OFFCURVE",
"351 694 OFFCURVE",
"345 694 CURVE",
"321 684 OFFCURVE",
"292 677 OFFCURVE",
"250 677 CURVE SMOOTH",
"218 677 OFFCURVE",
"186 678 OFFCURVE",
"163 687 CURVE",
"158 687 OFFCURVE",
"157 684 OFFCURVE",
"158 681 CURVE",
"164 670 OFFCURVE",
"170 632 OFFCURVE",
"179 632 CURVE",
"201 633 OFFCURVE",
"227 635 OFFCURVE",
"252 635 CURVE SMOOTH",
"284 635 OFFCURVE",
"288 616 OFFCURVE",
"289 591 CURVE SMOOTH",
"294 481 OFFCURVE",
"115 148 OFFCURVE",
"125 30 CURVE",
"131 14 OFFCURVE",
"168 -19 OFFCURVE",
"181 -25 CURVE"
);
}
);
width = 890;
}
);
note = N;
unicode = 004E;
},
{
glyphname = O;
lastChange = "2017-12-19 08:22:12 +0000";
layers = (
{
layerId = "0B1DFD06-3317-40CA-B510-4969A0718C16";
paths = (
{
closed = 1;
nodes = (
"825 595 OFFCURVE",
"694 719 OFFCURVE",
"518 719 CURVE SMOOTH",
"276 719 OFFCURVE",
"130 566 OFFCURVE",
"139 296 CURVE SMOOTH",
"145 96 OFFCURVE",
"277 -15 OFFCURVE",
"465 -15 CURVE SMOOTH",
"719 -15 OFFCURVE",
"840 176 OFFCURVE",
"831 413 CURVE SMOOTH"
);
},
{
closed = 1;
nodes = (
"775 188 OFFCURVE",
"672 33 OFFCURVE",
"451 33 CURVE SMOOTH",
"327 33 OFFCURVE",
"208 146 OFFCURVE",
"202 292 CURVE SMOOTH",
"193 516 OFFCURVE",
"295 674 OFFCURVE",
"524 674 CURVE SMOOTH",
"662 674 OFFCURVE",
"765 543 OFFCURVE",
"769 401 CURVE SMOOTH"
);
}
);
width = 876;
}
);
note = O;
unicode = 004F;
},
{
glyphname = P;
lastChange = "2018-02-06 09:34:04 +0000";
layers = (
{
layerId = "0B1DFD06-3317-40CA-B510-4969A0718C16";
paths = (
{
closed = 1;
nodes = (
"164 -12 OFFCURVE",
"174 -11 OFFCURVE",
"186 -8 CURVE",
"185 1 OFFCURVE",
"184 9 OFFCURVE",
"184 17 CURVE SMOOTH",
"184 31 OFFCURVE",
"186 51 OFFCURVE",
"193 78 CURVE SMOOTH",
"208 138 OFFCURVE",
"323 502 OFFCURVE",
"370 634 CURVE SMOOTH",
"382 669 OFFCURVE",
"450 670 OFFCURVE",
"485 670 CURVE SMOOTH",
"584 670 OFFCURVE",
"659 654 OFFCURVE",
"659 543 CURVE SMOOTH",
"659 438 OFFCURVE",
"572 356 OFFCURVE",
"431 356 CURVE SMOOTH",
"401 356 OFFCURVE",
"360 363 OFFCURVE",
"347 367 CURVE SMOOTH",
"344 368 OFFCURVE",
"338 360 OFFCURVE",
"338 350 CURVE SMOOTH",
"338 342 OFFCURVE",
"342 332 OFFCURVE",
"356 326 CURVE SMOOTH",
"374 318 OFFCURVE",
"405 313 OFFCURVE",
"432 313 CURVE SMOOTH",
"631 313 OFFCURVE",
"720 435 OFFCURVE",
"720 537 CURVE SMOOTH",
"720 677 OFFCURVE",
"618 716 OFFCURVE",
"496 716 CURVE SMOOTH",
"454 716 OFFCURVE",
"302 694 OFFCURVE",
"184 694 CURVE SMOOTH",
"143 694 OFFCURVE",
"123 694 OFFCURVE",
"89 716 CURVE",
"85 704 OFFCURVE",
"77 677 OFFCURVE",
"77 659 CURVE SMOOTH",
"77 647 OFFCURVE",
"92 641 OFFCURVE",
"112 641 CURVE SMOOTH",
"181 641 OFFCURVE",
"231 656 OFFCURVE",
"300 656 CURVE SMOOTH",
"309 656 OFFCURVE",
"311 649 OFFCURVE",
"311 640 CURVE SMOOTH",
"311 623 OFFCURVE",
"302 597 OFFCURVE",
"300 591 CURVE SMOOTH",
"242 424 OFFCURVE",
"178 234 OFFCURVE",
"123 60 CURVE SMOOTH",
"118 43 OFFCURVE",
"115 29 OFFCURVE",
"115 13 CURVE SMOOTH",
"115 -3 OFFCURVE",
"129 -12 OFFCURVE",
"154 -12 CURVE SMOOTH"
);
}
);
width = 677;
}
);
note = P;
unicode = 0050;
},
{
glyphname = Q;
lastChange = "2018-02-12 19:27:26 +0000";
layers = (
{
layerId = "0B1DFD06-3317-40CA-B510-4969A0718C16";
paths = (
{
closed = 1;
nodes = (
"597 177 OFFCURVE",
"378 177 CURVE SMOOTH",
"232 177 OFFCURVE",
"151 57 OFFCURVE",
"151 -20 CURVE SMOOTH",
"151 -37 OFFCURVE",
"161 -46 OFFCURVE",
"171 -48 CURVE",
"213 62 OFFCURVE",
"245 128 OFFCURVE",
"362 128 CURVE SMOOTH",
"572 128 OFFCURVE",
"619 -230 OFFCURVE",
"868 -230 CURVE SMOOTH",
"970 -230 OFFCURVE",
"1045 -160 OFFCURVE",
"1045 -65 CURVE SMOOTH",
"1045 -49 OFFCURVE",
"1037 -36 OFFCURVE",
"1026 -27 CURVE",
"1002 -121 OFFCURVE",
"960 -158 OFFCURVE",
"877 -158 CURVE SMOOTH",
"679 -158 OFFCURVE"
);
},
{
closed = 1;
nodes = (
"620 38 OFFCURVE",
"422 38 CURVE SMOOTH",
"274 38 OFFCURVE",
"195 120 OFFCURVE",
"188 280 CURVE SMOOTH",
"182 499 OFFCURVE",
"345 684 OFFCURVE",
"550 684 CURVE",
"544 702 OFFCURVE",
"532 709 OFFCURVE",
"505 709 CURVE SMOOTH",
"279 709 OFFCURVE",
"112 514 OFFCURVE",
"121 269 CURVE SMOOTH",
"129 117 OFFCURVE",
"259 -8 OFFCURVE",
"422 -8 CURVE SMOOTH",
"668 -8 OFFCURVE",
"832 198 OFFCURVE",
"828 449 CURVE SMOOTH",
"825 617 OFFCURVE",
"725 713 OFFCURVE",
"617 713 CURVE SMOOTH",
"584 713 OFFCURVE",
"573 700 OFFCURVE",
"569 680 CURVE",
"705 661 OFFCURVE",
"756 557 OFFCURVE",
"756 418 CURVE SMOOTH",
"756 224 OFFCURVE"
);
}
);
width = 879;
}
);
note = Q;
unicode = 0051;
},
{
glyphname = R;
lastChange = "2018-02-12 21:22:59 +0000";
layers = (
{
layerId = "0B1DFD06-3317-40CA-B510-4969A0718C16";
paths = (
{
closed = 1;
nodes = (
"158 441 OFFCURVE",
"154 466 OFFCURVE",
"154 496 CURVE SMOOTH",
"154 586 OFFCURVE",
"261 671 OFFCURVE",
"371 671 CURVE SMOOTH",
"379 671 OFFCURVE",
"386 670 OFFCURVE",
"386 662 CURVE SMOOTH",
"386 659 OFFCURVE",
"385 656 OFFCURVE",
"384 652 CURVE SMOOTH",
"355 535 OFFCURVE",
"248 264 OFFCURVE",
"122 -27 CURVE",
"125 -29 OFFCURVE",
"131 -33 OFFCURVE",
"134 -33 CURVE",
"148 -14 OFFCURVE",
"179 7 OFFCURVE",
"212 4 CURVE",
"299 264 OFFCURVE",
"391 506 OFFCURVE",
"463 658 CURVE SMOOTH",
"472 677 OFFCURVE",
"488 679 OFFCURVE",
"516 679 CURVE SMOOTH",
"637 679 OFFCURVE",
"702 625 OFFCURVE",
"702 539 CURVE SMOOTH",
"702 425 OFFCURVE",
"587 362 OFFCURVE",
"418 362 CURVE SMOOTH",
"406 362 OFFCURVE",
"402 356 OFFCURVE",
"402 350 CURVE",
"618 56 OFFCURVE",
"879 -239 OFFCURVE",
"1211 -239 CURVE SMOOTH",
"1337 -239 OFFCURVE",
"1392 -180 OFFCURVE",
"1392 -143 CURVE SMOOTH",
"1392 -137 OFFCURVE",
"1389 -131 OFFCURVE",
"1385 -128 CURVE",
"1349 -164 OFFCURVE",
"1303 -195 OFFCURVE",
"1206 -195 CURVE SMOOTH",
"916 -195 OFFCURVE",
"654 128 OFFCURVE",
"507 324 CURVE SMOOTH",
"504 328 OFFCURVE",
"503 330 OFFCURVE",
"503 332 CURVE SMOOTH",
"503 335 OFFCURVE",
"506 336 OFFCURVE",
"512 337 CURVE SMOOTH",
"690 360 OFFCURVE",
"772 459 OFFCURVE",
"772 552 CURVE SMOOTH",
"772 661 OFFCURVE",
"672 713 OFFCURVE",
"476 713 CURVE SMOOTH",
"313 713 OFFCURVE",
"91 637 OFFCURVE",
"91 491 CURVE SMOOTH",
"91 454 OFFCURVE",
"104 429 OFFCURVE",
"131 417 CURVE SMOOTH",
"142 412 OFFCURVE",
"161 408 OFFCURVE",
"178 408 CURVE"
);
}
);
width = 822;
}
);
note = R;
unicode = 0052;
},
{
glyphname = S;
lastChange = "2018-02-10 07:11:23 +0000";
layers = (
{
layerId = "0B1DFD06-3317-40CA-B510-4969A0718C16";
paths = (
{
closed = 1;
nodes = (
"526 669 OFFCURVE",
"469 707 OFFCURVE",
"401 707 CURVE SMOOTH",
"273 707 OFFCURVE",
"218 632 OFFCURVE",
"218 534 CURVE SMOOTH",
"218 455 OFFCURVE",
"249 414 OFFCURVE",
"318 347 CURVE SMOOTH",
"392 272 OFFCURVE",
"412 214 OFFCURVE",
"412 176 CURVE SMOOTH",
"412 79 OFFCURVE",
"305 32 OFFCURVE",
"209 32 CURVE SMOOTH",
"120 32 OFFCURVE",
"74 72 OFFCURVE",
"74 158 CURVE SMOOTH",
"74 164 OFFCURVE",
"65 167 OFFCURVE",
"52 167 CURVE SMOOTH",
"42 167 OFFCURVE",
"32 165 OFFCURVE",
"32 161 CURVE SMOOTH",
"32 133 OFFCURVE",
"32 69 OFFCURVE",
"29 35 CURVE",
"37 12 OFFCURVE",
"148 -12 OFFCURVE",
"201 -12 CURVE SMOOTH",
"324 -12 OFFCURVE",
"486 55 OFFCURVE",
"480 195 CURVE SMOOTH",
"476 261 OFFCURVE",
"451 295 OFFCURVE",
"371 377 CURVE SMOOTH",
"320 431 OFFCURVE",
"268 478 OFFCURVE",
"268 547 CURVE SMOOTH",
"268 623 OFFCURVE",
"321 656 OFFCURVE",
"386 656 CURVE SMOOTH",
"451 656 OFFCURVE",
"495 626 OFFCURVE",
"495 585 CURVE SMOOTH",
"495 571 OFFCURVE",
"493 554 OFFCURVE",
"491 546 CURVE",
"494 542 OFFCURVE",
"514 539 OFFCURVE",
"523 539 CURVE",
"528 554 OFFCURVE",
"536 603 OFFCURVE",
"536 641 CURVE"
);
}
);
width = 530;
}
);
note = S;
unicode = 0053;
},
{
glyphname = T;
lastChange = "2018-02-12 18:31:38 +0000";
layers = (
{
layerId = "0B1DFD06-3317-40CA-B510-4969A0718C16";
paths = (
{
closed = 1;
nodes = (
"140 299 OFFCURVE",
"164 299 OFFCURVE",
"187 299 CURVE",
"192 304 LINE",
"122 369 OFFCURVE",
"78 415 OFFCURVE",
"78 486 CURVE SMOOTH",
"78 598 OFFCURVE",
"194 676 OFFCURVE",
"306 676 CURVE SMOOTH",
"415 676 OFFCURVE",
"598 628 OFFCURVE",
"695 628 CURVE SMOOTH",
"792 628 OFFCURVE",
"845 678 OFFCURVE",
"868 740 CURVE",
"829 692 OFFCURVE",
"771 679 OFFCURVE",
"714 679 CURVE SMOOTH",
"639 679 OFFCURVE",
"517 722 OFFCURVE",
"397 722 CURVE SMOOTH",
"126 722 OFFCURVE",
"17 600 OFFCURVE",
"17 471 CURVE SMOOTH",
"17 409 OFFCURVE",
"57 328 OFFCURVE",
"117 291 CURVE"
);
},
{
closed = 1;
nodes = (
"259 -26 OFFCURVE",
"318 92 OFFCURVE",
"359 204 CURVE SMOOTH",
"413 358 OFFCURVE",
"477 574 OFFCURVE",
"528 631 CURVE",
"520 634 LINE",
"490 622 OFFCURVE",
"451 587 OFFCURVE",
"423 559 CURVE",
"372 430 OFFCURVE",
"364 397 OFFCURVE",
"294 206 CURVE SMOOTH",
"241 61 OFFCURVE",
"193 8 OFFCURVE",
"84 8 CURVE SMOOTH",
"27 8 OFFCURVE",
"-23 28 OFFCURVE",
"-48 59 CURVE",
"-50 48 LINE",
"-33 5 OFFCURVE",
"32 -26 OFFCURVE",
"101 -26 CURVE SMOOTH"
);
}
);
width = 607;
}
);
note = T;
unicode = 0054;
},
{
glyphname = U;
lastChange = "2017-12-19 08:22:12 +0000";
layers = (
{
layerId = "0B1DFD06-3317-40CA-B510-4969A0718C16";
paths = (
{
closed = 1;
nodes = (
"977 682 OFFCURVE",
"969 720 OFFCURVE",
"958 720 CURVE SMOOTH",
"945 720 OFFCURVE",
"896 700 OFFCURVE",
"878 696 CURVE",
"853 683 OFFCURVE",
"844 670 OFFCURVE",
"835 646 CURVE SMOOTH",
"764 438 OFFCURVE",
"596 40 OFFCURVE",
"372 40 CURVE SMOOTH",
"264 40 OFFCURVE",
"226 83 OFFCURVE",
"223 169 CURVE SMOOTH",
"218 259 OFFCURVE",
"342 526 OFFCURVE",
"393 633 CURVE SMOOTH",
"403 656 OFFCURVE",
"428 653 OFFCURVE",
"446 658 CURVE",
"452 659 OFFCURVE",
"458 658 OFFCURVE",
"459 668 CURVE",
"459 671 OFFCURVE",
"456 706 OFFCURVE",
"451 706 CURVE SMOOTH",
"445 706 OFFCURVE",
"347 697 OFFCURVE",
"194 697 CURVE SMOOTH",
"176 697 OFFCURVE",
"184 646 OFFCURVE",
"200 646 CURVE SMOOTH",
"290 646 LINE SMOOTH",
"318 646 OFFCURVE",
"321 635 OFFCURVE",
"317 613 CURVE SMOOTH",
"290 501 OFFCURVE",
"150 281 OFFCURVE",
"154 148 CURVE SMOOTH",
"159 33 OFFCURVE",
"243 -18 OFFCURVE",
"336 -18 CURVE SMOOTH",
"486 -18 OFFCURVE",
"574 31 OFFCURVE",
"689 203 CURVE",
"690 203 OFFCURVE",
"693 202 OFFCURVE",
"695 200 CURVE",
"695 196 OFFCURVE",
"671 133 OFFCURVE",
"671 80 CURVE",
"675 31 OFFCURVE",
"699 -25 OFFCURVE",
"800 -25 CURVE SMOOTH",
"868 -25 OFFCURVE",
"915 -1 OFFCURVE",
"971 27 CURVE",
"982 33 OFFCURVE",
"964 73 OFFCURVE",
"951 73 CURVE SMOOTH",
"947 73 OFFCURVE",
"883 29 OFFCURVE",
"828 29 CURVE SMOOTH",
"765 29 OFFCURVE",
"738 43 OFFCURVE",
"734 104 CURVE",
"731 261 OFFCURVE",
"832 520 OFFCURVE",
"927 663 CURVE SMOOTH",
"935 676 OFFCURVE",
"957 681 OFFCURVE",
"965 682 CURVE"
);
}
);
width = 956;
}
);
note = U;
unicode = 0055;
},
{
glyphname = V;
lastChange = "2017-12-19 08:22:12 +0000";
layers = (
{
layerId = "0B1DFD06-3317-40CA-B510-4969A0718C16";
paths = (
{
closed = 1;
nodes = (
"346 106 OFFCURVE",
"345 105 OFFCURVE",
"342 105 CURVE SMOOTH",
"338 105 OFFCURVE",
"337 107 OFFCURVE",
"337 112 CURVE",
"327 214 OFFCURVE",
"337 476 OFFCURVE",
"311 595 CURVE SMOOTH",
"295 663 OFFCURVE",
"264 713 OFFCURVE",
"184 713 CURVE SMOOTH",
"108 713 OFFCURVE",
"24 681 OFFCURVE",
"-30 638 CURVE",
"-32 630 OFFCURVE",
"-4 600 OFFCURVE",
"6 606 CURVE",
"29 635 OFFCURVE",
"86 659 OFFCURVE",
"129 659 CURVE SMOOTH",
"234 659 OFFCURVE",
"249 602 OFFCURVE",
"262 526 CURVE",
"276 465 OFFCURVE",
"303 148 OFFCURVE",
"270 -13 CURVE",
"273 -18 OFFCURVE",
"276 -20 OFFCURVE",
"280 -20 CURVE SMOOTH",
"292 -20 OFFCURVE",
"295 -10 OFFCURVE",
"334 -6 CURVE",
"347 -6 OFFCURVE",
"357 1 OFFCURVE",
"362 15 CURVE SMOOTH",
"409 171 OFFCURVE",
"871 658 OFFCURVE",
"852 788 CURVE",
"852 798 OFFCURVE",
"800 831 OFFCURVE",
"785 833 CURVE",
"768 838 OFFCURVE",
"776 820 OFFCURVE",
"779 812 CURVE",
"785 794 OFFCURVE",
"785 779 OFFCURVE",
"772 754 CURVE",
"715 616 OFFCURVE",
"528 333 OFFCURVE",
"347 108 CURVE"
);
}
);
width = 709;
}
);
note = V;
unicode = 0056;
},
{
glyphname = W;
lastChange = "2018-02-12 19:31:57 +0000";
layers = (
{
anchors = (
{
name = bottom;
position = "{541, 0}";
},
{
name = top;
position = "{664, 700}";
}
);
layerId = "0B1DFD06-3317-40CA-B510-4969A0718C16";
paths = (
{
closed = 1;
nodes = (
"1315 758 OFFCURVE",
"1267 770 OFFCURVE",
"1258 770 CURVE SMOOTH",
"1083 770 OFFCURVE",
"854 240 OFFCURVE",
"774 101 CURVE",
"771 96 OFFCURVE",
"768 94 OFFCURVE",
"764 94 CURVE SMOOTH",
"760 94 OFFCURVE",
"758 98 OFFCURVE",
"756 105 CURVE",
"720 277 OFFCURVE",
"687 568 OFFCURVE",
"690 610 CURVE",
"694 614 OFFCURVE",
"635 621 OFFCURVE",
"629 621 CURVE",
"512 455 OFFCURVE",
"407 284 OFFCURVE",
"268 107 CURVE",
"264 99 OFFCURVE",
"257 99 OFFCURVE",
"258 121 CURVE SMOOTH",
"267 280 OFFCURVE",
"284 439 OFFCURVE",
"302 588 CURVE SMOOTH",
"307 633 OFFCURVE",
"321 687 OFFCURVE",
"331 696 CURVE SMOOTH",
"337 702 OFFCURVE",
"334 713 OFFCURVE",
"325 713 CURVE SMOOTH",
"315 713 OFFCURVE",
"326 703 OFFCURVE",
"132 665 CURVE",
"119 665 OFFCURVE",
"123 619 OFFCURVE",
"136 619 CURVE SMOOTH",
"155 619 OFFCURVE",
"187 632 OFFCURVE",
"217 632 CURVE SMOOTH",
"233 632 OFFCURVE",
"243 625 OFFCURVE",
"245 609 CURVE SMOOTH",
"259 466 OFFCURVE",
"199 35 OFFCURVE",
"167 -15 CURVE",
"164 -24 OFFCURVE",
"167 -29 OFFCURVE",
"174 -29 CURVE",
"194 -19 OFFCURVE",
"220 -10 OFFCURVE",
"252 -10 CURVE SMOOTH",
"261 -10 OFFCURVE",
"267 -4 OFFCURVE",
"267 6 CURVE",
"273 75 OFFCURVE",
"565 468 OFFCURVE",
"604 513 CURVE",
"619 528 OFFCURVE",
"633 532 OFFCURVE",
"637 512 CURVE SMOOTH",
"670 347 OFFCURVE",
"721 37 OFFCURVE",
"716 -4 CURVE SMOOTH",
"715 -17 OFFCURVE",
"721 -26 OFFCURVE",
"729 -23 CURVE SMOOTH",
"752 -13 OFFCURVE",
"752 -10 OFFCURVE",
"779 -6 CURVE",
"793 -2 OFFCURVE",
"795 6 OFFCURVE",
"798 15 CURVE",
"884 271 OFFCURVE",
"1196 728 OFFCURVE",
"1305 738 CURVE SMOOTH",
"1320 739 OFFCURVE",
"1336 739 OFFCURVE",
"1321 752 CURVE"
);
}
);
width = 1164;
}
);
note = W;
unicode = 0057;
},
{
glyphname = X;
lastChange = "2017-12-19 08:22:12 +0000";
layers = (
{
layerId = "0B1DFD06-3317-40CA-B510-4969A0718C16";
paths = (
{
closed = 1;
nodes = (
"912 708 OFFCURVE",
"873 765 OFFCURVE",
"868 765 CURVE SMOOTH",
"859 765 OFFCURVE",
"856 759 OFFCURVE",
"857 756 CURVE",
"865 745 OFFCURVE",
"864 735 OFFCURVE",
"853 727 CURVE",
"739 622 OFFCURVE",
"631 526 OFFCURVE",
"507 430 CURVE",
"494 468 OFFCURVE",
"455 546 OFFCURVE",
"439 593 CURVE SMOOTH",
"414 665 OFFCURVE",
"384 704 OFFCURVE",
"312 704 CURVE SMOOTH",
"231 704 OFFCURVE",
"175 683 OFFCURVE",
"114 646 CURVE",
"105 639 OFFCURVE",
"121 606 OFFCURVE",
"133 614 CURVE",
"170 644 OFFCURVE",
"212 657 OFFCURVE",
"255 657 CURVE SMOOTH",
"307 657 OFFCURVE",
"351 649 OFFCURVE",
"378 587 CURVE SMOOTH",
"408 515 OFFCURVE",
"430 458 OFFCURVE",
"458 392 CURVE",
"352 309 OFFCURVE",
"248 227 OFFCURVE",
"149 142 CURVE SMOOTH",
"70 74 OFFCURVE",
"4 5 OFFCURVE",
"13 -43 CURVE SMOOTH",
"17 -58 OFFCURVE",
"50 -99 OFFCURVE",
"67 -109 CURVE",
"70 -108 OFFCURVE",
"70 -105 OFFCURVE",
"68 -99 CURVE",
"55 -38 OFFCURVE",
"120 39 OFFCURVE",
"152 71 CURVE SMOOTH",
"253 170 OFFCURVE",
"356 258 OFFCURVE",
"469 349 CURVE",
"501 273 OFFCURVE",
"524 208 OFFCURVE",
"549 145 CURVE SMOOTH",
"590 42 OFFCURVE",
"625 -13 OFFCURVE",
"693 -13 CURVE SMOOTH",
"764 -13 OFFCURVE",
"833 40 OFFCURVE",
"879 77 CURVE",
"888 80 OFFCURVE",
"864 113 OFFCURVE",
"854 104 CURVE SMOOTH",
"818 65 OFFCURVE",
"772 43 OFFCURVE",
"734 43 CURVE SMOOTH",
"683 43 OFFCURVE",
"650 69 OFFCURVE",
"613 154 CURVE SMOOTH",
"578 230 OFFCURVE",
"551 302 OFFCURVE",
"519 388 CURVE",
"646 487 OFFCURVE",
"803 603 OFFCURVE",
"906 679 CURVE",
"912 684 OFFCURVE",
"914 690 OFFCURVE",
"912 699 CURVE"
);
}
);
width = 862;
}
);
note = X;
unicode = 0058;
},
{
glyphname = Y;
lastChange = "2018-02-12 21:22:08 +0000";
layers = (
{
layerId = "0B1DFD06-3317-40CA-B510-4969A0718C16";
paths = (
{
closed = 1;
nodes = (
"984 720 OFFCURVE",
"934 754 OFFCURVE",
"909 754 CURVE SMOOTH",
"722 754 OFFCURVE",
"509 489 OFFCURVE",
"402 340 CURVE",
"412 338 LINE",
"406 481 OFFCURVE",
"358 709 OFFCURVE",
"174 709 CURVE SMOOTH",
"74 709 OFFCURVE",
"-13 669 OFFCURVE",
"-13 587 CURVE SMOOTH",
"-13 569 OFFCURVE",
"-6 563 OFFCURVE",
"0 558 CURVE",
"37 610 OFFCURVE",
"87 647 OFFCURVE",
"149 647 CURVE SMOOTH",
"287 647 OFFCURVE",
"356 505 OFFCURVE",
"359 370 CURVE SMOOTH",
"363 252 OFFCURVE",
"299 74 OFFCURVE",
"240 6 CURVE",
"237 -2 OFFCURVE",
"252 -18 OFFCURVE",
"258 -14 CURVE",
"290 1 OFFCURVE",
"295 7 OFFCURVE",
"345 0 CURVE",
"363 -4 OFFCURVE",
"364 5 OFFCURVE",
"364 13 CURVE SMOOTH",
"364 243 OFFCURVE",
"601 622 OFFCURVE",
"921 693 CURVE SMOOTH",
"946 699 OFFCURVE",
"973 681 OFFCURVE",
"978 679 CURVE",
"982 676 OFFCURVE",
"996 701 OFFCURVE",
"996 704 CURVE"
);
}
);
width = 645;
}
);
note = Y;
unicode = 0059;
},
{
glyphname = Z;
lastChange = "2018-02-12 21:04:06 +0000";
layers = (
{
anchors = (
{
name = bottom;
position = "{310, 0}";
},
{
name = top;
position = "{433, 700}";
}
);
layerId = "0B1DFD06-3317-40CA-B510-4969A0718C16";
paths = (
{
closed = 1;
nodes = (
"880 -164 OFFCURVE",
"928 -155 OFFCURVE",
"961 -104 CURVE SMOOTH",
"989 -60 OFFCURVE",
"1005 -18 OFFCURVE",
"1005 37 CURVE SMOOTH",
"1005 66 OFFCURVE",
"987 80 OFFCURVE",
"958 80 CURVE",
"959 72 OFFCURVE",
"960 53 OFFCURVE",
"959 32 CURVE SMOOTH",
"955 -54 OFFCURVE",
"892 -91 OFFCURVE",
"761 -91 CURVE SMOOTH",
"559 -91 OFFCURVE",
"407 10 OFFCURVE",
"206 38 CURVE SMOOTH",
"195 40 OFFCURVE",
"190 46 OFFCURVE",
"190 53 CURVE SMOOTH",
"190 58 OFFCURVE",
"192 63 OFFCURVE",
"195 68 CURVE SMOOTH",
"310 260 OFFCURVE",
"580 491 OFFCURVE",
"725 644 CURVE SMOOTH",
"742 662 OFFCURVE",
"757 667 OFFCURVE",
"770 669 CURVE",
"770 682 OFFCURVE",
"772 707 OFFCURVE",
"751 707 CURVE SMOOTH",
"644 707 OFFCURVE",
"319 700 OFFCURVE",
"184 690 CURVE SMOOTH",
"172 689 OFFCURVE",
"162 682 OFFCURVE",
"159 667 CURVE SMOOTH",
"155 646 OFFCURVE",
"148 612 OFFCURVE",
"142 590 CURVE",
"146 590 OFFCURVE",
"154 589 OFFCURVE",
"162 589 CURVE SMOOTH",
"167 589 OFFCURVE",
"171 598 OFFCURVE",
"176 604 CURVE SMOOTH",
"215 651 OFFCURVE",
"355 656 OFFCURVE",
"585 656 CURVE SMOOTH",
"609 656 OFFCURVE",
"622 650 OFFCURVE",
"622 639 CURVE SMOOTH",
"622 634 OFFCURVE",
"620 627 OFFCURVE",
"614 620 CURVE SMOOTH",
"500 487 OFFCURVE",
"180 162 OFFCURVE",
"95 77 CURVE SMOOTH",
"79 61 OFFCURVE",
"53 50 OFFCURVE",
"24 50 CURVE SMOOTH",
"17 50 OFFCURVE",
"15 42 OFFCURVE",
"15 33 CURVE SMOOTH",
"15 19 OFFCURVE",
"21 2 OFFCURVE",
"26 2 CURVE SMOOTH",
"368 2 OFFCURVE",
"598 -160 OFFCURVE",
"815 -163 CURVE SMOOTH"
);
}
);
width = 702;
}
);
note = Z;
unicode = 005A;
},
{
color = 4;
glyphname = a;
lastChange = "2018-02-12 21:27:37 +0000";
layers = (
{
layerId = "0B1DFD06-3317-40CA-B510-4969A0718C16";
paths = (
{
closed = 1;
nodes = (
"491 -12 OFFCURVE",
"596 70 OFFCURVE",
"676 200 CURVE SMOOTH",
"703 244 OFFCURVE",
"679 251 OFFCURVE",
"665 251 CURVE",
"592 117 OFFCURVE",
"470 28 OFFCURVE",
"405 28 CURVE SMOOTH",
"375 28 OFFCURVE",
"366 33 OFFCURVE",
"362 77 CURVE SMOOTH",
"355 140 OFFCURVE",
"366 204 OFFCURVE",
"441 390 CURVE SMOOTH",
"453 421 OFFCURVE",
"460 442 OFFCURVE",
"474 458 CURVE",
"471 460 LINE",
"421 445 LINE SMOOTH",
"407 441 OFFCURVE",
"405 427 OFFCURVE",
"389 382 CURVE SMOOTH",
"378 352 OFFCURVE",
"340 245 OFFCURVE",
"325 203 CURVE SMOOTH",
"288 93 OFFCURVE",
"229 41 OFFCURVE",
"182 41 CURVE SMOOTH",
"153 41 OFFCURVE",
"135 66 OFFCURVE",
"134 121 CURVE SMOOTH",
"132 232 OFFCURVE",
"231 375 OFFCURVE",
"399 375 CURVE SMOOTH",
"438 375 OFFCURVE",
"484 359 OFFCURVE",
"503 349 CURVE",
"508 353 OFFCURVE",
"511 358 OFFCURVE",
"511 367 CURVE SMOOTH",
"511 390 OFFCURVE",
"450 412 OFFCURVE",
"403 412 CURVE SMOOTH",
"200 412 OFFCURVE",
"73 283 OFFCURVE",
"73 108 CURVE SMOOTH",
"73 41 OFFCURVE",
"121 -6 OFFCURVE",
"170 -6 CURVE SMOOTH",
"253 -6 OFFCURVE",
"292 50 OFFCURVE",
"336 148 CURVE",
"323 157 LINE",
"315 127 OFFCURVE",
"310 109 OFFCURVE",
"310 75 CURVE SMOOTH",
"310 28 OFFCURVE",
"336 -12 OFFCURVE",
"384 -12 CURVE SMOOTH"
);
}
);
width = 550;
}
);
note = a;
unicode = 0061;
},
{
color = 4;
glyphname = b;
lastChange = "2018-02-12 21:27:37 +0000";
layers = (
{
layerId = "0B1DFD06-3317-40CA-B510-4969A0718C16";
paths = (
{
closed = 1;
nodes = (
"612 300 OFFCURVE",
"572 282 OFFCURVE",
"503 282 CURVE SMOOTH",
"434 282 OFFCURVE",
"357 303 OFFCURVE",
"337 402 CURVE SMOOTH",
"336 407 OFFCURVE",
"334 411 OFFCURVE",
"330 411 CURVE SMOOTH",
"316 411 OFFCURVE",
"290 370 OFFCURVE",
"290 356 CURVE",
"308 329 OFFCURVE",
"323 261 OFFCURVE",
"323 216 CURVE SMOOTH",
"329 102 OFFCURVE",
"265 42 OFFCURVE",
"224 42 CURVE SMOOTH",
"192 42 OFFCURVE",
"155 56 OFFCURVE",
"155 194 CURVE SMOOTH",
"155 586 OFFCURVE",
"407 983 OFFCURVE",
"747 983 CURVE SMOOTH",
"781 983 OFFCURVE",
"817 979 OFFCURVE",
"852 969 CURVE",
"852 974 OFFCURVE",
"852 982 OFFCURVE",
"851 988 CURVE SMOOTH",
"836 1056 OFFCURVE",
"787 1081 OFFCURVE",
"723 1081 CURVE SMOOTH",
"493 1081 OFFCURVE",
"94 665 OFFCURVE",
"94 192 CURVE SMOOTH",
"94 37 OFFCURVE",
"153 -12 OFFCURVE",
"214 -12 CURVE SMOOTH",
"305 -12 OFFCURVE",
"369 68 OFFCURVE",
"363 226 CURVE SMOOTH",
"362 258 OFFCURVE",
"352 294 OFFCURVE",
"342 322 CURVE",
"335 313 LINE",
"357 266 OFFCURVE",
"435 242 OFFCURVE",
"491 242 CURVE SMOOTH",
"580 242 OFFCURVE",
"656 285 OFFCURVE",
"656 326 CURVE SMOOTH",
"656 332 OFFCURVE",
"654 335 OFFCURVE",
"651 338 CURVE"
);
}
);
width = 499;
}
);
note = b;
unicode = 0062;
},
{
color = 4;
glyphname = c;
lastChange = "2018-02-12 21:27:37 +0000";
layers = (
{
layerId = "0B1DFD06-3317-40CA-B510-4969A0718C16";
paths = (
{
closed = 1;
nodes = (
"501 149 OFFCURVE",
"501 247 CURVE SMOOTH",
"501 256 OFFCURVE",
"497 262 OFFCURVE",
"487 262 CURVE",
"409 98 OFFCURVE",
"284 30 OFFCURVE",
"206 30 CURVE SMOOTH",
"155 30 OFFCURVE",
"126 44 OFFCURVE",
"123 136 CURVE SMOOTH",
"120 244 OFFCURVE",
"198 366 OFFCURVE",
"264 366 CURVE SMOOTH",
"313 366 OFFCURVE",
"324 314 OFFCURVE",
"324 289 CURVE SMOOTH",
"324 282 LINE",
"329 281 LINE",
"350 295 OFFCURVE",
"364 315 OFFCURVE",
"363 335 CURVE",
"362 384 OFFCURVE",
"332 409 OFFCURVE",
"279 409 CURVE SMOOTH",
"168 409 OFFCURVE",
"62 253 OFFCURVE",
"65 113 CURVE SMOOTH",
"69 38 OFFCURVE",
"109 -11 OFFCURVE",
"188 -11 CURVE SMOOTH",
"350 -11 OFFCURVE"
);
}
);
width = 382;
}
);
note = c;
unicode = 0063;
},
{
color = 4;
glyphname = d;
lastChange = "2018-02-12 21:27:37 +0000";
layers = (
{
anchors = (
{
name = bottom;
position = "{167, 0}";
},
{
name = center;
position = "{208, 235}";
},
{
name = top;
position = "{249, 470}";
},
{
name = topright;
position = "{436, 470}";
}
);
layerId = "0B1DFD06-3317-40CA-B510-4969A0718C16";
paths = (
{
closed = 1;
nodes = (
"330 416 LINE",
"158 367 OFFCURVE",
"62 227 OFFCURVE",
"62 116 CURVE SMOOTH",
"62 34 OFFCURVE",
"112 -10 OFFCURVE",
"169 -10 CURVE SMOOTH",
"313 -10 OFFCURVE",
"375 147 OFFCURVE",
"375 303 CURVE SMOOTH",
"375 725 OFFCURVE",
"104 1019 OFFCURVE",
"-103 1019 CURVE SMOOTH",
"-140 1019 OFFCURVE",
"-175 1009 OFFCURVE",
"-208 990 CURVE",
"106 938 OFFCURVE",
"327 610 OFFCURVE",
"327 282 CURVE SMOOTH",
"327 153 OFFCURVE",
"266 33 OFFCURVE",
"180 33 CURVE SMOOTH",
"155 33 OFFCURVE",
"126 47 OFFCURVE",
"121 110 CURVE SMOOTH",
"113 211 OFFCURVE",
"213 347 OFFCURVE",
"332 375 CURVE"
);
}
);
width = 415;
}
);
note = d;
unicode = 0064;
},
{
color = 4;
glyphname = e;
lastChange = "2018-02-12 21:27:37 +0000";
layers = (
{
anchors = (
{
name = bottom;
position = "{143, 0}";
},
{
name = ogonek;
position = "{280, 10}";
},
{
name = top;
position = "{225, 470}";
}
);
layerId = "0B1DFD06-3317-40CA-B510-4969A0718C16";
paths = (
{
closed = 1;
nodes = (
"139 198 LINE",
"273 194 OFFCURVE",
"361 251 OFFCURVE",
"361 341 CURVE SMOOTH",
"361 374 OFFCURVE",
"334 409 OFFCURVE",
"290 409 CURVE SMOOTH",
"167 409 OFFCURVE",
"80 258 OFFCURVE",
"80 124 CURVE SMOOTH",
"80 38 OFFCURVE",
"131 -9 OFFCURVE",
"194 -9 CURVE SMOOTH",
"321 -9 OFFCURVE",
"435 84 OFFCURVE",
"496 183 CURVE SMOOTH",
"504 196 OFFCURVE",
"509 206 OFFCURVE",
"509 221 CURVE SMOOTH",
"509 232 OFFCURVE",
"500 238 OFFCURVE",
"491 239 CURVE",
"447 156 OFFCURVE",
"330 43 OFFCURVE",
"219 43 CURVE SMOOTH",
"162 43 OFFCURVE",
"140 64 OFFCURVE",
"140 137 CURVE SMOOTH",
"140 232 OFFCURVE",
"198 371 OFFCURVE",
"287 371 CURVE SMOOTH",
"311 371 OFFCURVE",
"320 357 OFFCURVE",
"319 337 CURVE SMOOTH",
"315 260 OFFCURVE",
"220 231 OFFCURVE",
"139 231 CURVE"
);
}
);
width = 368;
}
);
note = e;
unicode = 0065;
},
{
color = 4;
glyphname = f;
lastChange = "2018-02-12 21:27:37 +0000";
layers = (
{
layerId = "0B1DFD06-3317-40CA-B510-4969A0718C16";
paths = (
{
closed = 1;
nodes = (
"-28 -637 OFFCURVE",
"129 -217 OFFCURVE",
"192 0 CURVE SMOOTH",
"222 104 OFFCURVE",
"255 232 OFFCURVE",
"291 360 CURVE SMOOTH",
"421 822 OFFCURVE",
"477 936 OFFCURVE",
"581 936 CURVE SMOOTH",
"626 936 OFFCURVE",
"663 924 OFFCURVE",
"689 901 CURVE",
"702 908 OFFCURVE",
"712 921 OFFCURVE",
"712 939 CURVE SMOOTH",
"712 968 OFFCURVE",
"685 990 OFFCURVE",
"636 990 CURVE SMOOTH",
"595 990 OFFCURVE",
"550 974 OFFCURVE",
"515 951 CURVE SMOOTH",
"394 872 OFFCURVE",
"361 773 OFFCURVE",
"238 365 CURVE SMOOTH",
"201 242 OFFCURVE",
"134 14 OFFCURVE",
"99 -98 CURVE SMOOTH",
"2 -410 OFFCURVE",
"-76 -577 OFFCURVE",
"-200 -577 CURVE SMOOTH",
"-277 -577 OFFCURVE",
"-308 -469 OFFCURVE",
"-317 -346 CURVE",
"-335 -375 OFFCURVE",
"-364 -402 OFFCURVE",
"-364 -439 CURVE SMOOTH",
"-364 -516 OFFCURVE",
"-292 -637 OFFCURVE",
"-201 -637 CURVE SMOOTH"
);
},
{
closed = 1;
nodes = (
"13 330 OFFCURVE",
"53 341 OFFCURVE",
"260 347 CURVE SMOOTH",
"330 347 OFFCURVE",
"469 352 OFFCURVE",
"567 352 CURVE",
"575 359 OFFCURVE",
"570 387 OFFCURVE",
"564 390 CURVE",
"383 390 OFFCURVE",
"272 387 OFFCURVE",
"255 387 CURVE SMOOTH",
"207 388 OFFCURVE",
"88 381 OFFCURVE",
"53 370 CURVE",
"24 360 OFFCURVE",
"-10 321 OFFCURVE",
"-25 241 CURVE",
"-12 237 LINE"
);
}
);
width = 388;
}
);
note = f;
unicode = 0066;
},
{
color = 4;
glyphname = g;
lastChange = "2018-02-12 21:27:37 +0000";
layers = (
{
layerId = "0B1DFD06-3317-40CA-B510-4969A0718C16";
paths = (
{
closed = 1;
nodes = (
"362 422 OFFCURVE",
"344 368 CURVE SMOOTH",
"298 230 OFFCURVE",
"207 38 OFFCURVE",
"153 38 CURVE SMOOTH",
"134 38 OFFCURVE",
"128 68 OFFCURVE",
"127 86 CURVE SMOOTH",
"123 142 OFFCURVE",
"148 239 OFFCURVE",
"224 327 CURVE SMOOTH",
"245 350 OFFCURVE",
"282 365 OFFCURVE",
"329 365 CURVE SMOOTH",
"341 365 OFFCURVE",
"355 361 OFFCURVE",
"362 358 CURVE",
"378 407 LINE",
"364 412 OFFCURVE",
"347 415 OFFCURVE",
"336 415 CURVE SMOOTH",
"301 415 OFFCURVE",
"244 397 OFFCURVE",
"216 379 CURVE SMOOTH",
"121 315 OFFCURVE",
"59 172 OFFCURVE",
"59 85 CURVE SMOOTH",
"59 21 OFFCURVE",
"92 -21 OFFCURVE",
"130 -21 CURVE SMOOTH",
"202 -21 OFFCURVE",
"280 123 OFFCURVE",
"309 185 CURVE",
"296 185 LINE",
"273 121 OFFCURVE",
"251 60 OFFCURVE",
"229 3 CURVE SMOOTH",
"104 -341 OFFCURVE",
"4 -573 OFFCURVE",
"-239 -573 CURVE SMOOTH",
"-362 -573 OFFCURVE",
"-407 -522 OFFCURVE",
"-450 -406 CURVE",
"-456 -416 OFFCURVE",
"-462 -427 OFFCURVE",
"-462 -437 CURVE SMOOTH",
"-462 -561 OFFCURVE",
"-387 -641 OFFCURVE",
"-262 -641 CURVE SMOOTH",
"17 -641 OFFCURVE",
"146 -394 OFFCURVE",
"286 1 CURVE SMOOTH",
"331 128 OFFCURVE",
"377 272 OFFCURVE",
"430 427 CURVE SMOOTH",
"432 433 OFFCURVE",
"434 440 OFFCURVE",
"434 447 CURVE SMOOTH",
"434 466 OFFCURVE",
"413 483 OFFCURVE",
"387 509 CURVE",
"383 508 LINE",
"383 499 OFFCURVE",
"382 489 OFFCURVE",
"380 483 CURVE SMOOTH",
"375 467 OFFCURVE"
);
}
);
width = 454;
}
);
note = g;
unicode = 0067;
},
{
color = 4;
glyphname = h;
lastChange = "2018-02-12 21:27:37 +0000";
layers = (
{
layerId = "0B1DFD06-3317-40CA-B510-4969A0718C16";
paths = (
{
closed = 1;
nodes = (
"425 -12 OFFCURVE",
"535 80 OFFCURVE",
"603 187 CURVE SMOOTH",
"610 198 OFFCURVE",
"613 211 OFFCURVE",
"613 218 CURVE SMOOTH",
"613 232 OFFCURVE",
"607 237 OFFCURVE",
"598 240 CURVE",
"569 187 OFFCURVE",
"463 50 OFFCURVE",
"344 50 CURVE SMOOTH",
"304 50 OFFCURVE",
"296 70 OFFCURVE",
"296 103 CURVE SMOOTH",
"296 168 OFFCURVE",
"379 340 OFFCURVE",
"379 373 CURVE SMOOTH",
"379 383 OFFCURVE",
"357 409 OFFCURVE",
"347 409 CURVE SMOOTH",
"283 409 OFFCURVE",
"147 236 OFFCURVE",
"147 232 CURVE",
"152 217 LINE",
"235 548 OFFCURVE",
"464 1038 OFFCURVE",
"689 1038 CURVE SMOOTH",
"774 1038 OFFCURVE",
"833 1000 OFFCURVE",
"855 896 CURVE",
"863 908 LINE",
"864 917 OFFCURVE",
"864 926 OFFCURVE",
"864 934 CURVE SMOOTH",
"864 1067 OFFCURVE",
"790 1108 OFFCURVE",
"710 1108 CURVE SMOOTH",
"519 1108 OFFCURVE",
"349 890 OFFCURVE",
"211 546 CURVE SMOOTH",
"142 386 OFFCURVE",
"98 245 OFFCURVE",
"31 57 CURVE SMOOTH",
"25 40 OFFCURVE",
"22 27 OFFCURVE",
"22 19 CURVE SMOOTH",
"22 0 OFFCURVE",
"57 -7 OFFCURVE",
"69 -7 CURVE SMOOTH",
"77 -7 OFFCURVE",
"84 2 OFFCURVE",
"90 24 CURVE SMOOTH",
"98 50 OFFCURVE",
"115 110 OFFCURVE",
"132 155 CURVE",
"178 240 OFFCURVE",
"266 318 OFFCURVE",
"286 318 CURVE SMOOTH",
"290 318 OFFCURVE",
"295 314 OFFCURVE",
"295 309 CURVE SMOOTH",
"295 262 OFFCURVE",
"234 178 OFFCURVE",
"234 82 CURVE SMOOTH",
"234 27 OFFCURVE",
"270 -12 OFFCURVE",
"321 -12 CURVE SMOOTH"
);
}
);
width = 475;
}
);
note = h;
unicode = 0068;
},
{
color = 4;
glyphname = i;
lastChange = "2018-02-12 21:27:37 +0000";
layers = (
{
layerId = "0B1DFD06-3317-40CA-B510-4969A0718C16";
paths = (
{
closed = 1;
nodes = (
"246 -12 OFFCURVE",
"366 80 OFFCURVE",
"434 187 CURVE SMOOTH",
"441 198 OFFCURVE",
"444 211 OFFCURVE",
"444 218 CURVE SMOOTH",
"444 232 OFFCURVE",
"438 237 OFFCURVE",
"429 240 CURVE",
"400 187 OFFCURVE",
"274 42 OFFCURVE",
"155 42 CURVE SMOOTH",
"126 42 OFFCURVE",
"119 58 OFFCURVE",
"119 90 CURVE SMOOTH",
"119 156 OFFCURVE",
"176 298 OFFCURVE",
"211 380 CURVE SMOOTH",
"215 388 OFFCURVE",
"217 395 OFFCURVE",
"217 400 CURVE SMOOTH",
"215 405 OFFCURVE",
"210 410 OFFCURVE",
"204 410 CURVE SMOOTH",
"195 410 OFFCURVE",
"163 395 OFFCURVE",
"154 375 CURVE SMOOTH",
"130 321 OFFCURVE",
"59 160 OFFCURVE",
"59 80 CURVE SMOOTH",
"59 13 OFFCURVE",
"101 -12 OFFCURVE",
"142 -12 CURVE SMOOTH"
);
},
{
closed = 1;
nodes = (
"271 591 OFFCURVE",
"291 618 OFFCURVE",
"291 644 CURVE SMOOTH",
"291 661 OFFCURVE",
"282 682 OFFCURVE",
"259 682 CURVE SMOOTH",
"229 682 OFFCURVE",
"211 656 OFFCURVE",
"211 628 CURVE SMOOTH",
"211 608 OFFCURVE",
"222 591 OFFCURVE",
"242 591 CURVE SMOOTH"
);
}
);
width = 301;
}
);
note = i;
unicode = 0069;
},
{
color = 4;
glyphname = j;
lastChange = "2018-02-12 21:27:37 +0000";
layers = (
{
layerId = "0B1DFD06-3317-40CA-B510-4969A0718C16";
paths = (
{
closed = 1;
nodes = (
"-66 -496 OFFCURVE",
"-30 -369 OFFCURVE",
"28 -201 CURVE SMOOTH",
"93 -12 OFFCURVE",
"162 198 OFFCURVE",
"196 327 CURVE SMOOTH",
"202 350 OFFCURVE",
"209 369 OFFCURVE",
"209 386 CURVE SMOOTH",
"209 399 OFFCURVE",
"203 412 OFFCURVE",
"185 412 CURVE SMOOTH",
"162 412 OFFCURVE",
"138 403 OFFCURVE",
"36 375 CURVE",
"36 357 OFFCURVE",
"40 344 OFFCURVE",
"56 344 CURVE SMOOTH",
"80 344 OFFCURVE",
"113 354 OFFCURVE",
"123 354 CURVE SMOOTH",
"135 354 OFFCURVE",
"138 353 OFFCURVE",
"138 342 CURVE SMOOTH",
"138 308 OFFCURVE",
"38 -32 OFFCURVE",
"-10 -183 CURVE SMOOTH",
"-60 -341 OFFCURVE",
"-140 -439 OFFCURVE",
"-241 -451 CURVE",
"-213 -474 OFFCURVE",
"-179 -496 OFFCURVE",
"-141 -496 CURVE SMOOTH"
);
},
{
closed = 1;
nodes = (
"248 582 OFFCURVE",
"266 612 OFFCURVE",
"266 641 CURVE SMOOTH",
"266 659 OFFCURVE",
"254 675 OFFCURVE",
"234 675 CURVE SMOOTH",
"205 675 OFFCURVE",
"188 649 OFFCURVE",
"188 620 CURVE SMOOTH",
"188 600 OFFCURVE",
"199 582 OFFCURVE",
"220 582 CURVE SMOOTH"
);
}
);
width = 270;
}
);
note = j;
unicode = 006A;
},
{
color = 4;
glyphname = k;
lastChange = "2018-02-12 21:27:37 +0000";
layers = (
{
layerId = "0B1DFD06-3317-40CA-B510-4969A0718C16";
paths = (
{
closed = 1;
nodes = (
"346 333 OFFCURVE",
"464 417 CURVE",
"452 430 OFFCURVE",
"426 437 OFFCURVE",
"404 437 CURVE SMOOTH",
"381 437 OFFCURVE",
"166 190 OFFCURVE",
"79 77 CURVE",
"88 69 LINE",
"137 242 OFFCURVE",
"193 399 OFFCURVE",
"252 534 CURVE SMOOTH",
"388 844 OFFCURVE",
"541 1038 OFFCURVE",
"678 1038 CURVE SMOOTH",
"765 1038 OFFCURVE",
"832 1006 OFFCURVE",
"867 908 CURVE",
"869 910 OFFCURVE",
"872 914 OFFCURVE",
"872 917 CURVE SMOOTH",
"878 1055 OFFCURVE",
"792 1108 OFFCURVE",
"699 1108 CURVE SMOOTH",
"508 1108 OFFCURVE",
"354 888 OFFCURVE",
"210 546 CURVE SMOOTH",
"126 346 OFFCURVE",
"85 213 OFFCURVE",
"56 128 CURVE SMOOTH",
"43 90 OFFCURVE",
"26 35 OFFCURVE",
"26 20 CURVE SMOOTH",
"26 8 OFFCURVE",
"53 -14 OFFCURVE",
"64 -14 CURVE SMOOTH",
"69 -14 OFFCURVE",
"74 -10 OFFCURVE",
"78 -4 CURVE SMOOTH",
"155 111 OFFCURVE"
);
},
{
closed = 1;
nodes = (
"307 177 OFFCURVE",
"287 281 CURVE",
"278 277 OFFCURVE",
"272 272 OFFCURVE",
"258 264 CURVE SMOOTH",
"244 256 OFFCURVE",
"241 243 OFFCURVE",
"244 234 CURVE SMOOTH",
"290 67 OFFCURVE",
"332 -12 OFFCURVE",
"426 -12 CURVE SMOOTH",
"541 -12 OFFCURVE",
"681 182 OFFCURVE",
"681 243 CURVE SMOOTH",
"681 266 OFFCURVE",
"673 281 OFFCURVE",
"662 281 CURVE",
"627 146 OFFCURVE",
"530 32 OFFCURVE",
"449 32 CURVE SMOOTH",
"353 32 OFFCURVE"
);
}
);
width = 536;
}
);
note = k;
unicode = 006B;
},
{
color = 4;
glyphname = l;
lastChange = "2018-02-12 21:27:37 +0000";
layers = (
{
layerId = "0B1DFD06-3317-40CA-B510-4969A0718C16";
paths = (
{
closed = 1;
nodes = (
"277 599 OFFCURVE",
"412 835 CURVE SMOOTH",
"486 965 OFFCURVE",
"495 981 OFFCURVE",
"513 981 CURVE SMOOTH",
"529 981 OFFCURVE",
"533 960 OFFCURVE",
"533 932 CURVE SMOOTH",
"533 720 OFFCURVE",
"347 526 OFFCURVE",
"162 310 CURVE",
"142 236 LINE",
"369 470 OFFCURVE",
"591 723 OFFCURVE",
"591 937 CURVE SMOOTH",
"591 1001 OFFCURVE",
"574 1025 OFFCURVE",
"539 1025 CURVE SMOOTH",
"500 1025 OFFCURVE",
"430 970 OFFCURVE",
"383 900 CURVE SMOOTH",
"226 666 OFFCURVE",
"72 244 OFFCURVE",
"77 92 CURVE SMOOTH",
"79 37 OFFCURVE",
"115 -7 OFFCURVE",
"185 -7 CURVE SMOOTH",
"323 -7 OFFCURVE",
"436 101 OFFCURVE",
"505 209 CURVE SMOOTH",
"526 241 OFFCURVE",
"520 280 OFFCURVE",
"498 280 CURVE",
"445 153 OFFCURVE",
"334 41 OFFCURVE",
"212 41 CURVE SMOOTH",
"168 41 OFFCURVE",
"139 55 OFFCURVE",
"138 105 CURVE SMOOTH",
"136 223 OFFCURVE"
);
}
);
width = 368;
}
);
note = l;
unicode = 006C;
},
{
color = 4;
glyphname = m;
lastChange = "2018-02-13 11:27:43 +0000";
layers = (
{
anchors = (
{
name = bottom;
position = "{237, 0}";
},
{
name = top;
position = "{351, 420}";
}
);
layerId = "0B1DFD06-3317-40CA-B510-4969A0718C16";
paths = (
{
closed = 1;
nodes = (
"638 -2 OFFCURVE",
"781 174 OFFCURVE",
"781 232 CURVE SMOOTH",
"781 250 OFFCURVE",
"772 264 OFFCURVE",
"757 264 CURVE",
"711 151 OFFCURVE",
"625 47 OFFCURVE",
"516 47 CURVE SMOOTH",
"483 47 OFFCURVE",
"477 69 OFFCURVE",
"477 102 CURVE SMOOTH",
"477 183 OFFCURVE",
"552 349 OFFCURVE",
"552 367 CURVE SMOOTH",
"552 388 OFFCURVE",
"532 403 OFFCURVE",
"511 403 CURVE SMOOTH",
"464 403 OFFCURVE",
"350 279 OFFCURVE",
"316 230 CURVE",
"323 224 LINE",
"334 252 OFFCURVE",
"353 326 OFFCURVE",
"353 349 CURVE SMOOTH",
"353 369 OFFCURVE",
"337 385 OFFCURVE",
"320 385 CURVE SMOOTH",
"285 385 OFFCURVE",
"210 344 OFFCURVE",
"128 190 CURVE",
"145 202 LINE",
"171 298 OFFCURVE",
"199 354 OFFCURVE",
"206 389 CURVE",
"201 399 OFFCURVE",
"186 419 OFFCURVE",
"174 419 CURVE SMOOTH",
"166 419 OFFCURVE",
"159 413 OFFCURVE",
"154 402 CURVE SMOOTH",
"116 293 OFFCURVE",
"80 180 OFFCURVE",
"36 74 CURVE SMOOTH",
"35 69 OFFCURVE",
"33 63 OFFCURVE",
"33 57 CURVE SMOOTH",
"33 41 OFFCURVE",
"47 10 OFFCURVE",
"66 10 CURVE SMOOTH",
"79 10 OFFCURVE",
"91 58 OFFCURVE",
"112 109 CURVE",
"141 184 OFFCURVE",
"258 318 OFFCURVE",
"289 318 CURVE SMOOTH",
"293 318 OFFCURVE",
"296 313 OFFCURVE",
"297 304 CURVE SMOOTH",
"297 292 OFFCURVE",
"272 193 OFFCURVE",
"232 93 CURVE SMOOTH",
"221 64 OFFCURVE",
"217 46 OFFCURVE",
"220 38 CURVE",
"224 27 OFFCURVE",
"239 10 OFFCURVE",
"250 10 CURVE SMOOTH",
"273 10 OFFCURVE",
"291 115 OFFCURVE",
"310 163 CURVE",
"336 211 OFFCURVE",
"448 337 OFFCURVE",
"474 337 CURVE SMOOTH",
"479 337 OFFCURVE",
"485 333 OFFCURVE",
"485 326 CURVE SMOOTH",
"485 271 OFFCURVE",
"418 184 OFFCURVE",
"423 74 CURVE SMOOTH",
"425 26 OFFCURVE",
"455 -2 OFFCURVE",
"504 -2 CURVE SMOOTH"
);
}
);
width = 628;
}
);
note = m;
unicode = 006D;
},
{
color = 4;
glyphname = n;
lastChange = "2018-02-13 11:28:42 +0000";
layers = (
{
anchors = (
{
name = bottom;
position = "{190, 0}";
},
{
name = top;
position = "{264, 420}";
}
);
layerId = "0B1DFD06-3317-40CA-B510-4969A0718C16";
paths = (
{
closed = 1;
nodes = (
"401 -12 OFFCURVE",
"501 59 OFFCURVE",
"567 160 CURVE SMOOTH",
"582 183 OFFCURVE",
"597 208 OFFCURVE",
"597 232 CURVE SMOOTH",
"597 250 OFFCURVE",
"588 264 OFFCURVE",
"573 264 CURVE",
"570 257 OFFCURVE",
"565 247 OFFCURVE",
"559 236 CURVE SMOOTH",
"490 109 OFFCURVE",
"408 33 OFFCURVE",
"332 33 CURVE SMOOTH",
"306 33 OFFCURVE",
"298 48 OFFCURVE",
"297 73 CURVE SMOOTH",
"293 152 OFFCURVE",
"353 297 OFFCURVE",
"387 369 CURVE SMOOTH",
"391 380 OFFCURVE",
"392 387 OFFCURVE",
"391 391 CURVE SMOOTH",
"387 401 OFFCURVE",
"376 416 OFFCURVE",
"366 416 CURVE SMOOTH",
"329 416 OFFCURVE",
"220 319 OFFCURVE",
"135 226 CURVE",
"142 190 LINE",
"163 261 OFFCURVE",
"176 302 OFFCURVE",
"186 330 CURVE SMOOTH",
"195 359 OFFCURVE",
"202 378 OFFCURVE",
"201 382 CURVE SMOOTH",
"195 396 OFFCURVE",
"177 411 OFFCURVE",
"163 411 CURVE SMOOTH",
"155 411 OFFCURVE",
"150 408 OFFCURVE",
"149 401 CURVE SMOOTH",
"134 332 OFFCURVE",
"112 237 OFFCURVE",
"89 158 CURVE",
"64 110 OFFCURVE",
"34 72 OFFCURVE",
"40 48 CURVE",
"40 41 OFFCURVE",
"62 1 OFFCURVE",
"72 1 CURVE SMOOTH",
"73 1 OFFCURVE",
"76 5 OFFCURVE",
"80 14 CURVE",
"103 79 OFFCURVE",
"106 92 OFFCURVE",
"132 151 CURVE",
"166 208 OFFCURVE",
"255 298 OFFCURVE",
"298 334 CURVE SMOOTH",
"307 339 OFFCURVE",
"314 334 OFFCURVE",
"314 326 CURVE SMOOTH",
"314 297 OFFCURVE",
"235 134 OFFCURVE",
"239 54 CURVE SMOOTH",
"240 8 OFFCURVE",
"269 -12 OFFCURVE",
"310 -12 CURVE SMOOTH"
);
}
);
width = 453;
}
);
note = n;
unicode = 006E;
},
{
color = 4;
glyphname = o;
lastChange = "2018-02-13 11:29:25 +0000";
layers = (
{
anchors = (
{
name = bottom;
position = "{194, 0}";
},
{
name = center;
position = "{231, 210}";
},
{
name = ogonek;
position = "{211, 10}";
},
{
name = top;
position = "{268, 420}";
},
{
name = topright;
position = "{478, 420}";
}
);
layerId = "0B1DFD06-3317-40CA-B510-4969A0718C16";
paths = (
{
closed = 1;
nodes = (
"391 206 OFFCURVE",
"478 206 CURVE SMOOTH",
"554 206 OFFCURVE",
"627 263 OFFCURVE",
"627 323 CURVE SMOOTH",
"627 331 OFFCURVE",
"621 337 OFFCURVE",
"614 337 CURVE",
"587 275 OFFCURVE",
"546 245 OFFCURVE",
"482 245 CURVE SMOOTH",
"401 245 OFFCURVE",
"353 322 OFFCURVE",
"353 401 CURVE SMOOTH",
"353 412 OFFCURVE",
"355 429 OFFCURVE",
"359 442 CURVE SMOOTH",
"361 449 OFFCURVE",
"357 453 OFFCURVE",
"351 453 CURVE SMOOTH",
"346 453 OFFCURVE",
"335 449 OFFCURVE",
"316 442 CURVE SMOOTH",
"303 437 OFFCURVE",
"302 424 OFFCURVE",
"300 405 CURVE",
"163 401 OFFCURVE",
"59 254 OFFCURVE",
"59 98 CURVE SMOOTH",
"59 57 OFFCURVE",
"110 -8 OFFCURVE",
"159 -8 CURVE SMOOTH",
"304 -8 OFFCURVE",
"349 179 OFFCURVE",
"361 273 CURVE",
"318 333 LINE",
"331 276 OFFCURVE",
"263 39 OFFCURVE",
"173 39 CURVE SMOOTH",
"156 39 OFFCURVE",
"126 80 OFFCURVE",
"126 106 CURVE SMOOTH",
"126 211 OFFCURVE",
"211 369 OFFCURVE",
"300 369 CURVE SMOOTH",
"306 369 OFFCURVE",
"307 366 OFFCURVE",
"308 360 CURVE SMOOTH",
"322 280 OFFCURVE"
);
}
);
width = 461;
}
);
note = o;
unicode = 006F;
},
{
color = 4;
glyphname = p;
lastChange = "2018-02-12 21:27:37 +0000";
layers = (
{
layerId = "0B1DFD06-3317-40CA-B510-4969A0718C16";
paths = (
{
closed = 1;
nodes = (
"-214 -624 OFFCURVE",
"-141 -646 OFFCURVE",
"-115 -567 CURVE SMOOTH",
"1 -217 OFFCURVE",
"51 -29 OFFCURVE",
"152 230 CURVE SMOOTH",
"186 317 OFFCURVE",
"264 347 OFFCURVE",
"285 347 CURVE SMOOTH",
"304 347 OFFCURVE",
"318 328 OFFCURVE",
"318 314 CURVE SMOOTH",
"318 218 OFFCURVE",
"190 36 OFFCURVE",
"34 36 CURVE SMOOTH",
"21 36 OFFCURVE",
"9 36 OFFCURVE",
"-2 36 CURVE",
"-2 7 OFFCURVE",
"8 -6 OFFCURVE",
"45 -6 CURVE SMOOTH",
"238 -6 OFFCURVE",
"439 32 OFFCURVE",
"561 205 CURVE SMOOTH",
"573 222 OFFCURVE",
"580 237 OFFCURVE",
"580 253 CURVE SMOOTH",
"580 272 OFFCURVE",
"569 285 OFFCURVE",
"559 285 CURVE",
"449 89 OFFCURVE",
"256 52 OFFCURVE",
"120 32 CURVE",
"120 17 LINE",
"330 104 OFFCURVE",
"389 243 OFFCURVE",
"385 324 CURVE SMOOTH",
"385 364 OFFCURVE",
"347 408 OFFCURVE",
"318 408 CURVE SMOOTH",
"273 408 OFFCURVE",
"204 365 OFFCURVE",
"171 318 CURVE",
"182 309 LINE",
"233 419 OFFCURVE",
"250 472 OFFCURVE",
"319 558 CURVE SMOOTH",
"323 564 OFFCURVE",
"325 567 OFFCURVE",
"325 570 CURVE",
"322 574 OFFCURVE",
"319 577 OFFCURVE",
"316 578 CURVE",
"300 576 OFFCURVE",
"258 569 OFFCURVE",
"246 567 CURVE SMOOTH",
"239 566 OFFCURVE",
"235 562 OFFCURVE",
"229 549 CURVE SMOOTH",
"174 439 OFFCURVE",
"123 298 OFFCURVE",
"73 170 CURVE SMOOTH",
"5 -25 OFFCURVE",
"-53 -196 OFFCURVE",
"-140 -434 CURVE SMOOTH",
"-188 -568 OFFCURVE",
"-224 -603 OFFCURVE",
"-339 -652 CURVE",
"-328 -657 LINE"
);
}
);
width = 424;
}
);
note = p;
unicode = 0070;
},
{
color = 4;
glyphname = q;
lastChange = "2018-02-12 21:27:37 +0000";
layers = (
{
layerId = "0B1DFD06-3317-40CA-B510-4969A0718C16";
paths = (
{
closed = 1;
nodes = (
"201 21 CURVE",
"201 11 OFFCURVE",
"207 -2 OFFCURVE",
"214 -15 CURVE SMOOTH",
"236 -56 OFFCURVE",
"246 -132 OFFCURVE",
"246 -178 CURVE SMOOTH",
"246 -351 OFFCURVE",
"128 -505 OFFCURVE",
"74 -505 CURVE SMOOTH",
"54 -505 OFFCURVE",
"49 -490 OFFCURVE",
"49 -476 CURVE SMOOTH",
"49 -435 OFFCURVE",
"129 -245 OFFCURVE",
"385 353 CURVE",
"403 396 OFFCURVE",
"402 402 OFFCURVE",
"419 440 CURVE",
"421 444 OFFCURVE",
"421 448 OFFCURVE",
"420 449 CURVE",
"416 460 OFFCURVE",
"392 495 OFFCURVE",
"381 495 CURVE",
"372 462 OFFCURVE",
"362 440 OFFCURVE",
"338 379 CURVE SMOOTH",
"281 232 OFFCURVE",
"269 207 OFFCURVE",
"230 145 CURVE SMOOTH",
"197 92 OFFCURVE",
"160 48 OFFCURVE",
"125 48 CURVE SMOOTH",
"102 48 OFFCURVE",
"98 73 OFFCURVE",
"98 104 CURVE SMOOTH",
"98 211 OFFCURVE",
"207 356 OFFCURVE",
"333 356 CURVE SMOOTH",
"387 356 OFFCURVE",
"427 334 OFFCURVE",
"446 302 CURVE",
"460 306 OFFCURVE",
"460 314 OFFCURVE",
"460 333 CURVE",
"460 358 OFFCURVE",
"400 404 OFFCURVE",
"344 404 CURVE SMOOTH",
"183 404 OFFCURVE",
"30 229 OFFCURVE",
"30 87 CURVE SMOOTH",
"30 38 OFFCURVE",
"44 -6 OFFCURVE",
"94 -6 CURVE SMOOTH",
"145 -6 OFFCURVE",
"203 48 OFFCURVE",
"249 113 CURVE",
"237 118 LINE",
"230 98 OFFCURVE",
"-7 -399 OFFCURVE",
"-7 -492 CURVE SMOOTH",
"-7 -535 OFFCURVE",
"33 -563 OFFCURVE",
"53 -563 CURVE SMOOTH",
"181 -563 OFFCURVE",
"289 -376 OFFCURVE",
"289 -191 CURVE SMOOTH",
"289 -125 OFFCURVE",
"275 -34 OFFCURVE",
"242 13 CURVE",
"235 -5 LINE",
"359 50 OFFCURVE",
"585 131 OFFCURVE",
"585 236 CURVE SMOOTH",
"585 251 OFFCURVE",
"580 258 OFFCURVE",
"574 264 CURVE",
"505 149 OFFCURVE",
"349 87 OFFCURVE"
);
}
);
width = 459;
}
);
note = q;
unicode = 0071;
},
{
color = 4;
glyphname = r;
lastChange = "2018-02-12 21:27:37 +0000";
layers = (
{
layerId = "0B1DFD06-3317-40CA-B510-4969A0718C16";
paths = (
{
closed = 1;
nodes = (
"402 388 OFFCURVE",
"386 400 OFFCURVE",
"360 400 CURVE SMOOTH",
"274 400 OFFCURVE",
"182 302 OFFCURVE",
"148 249 CURVE",
"154 242 LINE",
"171 292 OFFCURVE",
"200 363 OFFCURVE",
"200 371 CURVE",
"193 395 OFFCURVE",
"161 408 OFFCURVE",
"156 408 CURVE",
"153 408 OFFCURVE",
"149 401 OFFCURVE",
"146 390 CURVE SMOOTH",
"132 347 OFFCURVE",
"83 192 OFFCURVE",
"35 52 CURVE SMOOTH",
"31 38 OFFCURVE",
"26 27 OFFCURVE",
"27 17 CURVE SMOOTH",
"28 5 OFFCURVE",
"57 -7 OFFCURVE",
"63 -7 CURVE SMOOTH",
"70 -7 OFFCURVE",
"72 -5 OFFCURVE",
"73 -1 CURVE SMOOTH",
"101 112 OFFCURVE",
"128 177 OFFCURVE",
"178 245 CURVE SMOOTH",
"198 272 OFFCURVE",
"263 329 OFFCURVE",
"316 329 CURVE SMOOTH",
"358 329 OFFCURVE",
"359 304 OFFCURVE",
"364 304 CURVE SMOOTH",
"367 304 OFFCURVE",
"371 305 OFFCURVE",
"372 307 CURVE SMOOTH",
"378 328 OFFCURVE",
"397 359 OFFCURVE",
"408 374 CURVE"
);
}
);
width = 367;
}
);
note = r;
unicode = 0072;
},
{
color = 4;
glyphname = s;
lastChange = "2018-02-12 21:27:37 +0000";
layers = (
{
layerId = "0B1DFD06-3317-40CA-B510-4969A0718C16";
paths = (
{
closed = 1;
nodes = (
"228 -18 OFFCURVE",
"289 42 OFFCURVE",
"286 111 CURVE SMOOTH",
"282 202 OFFCURVE",
"139 223 OFFCURVE",
"139 309 CURVE SMOOTH",
"139 336 OFFCURVE",
"172 367 OFFCURVE",
"203 367 CURVE SMOOTH",
"231 367 OFFCURVE",
"272 349 OFFCURVE",
"291 328 CURVE",
"303 339 OFFCURVE",
"312 355 OFFCURVE",
"312 372 CURVE SMOOTH",
"312 388 OFFCURVE",
"249 415 OFFCURVE",
"221 415 CURVE SMOOTH",
"153 415 OFFCURVE",
"86 356 OFFCURVE",
"86 292 CURVE SMOOTH",
"86 188 OFFCURVE",
"229 156 OFFCURVE",
"233 96 CURVE SMOOTH",
"235 67 OFFCURVE",
"205 26 OFFCURVE",
"149 26 CURVE SMOOTH",
"97 26 OFFCURVE",
"63 51 OFFCURVE",
"28 113 CURVE",
"10 108 OFFCURVE",
"-4 94 OFFCURVE",
"-4 70 CURVE",
"2 31 OFFCURVE",
"62 -18 OFFCURVE",
"135 -18 CURVE SMOOTH"
);
}
);
width = 351;
}
);
note = s;
unicode = 0073;
},
{
color = 4;
glyphname = t;
lastChange = "2018-02-12 21:27:37 +0000";
layers = (
{
layerId = "0B1DFD06-3317-40CA-B510-4969A0718C16";
paths = (
{
closed = 1;
nodes = (
"293 356 OFFCURVE",
"398 360 CURVE SMOOTH",
"411 360 OFFCURVE",
"418 369 OFFCURVE",
"418 380 CURVE SMOOTH",
"418 384 OFFCURVE",
"417 388 OFFCURVE",
"414 391 CURVE",
"57 393 LINE",
"49 385 OFFCURVE",
"37 360 OFFCURVE",
"32 352 CURVE",
"35 346 OFFCURVE",
"40 344 OFFCURVE",
"46 344 CURVE SMOOTH",
"52 344 OFFCURVE"
);
},
{
closed = 1;
nodes = (
"72 196 OFFCURVE",
"72 85 CURVE SMOOTH",
"72 25 OFFCURVE",
"124 -10 OFFCURVE",
"180 -10 CURVE SMOOTH",
"246 -10 OFFCURVE",
"343 24 OFFCURVE",
"395 90 CURVE SMOOTH",
"413 113 OFFCURVE",
"411 127 OFFCURVE",
"406 136 CURVE",
"337 77 OFFCURVE",
"259 41 OFFCURVE",
"194 41 CURVE SMOOTH",
"153 41 OFFCURVE",
"130 55 OFFCURVE",
"130 99 CURVE SMOOTH",
"130 185 OFFCURVE",
"221 438 OFFCURVE",
"299 623 CURVE SMOOTH",
"312 655 OFFCURVE",
"344 670 OFFCURVE",
"367 677 CURVE",
"367 683 OFFCURVE",
"359 690 OFFCURVE",
"352 687 CURVE SMOOTH",
"319 678 OFFCURVE",
"275 662 OFFCURVE",
"247 643 CURVE",
"167 444 OFFCURVE"
);
}
);
width = 353;
}
);
note = t;
unicode = 0074;
},
{
color = 4;
glyphname = u;
lastChange = "2018-02-12 21:27:37 +0000";
layers = (
{
anchors = (
{
name = bottom;
position = "{195, 0}";
},
{
name = ogonek;
position = "{384, 10}";
},
{
name = top;
position = "{277, 470}";
},
{
name = topright;
position = "{493, 470}";
}
);
layerId = "0B1DFD06-3317-40CA-B510-4969A0718C16";
paths = (
{
closed = 1;
nodes = (
"470 -12 OFFCURVE",
"612 188 OFFCURVE",
"612 229 CURVE",
"612 247 OFFCURVE",
"604 256 OFFCURVE",
"593 258 CURVE",
"510 106 OFFCURVE",
"434 34 OFFCURVE",
"354 34 CURVE SMOOTH",
"329 34 OFFCURVE",
"315 49 OFFCURVE",
"313 88 CURVE SMOOTH",
"308 185 OFFCURVE",
"352 252 OFFCURVE",
"380 326 CURVE",
"389 354 OFFCURVE",
"367 393 OFFCURVE",
"349 393 CURVE SMOOTH",
"346 393 OFFCURVE",
"341 390 OFFCURVE",
"339 382 CURVE SMOOTH",
"329 340 OFFCURVE",
"313 296 OFFCURVE",
"285 216 CURVE SMOOTH",
"251 120 OFFCURVE",
"181 51 OFFCURVE",
"146 51 CURVE SMOOTH",
"132 51 OFFCURVE",
"118 59 OFFCURVE",
"114 78 CURVE",
"117 124 OFFCURVE",
"139 226 OFFCURVE",
"195 356 CURVE SMOOTH",
"199 366 OFFCURVE",
"202 373 OFFCURVE",
"202 378 CURVE SMOOTH",
"202 390 OFFCURVE",
"165 415 OFFCURVE",
"156 415 CURVE SMOOTH",
"151 415 OFFCURVE",
"147 409 OFFCURVE",
"143 396 CURVE SMOOTH",
"77 189 OFFCURVE",
"56 120 OFFCURVE",
"55 57 CURVE",
"61 27 OFFCURVE",
"85 0 OFFCURVE",
"117 0 CURVE SMOOTH",
"194 0 OFFCURVE",
"265 98 OFFCURVE",
"273 120 CURVE",
"269 125 LINE",
"262 109 OFFCURVE",
"260 95 OFFCURVE",
"260 74 CURVE SMOOTH",
"260 26 OFFCURVE",
"289 -12 OFFCURVE",
"349 -12 CURVE SMOOTH"
);
}
);
width = 472;
}
);
note = u;
unicode = 0075;
},
{
color = 4;
glyphname = v;
lastChange = "2018-02-12 21:27:37 +0000";
layers = (
{
layerId = "0B1DFD06-3317-40CA-B510-4969A0718C16";
paths = (
{
closed = 1;
nodes = (
"343 426 OFFCURVE",
"367 397 OFFCURVE",
"367 346 CURVE SMOOTH",
"367 287 OFFCURVE",
"310 209 OFFCURVE",
"122 28 CURVE",
"137 25 LINE",
"178 221 OFFCURVE",
"206 318 OFFCURVE",
"206 368 CURVE SMOOTH",
"206 389 OFFCURVE",
"191 410 OFFCURVE",
"177 416 CURVE",
"143 403 OFFCURVE",
"114 397 OFFCURVE",
"50 387 CURVE",
"42 378 OFFCURVE",
"44 372 OFFCURVE",
"47 367 CURVE",
"123 364 LINE SMOOTH",
"137 363 OFFCURVE",
"147 363 OFFCURVE",
"147 349 CURVE SMOOTH",
"147 314 OFFCURVE",
"133 241 OFFCURVE",
"91 33 CURVE SMOOTH",
"90 28 OFFCURVE",
"80 19 OFFCURVE",
"80 15 CURVE",
"120 -5 LINE",
"352 196 OFFCURVE",
"422 242 OFFCURVE",
"422 348 CURVE SMOOTH",
"422 414 OFFCURVE",
"372 435 OFFCURVE",
"325 450 CURVE",
"315 445 LINE"
);
}
);
width = 421;
}
);
note = v;
unicode = 0076;
},
{
color = 4;
glyphname = w;
lastChange = "2018-02-12 21:27:37 +0000";
layers = (
{
layerId = "0B1DFD06-3317-40CA-B510-4969A0718C16";
paths = (
{
closed = 1;
nodes = (
"483 -12 OFFCURVE",
"574 101 OFFCURVE",
"574 247 CURVE SMOOTH",
"574 308 OFFCURVE",
"554 333 OFFCURVE",
"536 353 CURVE",
"521 340 LINE",
"540 304 OFFCURVE",
"590 271 OFFCURVE",
"658 271 CURVE SMOOTH",
"725 271 OFFCURVE",
"796 284 OFFCURVE",
"842 333 CURVE SMOOTH",
"857 349 OFFCURVE",
"865 379 OFFCURVE",
"852 385 CURVE",
"809 327 OFFCURVE",
"757 302 OFFCURVE",
"675 302 CURVE SMOOTH",
"591 302 OFFCURVE",
"537 405 OFFCURVE",
"524 405 CURVE SMOOTH",
"515 405 OFFCURVE",
"493 384 OFFCURVE",
"493 365 CURVE",
"493 339 OFFCURVE",
"527 324 OFFCURVE",
"527 240 CURVE SMOOTH",
"527 125 OFFCURVE",
"456 27 OFFCURVE",
"365 27 CURVE SMOOTH",
"339 27 OFFCURVE",
"322 41 OFFCURVE",
"322 82 CURVE SMOOTH",
"322 136 OFFCURVE",
"393 261 OFFCURVE",
"393 304 CURVE SMOOTH",
"393 324 OFFCURVE",
"371 341 OFFCURVE",
"340 341 CURVE",
"332 312 OFFCURVE",
"310 247 OFFCURVE",
"278 180 CURVE SMOOTH",
"235 91 OFFCURVE",
"191 47 OFFCURVE",
"142 47 CURVE SMOOTH",
"115 47 OFFCURVE",
"97 63 OFFCURVE",
"97 104 CURVE SMOOTH",
"97 190 OFFCURVE",
"173 308 OFFCURVE",
"237 382 CURVE",
"235 388 OFFCURVE",
"229 394 OFFCURVE",
"220 394 CURVE SMOOTH",
"182 394 OFFCURVE",
"164 380 OFFCURVE",
"140 353 CURVE SMOOTH",
"107 316 OFFCURVE",
"42 191 OFFCURVE",
"45 92 CURVE SMOOTH",
"46 41 OFFCURVE",
"83 0 OFFCURVE",
"126 0 CURVE SMOOTH",
"190 0 OFFCURVE",
"257 49 OFFCURVE",
"292 144 CURVE",
"275 140 LINE",
"256 66 OFFCURVE",
"274 -12 OFFCURVE",
"366 -12 CURVE SMOOTH"
);
}
);
width = 684;
}
);
note = w;
unicode = 0077;
},
{
color = 4;
glyphname = x;
lastChange = "2018-02-12 21:27:37 +0000";
layers = (
{
layerId = "0B1DFD06-3317-40CA-B510-4969A0718C16";
paths = (
{
closed = 1;
nodes = (
"328 390 OFFCURVE",
"287 354 CURVE SMOOTH",
"106 191 OFFCURVE",
"-95 -45 OFFCURVE",
"-113 -138 CURVE SMOOTH",
"-120 -171 OFFCURVE",
"-93 -191 OFFCURVE",
"-49 -219 CURVE",
"-49 -26 OFFCURVE",
"176 228 OFFCURVE",
"390 352 CURVE",
"395 363 OFFCURVE",
"396 393 OFFCURVE",
"393 404 CURVE SMOOTH",
"392 408 OFFCURVE",
"389 409 OFFCURVE",
"386 409 CURVE SMOOTH",
"364 409 OFFCURVE"
);
},
{
closed = 1;
nodes = (
"123 282 OFFCURVE",
"174 398 CURVE SMOOTH",
"176 402 OFFCURVE",
"172 408 OFFCURVE",
"166 408 CURVE",
"157 399 OFFCURVE",
"145 391 OFFCURVE",
"135 386 CURVE SMOOTH",
"127 381 OFFCURVE",
"119 371 OFFCURVE",
"116 353 CURVE SMOOTH",
"100 196 OFFCURVE",
"145 -11 OFFCURVE",
"270 -11 CURVE SMOOTH",
"368 -11 OFFCURVE",
"447 70 OFFCURVE",
"447 115 CURVE",
"447 133 OFFCURVE",
"443 142 OFFCURVE",
"434 144 CURVE",
"395 69 OFFCURVE",
"345 36 OFFCURVE",
"282 36 CURVE SMOOTH",
"182 36 OFFCURVE"
);
}
);
width = 470;
}
);
note = x;
unicode = 0078;
},
{
color = 4;
glyphname = y;
lastChange = "2018-02-12 21:27:37 +0000";
layers = (
{
layerId = "0B1DFD06-3317-40CA-B510-4969A0718C16";
paths = (
{
closed = 1;
nodes = (
"170 0 OFFCURVE",
"235 48 OFFCURVE",
"274 88 CURVE",
"257 88 LINE",
"132 -277 OFFCURVE",
"-29 -450 OFFCURVE",
"-277 -450 CURVE SMOOTH",
"-383 -450 OFFCURVE",
"-447 -394 OFFCURVE",
"-475 -322 CURVE",
"-479 -332 OFFCURVE",
"-485 -343 OFFCURVE",
"-485 -355 CURVE SMOOTH",
"-485 -443 OFFCURVE",
"-433 -523 OFFCURVE",
"-283 -523 CURVE SMOOTH",
"68 -523 OFFCURVE",
"226 -126 OFFCURVE",
"307 85 CURVE SMOOTH",
"343 179 OFFCURVE",
"384 281 OFFCURVE",
"419 375 CURVE",
"415 394 OFFCURVE",
"398 413 OFFCURVE",
"382 418 CURVE",
"366 418 OFFCURVE",
"357 387 OFFCURVE",
"339 333 CURVE SMOOTH",
"302 223 OFFCURVE",
"283 148 OFFCURVE",
"268 127 CURVE",
"246 100 OFFCURVE",
"175 50 OFFCURVE",
"143 50 CURVE SMOOTH",
"122 50 OFFCURVE",
"108 71 OFFCURVE",
"108 89 CURVE SMOOTH",
"108 127 OFFCURVE",
"166 280 OFFCURVE",
"220 407 CURVE",
"211 409 OFFCURVE",
"201 412 OFFCURVE",
"190 412 CURVE SMOOTH",
"163 412 OFFCURVE",
"151 406 OFFCURVE",
"142 384 CURVE SMOOTH",
"94 260 OFFCURVE",
"49 125 OFFCURVE",
"52 71 CURVE SMOOTH",
"53 36 OFFCURVE",
"88 0 OFFCURVE",
"121 0 CURVE SMOOTH"
);
}
);
width = 434;
}
);
note = y;
unicode = 0079;
},
{
color = 4;
glyphname = z;
lastChange = "2018-02-12 21:27:37 +0000";
layers = (
{
layerId = "0B1DFD06-3317-40CA-B510-4969A0718C16";
paths = (
{
closed = 1;
nodes = (
"947 -271 OFFCURVE",
"1043 -199 OFFCURVE",
"1043 -105 CURVE SMOOTH",
"1043 -80 OFFCURVE",
"1031 -56 OFFCURVE",
"1012 -56 CURVE",
"971 -162 OFFCURVE",
"888 -227 OFFCURVE",
"778 -227 CURVE SMOOTH",
"602 -227 OFFCURVE",
"337 -86 OFFCURVE",
"106 75 CURVE",
"111 53 LINE",
"180 101 OFFCURVE",
"349 261 OFFCURVE",
"421 354 CURVE",
"430 370 OFFCURVE",
"383 394 OFFCURVE",
"377 385 CURVE",
"326 332 OFFCURVE",
"300 312 OFFCURVE",
"244 312 CURVE SMOOTH",
"194 312 OFFCURVE",
"170 328 OFFCURVE",
"170 370 CURVE SMOOTH",
"170 393 OFFCURVE",
"181 409 OFFCURVE",
"189 417 CURVE",
"188 423 OFFCURVE",
"178 426 OFFCURVE",
"170 426 CURVE SMOOTH",
"137 426 OFFCURVE",
"114 389 OFFCURVE",
"114 348 CURVE SMOOTH",
"114 304 OFFCURVE",
"152 265 OFFCURVE",
"200 266 CURVE SMOOTH",
"254 267 OFFCURVE",
"303 284 OFFCURVE",
"330 300 CURVE",
"318 302 LINE",
"253 237 OFFCURVE",
"155 135 OFFCURVE",
"0 31 CURVE SMOOTH",
"-4 28 OFFCURVE",
"-5 27 OFFCURVE",
"-5 24 CURVE SMOOTH",
"-5 16 OFFCURVE",
"19 -9 OFFCURVE",
"28 -9 CURVE SMOOTH",
"53 -9 OFFCURVE",
"62 26 OFFCURVE",
"92 26 CURVE SMOOTH",
"98 26 OFFCURVE",
"104 23 OFFCURVE",
"120 13 CURVE SMOOTH",
"320 -112 OFFCURVE",
"546 -271 OFFCURVE",
"785 -271 CURVE SMOOTH"
);
}
);
width = 434;
}
);
note = z;
unicode = 007A;
},
{
color = 3;
glyphname = AE;
lastChange = "2018-02-06 09:43:58 +0000";
layers = (
{
layerId = "0B1DFD06-3317-40CA-B510-4969A0718C16";
paths = (
{
closed = 1;
nodes = (
"565 658 OFFCURVE",
"367 446 OFFCURVE",
"43 60 CURVE SMOOTH",
"5 17 OFFCURVE",
"-15 -10 OFFCURVE",
"-6 -49 CURVE",
"55 -129 LINE",
"58 -132 OFFCURVE",
"65 -127 OFFCURVE",
"69 -119 CURVE",
"61 -82 OFFCURVE",
"63 -70 OFFCURVE",
"73 -42 CURVE",
"109 39 OFFCURVE",
"188 154 OFFCURVE",
"317 302 CURVE",
"364 277 OFFCURVE",
"538 289 OFFCURVE",
"566 280 CURVE SMOOTH",
"609 267 OFFCURVE",
"619 246 OFFCURVE",
"625 224 CURVE",
"628 205 OFFCURVE",
"627 140 OFFCURVE",
"631 63 CURVE",
"631 20 OFFCURVE",
"658 -13 OFFCURVE",
"828 -13 CURVE SMOOTH",
"937 -13 OFFCURVE",
"1010 6 OFFCURVE",
"1110 31 CURVE",
"1131 37 OFFCURVE",
"1145 46 OFFCURVE",
"1151 60 CURVE",
"1154 71 OFFCURVE",
"1161 117 OFFCURVE",
"1173 129 CURVE",
"1171 136 OFFCURVE",
"1169 138 OFFCURVE",
"1165 134 CURVE",
"1079 58 OFFCURVE",
"921 32 OFFCURVE",
"802 32 CURVE SMOOTH",
"735 32 OFFCURVE",
"706 37 OFFCURVE",
"697 86 CURVE SMOOTH",
"683 167 OFFCURVE",
"689 248 OFFCURVE",
"685 339 CURVE",
"688 345 OFFCURVE",
"693 349 OFFCURVE",
"701 349 CURVE",
"749 352 OFFCURVE",
"941 349 OFFCURVE",
"1006 349 CURVE SMOOTH",
"1014 349 OFFCURVE",
"1017 351 OFFCURVE",
"1019 355 CURVE",
"1019 365 OFFCURVE",
"1031 399 OFFCURVE",
"1034 408 CURVE",
"1028 413 LINE",
"952 390 OFFCURVE",
"785 388 OFFCURVE",
"694 394 CURVE",
"681 394 OFFCURVE",
"681 399 OFFCURVE",
"681 408 CURVE",
"675 497 OFFCURVE",
"679 551 OFFCURVE",
"683 637 CURVE",
"683 652 OFFCURVE",
"697 653 OFFCURVE",
"715 653 CURVE SMOOTH",
"791 653 OFFCURVE",
"985 672 OFFCURVE",
"1053 653 CURVE",
"1061 650 OFFCURVE",
"1069 639 OFFCURVE",
"1073 626 CURVE",
"1085 625 LINE",
"1091 646 OFFCURVE",
"1106 695 OFFCURVE",
"1106 703 CURVE SMOOTH",
"1106 709 OFFCURVE",
"1102 713 OFFCURVE",
"1095 713 CURVE SMOOTH",
"1010 713 OFFCURVE",
"766 706 OFFCURVE",
"690 706 CURVE SMOOTH",
"682 706 OFFCURVE",
"676 708 OFFCURVE",
"665 712 CURVE",
"645 715 OFFCURVE",
"640 715 OFFCURVE",
"626 706 CURVE"
);
},
{
closed = 1;
nodes = (
"415 438 OFFCURVE",
"596 618 OFFCURVE",
"612 633 CURVE",
"626 646 OFFCURVE",
"627 632 OFFCURVE",
"627 628 CURVE SMOOTH",
"627 613 OFFCURVE",
"626 408 OFFCURVE",
"626 325 CURVE SMOOTH",
"626 311 OFFCURVE",
"626 303 OFFCURVE",
"602 309 CURVE SMOOTH",
"583 314 OFFCURVE",
"558 321 OFFCURVE",
"490 321 CURVE SMOOTH",
"389 321 OFFCURVE",
"358 325 OFFCURVE",
"350 344 CURVE"
);
}
);
width = 1165;
}
);
note = AE;
unicode = 00C6;
},
{
color = 3;
glyphname = Eth;
lastChange = "2018-02-06 09:43:58 +0000";
layers = (
{
layerId = "0B1DFD06-3317-40CA-B510-4969A0718C16";
paths = (
{
closed = 1;
nodes = (
"137 -5 LINE",
"161 20 OFFCURVE",
"170 36 OFFCURVE",
"188 36 CURVE SMOOTH",
"223 36 OFFCURVE",
"287 -13 OFFCURVE",
"417 -13 CURVE SMOOTH",
"669 -13 OFFCURVE",
"870 144 OFFCURVE",
"860 422 CURVE SMOOTH",
"851 659 OFFCURVE",
"663 707 OFFCURVE",
"470 707 CURVE SMOOTH",
"365 707 OFFCURVE",
"290 694 OFFCURVE",
"169 694 CURVE SMOOTH",
"139 694 OFFCURVE",
"101 713 OFFCURVE",
"98 713 CURVE SMOOTH",
"87 713 OFFCURVE",
"101 644 OFFCURVE",
"120 644 CURVE SMOOTH",
"188 645 OFFCURVE",
"249 665 OFFCURVE",
"317 665 CURVE SMOOTH",
"321 665 OFFCURVE",
"330 663 OFFCURVE",
"331 657 CURVE",
"321 608 OFFCURVE",
"284 495 OFFCURVE",
"246 380 CURVE",
"232 380 OFFCURVE",
"207 381 OFFCURVE",
"132 381 CURVE SMOOTH",
"123 381 OFFCURVE",
"115 351 OFFCURVE",
"115 343 CURVE",
"118 340 OFFCURVE",
"121 339 OFFCURVE",
"127 339 CURVE SMOOTH",
"134 339 OFFCURVE",
"189 346 OFFCURVE",
"236 346 CURVE",
"201 233 OFFCURVE",
"163 126 OFFCURVE",
"154 96 CURVE",
"144 74 OFFCURVE",
"111 33 OFFCURVE",
"92 5 CURVE"
);
},
{
closed = 1;
nodes = (
"409 670 OFFCURVE",
"425 670 OFFCURVE",
"450 670 CURVE SMOOTH",
"725 670 OFFCURVE",
"789 574 OFFCURVE",
"793 413 CURVE SMOOTH",
"802 188 OFFCURVE",
"621 30 OFFCURVE",
"414 30 CURVE SMOOTH",
"347 30 OFFCURVE",
"286 45 OFFCURVE",
"242 82 CURVE",
"227 93 OFFCURVE",
"224 107 OFFCURVE",
"230 124 CURVE",
"250 194 OFFCURVE",
"274 268 OFFCURVE",
"299 347 CURVE",
"375 347 OFFCURVE",
"394 350 OFFCURVE",
"507 350 CURVE SMOOTH",
"519 350 OFFCURVE",
"525 384 OFFCURVE",
"525 389 CURVE",
"524 393 OFFCURVE",
"519 395 OFFCURVE",
"512 395 CURVE SMOOTH",
"471 395 OFFCURVE",
"428 383 OFFCURVE",
"308 380 CURVE",
"340 471 OFFCURVE",
"369 564 OFFCURVE",
"401 651 CURVE"
);
}
);
width = 921;
}
);
note = Eth;
unicode = 00D0;
},
{
color = 3;
glyphname = Dcroat;
lastChange = "2018-02-06 09:43:58 +0000";
layers = (
{
layerId = "0B1DFD06-3317-40CA-B510-4969A0718C16";
paths = (
{
closed = 1;
nodes = (
"137 -5 LINE",
"161 20 OFFCURVE",
"170 36 OFFCURVE",
"188 36 CURVE SMOOTH",
"223 36 OFFCURVE",
"287 -13 OFFCURVE",
"417 -13 CURVE SMOOTH",
"669 -13 OFFCURVE",
"870 144 OFFCURVE",
"860 422 CURVE SMOOTH",
"851 659 OFFCURVE",
"663 707 OFFCURVE",
"470 707 CURVE SMOOTH",
"365 707 OFFCURVE",
"290 694 OFFCURVE",
"169 694 CURVE SMOOTH",
"139 694 OFFCURVE",
"101 713 OFFCURVE",
"98 713 CURVE SMOOTH",
"87 713 OFFCURVE",
"101 644 OFFCURVE",
"120 644 CURVE SMOOTH",
"188 645 OFFCURVE",
"249 665 OFFCURVE",
"317 665 CURVE SMOOTH",
"321 665 OFFCURVE",
"330 663 OFFCURVE",
"331 657 CURVE",
"321 608 OFFCURVE",
"284 495 OFFCURVE",
"246 380 CURVE",
"232 380 OFFCURVE",
"207 381 OFFCURVE",
"132 381 CURVE SMOOTH",
"123 381 OFFCURVE",
"115 351 OFFCURVE",
"115 343 CURVE",
"118 340 OFFCURVE",
"121 339 OFFCURVE",
"127 339 CURVE SMOOTH",
"134 339 OFFCURVE",
"189 346 OFFCURVE",
"236 346 CURVE",
"201 233 OFFCURVE",
"163 126 OFFCURVE",
"154 96 CURVE",
"144 74 OFFCURVE",
"111 33 OFFCURVE",
"92 5 CURVE"
);
},
{
closed = 1;
nodes = (
"409 670 OFFCURVE",
"425 670 OFFCURVE",
"450 670 CURVE SMOOTH",
"725 670 OFFCURVE",
"789 574 OFFCURVE",
"793 413 CURVE SMOOTH",
"802 188 OFFCURVE",
"621 30 OFFCURVE",
"414 30 CURVE SMOOTH",
"347 30 OFFCURVE",
"286 45 OFFCURVE",
"242 82 CURVE",
"227 93 OFFCURVE",
"224 107 OFFCURVE",
"230 124 CURVE",
"250 194 OFFCURVE",
"274 268 OFFCURVE",
"299 347 CURVE",
"375 347 OFFCURVE",
"394 350 OFFCURVE",
"507 350 CURVE SMOOTH",
"519 350 OFFCURVE",
"525 384 OFFCURVE",
"525 389 CURVE",
"524 393 OFFCURVE",
"519 395 OFFCURVE",
"512 395 CURVE SMOOTH",
"471 395 OFFCURVE",
"428 383 OFFCURVE",
"308 380 CURVE",
"340 471 OFFCURVE",
"369 564 OFFCURVE",
"401 651 CURVE"
);
}
);
width = 921;
}
);
note = Dcroat;
unicode = 0110;
},
{
color = 3;
glyphname = Eacute;
lastChange = "2018-02-06 09:43:58 +0000";
layers = (
{
background = {
paths = (
{
closed = 1;
nodes = (
"554 0 LINE",
"571 179 LINE",
"544 179 LINE",
"538 124 OFFCURVE",
"520 40 OFFCURVE",
"456 40 CURVE SMOOTH",
"201 40 LINE",
"201 659 LINE",
"441 659 LINE SMOOTH",
"516 659 OFFCURVE",
"525 567 OFFCURVE",
"528 527 CURVE",
"555 527 LINE",
"555 700 LINE",
"16 700 LINE",
"16 673 LINE",
"44 673 LINE SMOOTH",
"83 673 OFFCURVE",
"103 662 OFFCURVE",
"103 637 CURVE SMOOTH",
"103 62 LINE SMOOTH",
"103 37 OFFCURVE",
"83 26 OFFCURVE",
"44 26 CURVE SMOOTH",
"16 26 LINE",
"16 0 LINE"
);
},
{
closed = 1;
nodes = (
"455 251 LINE",
"455 485 LINE",
"431 485 LINE",
"427 436 OFFCURVE",
"424 388 OFFCURVE",
"379 388 CURVE SMOOTH",
"162 388 LINE",
"162 348 LINE",
"379 348 LINE SMOOTH",
"424 348 OFFCURVE",
"427 300 OFFCURVE",
"431 251 CURVE"
);
},
{
closed = 1;
nodes = (
"398 865 LINE SMOOTH",
"420 877 OFFCURVE",
"432 890 OFFCURVE",
"432 907 CURVE SMOOTH",
"432 922 OFFCURVE",
"420 937 OFFCURVE",
"398 937 CURVE SMOOTH",
"377 937 OFFCURVE",
"362 921 OFFCURVE",
"354 914 CURVE SMOOTH",
"239 807 LINE",
"256 782 LINE"
);
}
);
};
components = (
{
name = E;
},
{
name = acute;
transform = "{1, 0, 0, 1, 56, 230}";
}
);
layerId = "0B1DFD06-3317-40CA-B510-4969A0718C16";
width = 607;
}
);
note = Eacute;
unicode = 00C9;
},
{
color = 3;
glyphname = Ebreve;
lastChange = "2018-02-06 09:43:58 +0000";
layers = (
{
background = {
paths = (
{
closed = 1;
nodes = (
"554 0 LINE",
"571 179 LINE",
"544 179 LINE",
"538 124 OFFCURVE",
"520 40 OFFCURVE",
"456 40 CURVE SMOOTH",
"201 40 LINE",
"201 659 LINE",
"441 659 LINE SMOOTH",
"516 659 OFFCURVE",
"525 567 OFFCURVE",
"528 527 CURVE",
"555 527 LINE",
"555 700 LINE",
"16 700 LINE",
"16 673 LINE",
"44 673 LINE SMOOTH",
"83 673 OFFCURVE",
"103 662 OFFCURVE",
"103 637 CURVE SMOOTH",
"103 62 LINE SMOOTH",
"103 37 OFFCURVE",
"83 26 OFFCURVE",
"44 26 CURVE SMOOTH",
"16 26 LINE",
"16 0 LINE"
);
},
{
closed = 1;
nodes = (
"455 251 LINE",
"455 485 LINE",
"431 485 LINE",
"427 436 OFFCURVE",
"424 388 OFFCURVE",
"379 388 CURVE SMOOTH",
"162 388 LINE",
"162 348 LINE",
"379 348 LINE SMOOTH",
"424 348 OFFCURVE",
"427 300 OFFCURVE",
"431 251 CURVE"
);
},
{
closed = 1;
nodes = (
"432 776 OFFCURVE",
"474 832 OFFCURVE",
"478 907 CURVE",
"445 907 LINE",
"439 848 OFFCURVE",
"397 822 OFFCURVE",
"333 822 CURVE SMOOTH",
"269 822 OFFCURVE",
"226 848 OFFCURVE",
"219 907 CURVE",
"186 907 LINE",
"190 829 OFFCURVE",
"232 776 OFFCURVE",
"333 776 CURVE SMOOTH"
);
}
);
};
components = (
{
name = E;
},
{
name = breve;
transform = "{1, 0, 0, 1, 68, 230}";
}
);
layerId = "0B1DFD06-3317-40CA-B510-4969A0718C16";
width = 607;
}
);
note = Ebreve;
unicode = 0114;
},
{
color = 3;
glyphname = Ecaron;
lastChange = "2018-02-06 09:43:58 +0000";
layers = (
{
background = {
paths = (
{
closed = 1;
nodes = (
"554 0 LINE",
"571 179 LINE",
"544 179 LINE",
"538 124 OFFCURVE",
"520 40 OFFCURVE",
"456 40 CURVE SMOOTH",
"201 40 LINE",
"201 659 LINE",
"441 659 LINE SMOOTH",
"516 659 OFFCURVE",
"525 567 OFFCURVE",
"528 527 CURVE",
"555 527 LINE",
"555 700 LINE",
"16 700 LINE",
"16 673 LINE",
"44 673 LINE SMOOTH",
"83 673 OFFCURVE",
"103 662 OFFCURVE",
"103 637 CURVE SMOOTH",
"103 62 LINE SMOOTH",
"103 37 OFFCURVE",
"83 26 OFFCURVE",
"44 26 CURVE SMOOTH",
"16 26 LINE",
"16 0 LINE"
);
},
{
closed = 1;
nodes = (
"455 251 LINE",
"455 485 LINE",
"431 485 LINE",
"427 436 OFFCURVE",
"424 388 OFFCURVE",
"379 388 CURVE SMOOTH",
"162 388 LINE",
"162 348 LINE",
"379 348 LINE SMOOTH",
"424 348 OFFCURVE",
"427 300 OFFCURVE",
"431 251 CURVE"
);
},
{
closed = 1;
nodes = (
"357 782 LINE",
"481 911 LINE",
"462 932 LINE",
"354 847 LINE",
"346 840 OFFCURVE",
"337 836 OFFCURVE",
"331 836 CURVE SMOOTH",
"325 836 OFFCURVE",
"317 840 OFFCURVE",
"307 847 CURVE",
"199 932 LINE",
"180 911 LINE",
"304 782 LINE"
);
}
);
};
components = (
{
name = E;
},
{
name = caron;
transform = "{1, 0, 0, 1, 68, 230}";
}
);
layerId = "0B1DFD06-3317-40CA-B510-4969A0718C16";
width = 607;
}
);
note = Ecaron;
unicode = 011A;
},
{
color = 3;
glyphname = Ecircumflex;
lastChange = "2018-02-06 09:43:58 +0000";
layers = (
{
background = {
paths = (
{
closed = 1;
nodes = (
"554 0 LINE",
"571 179 LINE",
"544 179 LINE",
"538 124 OFFCURVE",
"520 40 OFFCURVE",
"456 40 CURVE SMOOTH",
"201 40 LINE",
"201 659 LINE",
"441 659 LINE SMOOTH",
"516 659 OFFCURVE",
"525 567 OFFCURVE",
"528 527 CURVE",
"555 527 LINE",
"555 700 LINE",
"16 700 LINE",
"16 673 LINE",
"44 673 LINE SMOOTH",
"83 673 OFFCURVE",
"103 662 OFFCURVE",
"103 637 CURVE SMOOTH",
"103 62 LINE SMOOTH",
"103 37 OFFCURVE",
"83 26 OFFCURVE",
"44 26 CURVE SMOOTH",
"16 26 LINE",
"16 0 LINE"
);
},
{
closed = 1;
nodes = (
"455 251 LINE",
"455 485 LINE",
"431 485 LINE",
"427 436 OFFCURVE",
"424 388 OFFCURVE",
"379 388 CURVE SMOOTH",
"162 388 LINE",
"162 348 LINE",
"379 348 LINE SMOOTH",
"424 348 OFFCURVE",
"427 300 OFFCURVE",
"431 251 CURVE"
);
},
{
closed = 1;
nodes = (
"304 868 LINE SMOOTH",
"312 874 OFFCURVE",
"322 879 OFFCURVE",
"328 879 CURVE SMOOTH",
"334 879 OFFCURVE",
"342 874 OFFCURVE",
"351 868 CURVE",
"459 782 LINE",
"478 803 LINE",
"354 932 LINE",
"301 932 LINE",
"177 803 LINE",
"196 782 LINE"
);
}
);
};
components = (
{
name = E;
},
{
name = circumflex;
transform = "{1, 0, 0, 1, 68, 230}";
}
);
layerId = "0B1DFD06-3317-40CA-B510-4969A0718C16";
width = 607;
}
);
note = Ecircumflex;
unicode = 00CA;
},
{
color = 3;
glyphname = Ecircumflexacute;
lastChange = "2018-02-06 09:43:58 +0000";
layers = (
{
background = {
paths = (
{
closed = 1;
nodes = (
"554 0 LINE",
"571 179 LINE",
"544 179 LINE",
"538 124 OFFCURVE",
"520 40 OFFCURVE",
"456 40 CURVE SMOOTH",
"201 40 LINE",
"201 659 LINE",
"441 659 LINE SMOOTH",
"516 659 OFFCURVE",
"525 567 OFFCURVE",
"528 527 CURVE",
"555 527 LINE",
"555 700 LINE",
"16 700 LINE",
"16 673 LINE",
"44 673 LINE SMOOTH",
"83 673 OFFCURVE",
"103 662 OFFCURVE",
"103 637 CURVE SMOOTH",
"103 62 LINE SMOOTH",
"103 37 OFFCURVE",
"83 26 OFFCURVE",
"44 26 CURVE SMOOTH",
"16 26 LINE",
"16 0 LINE"
);
},
{
closed = 1;
nodes = (
"455 251 LINE",
"455 485 LINE",
"431 485 LINE",
"427 436 OFFCURVE",
"424 388 OFFCURVE",
"379 388 CURVE SMOOTH",
"162 388 LINE",
"162 348 LINE",
"379 348 LINE SMOOTH",
"424 348 OFFCURVE",
"427 300 OFFCURVE",
"431 251 CURVE"
);
},
{
closed = 1;
nodes = (
"290 862 LINE SMOOTH",
"300 870 OFFCURVE",
"310 878 OFFCURVE",
"318 878 CURVE SMOOTH",
"324 878 OFFCURVE",
"332 873 OFFCURVE",
"341 867 CURVE",
"447 781 LINE",
"466 803 LINE",
"344 932 LINE",
"293 932 LINE",
"171 803 LINE",
"189 781 LINE"
);
},
{
closed = 1;
nodes = (
"555 960 LINE SMOOTH",
"578 972 OFFCURVE",
"591 988 OFFCURVE",
"591 1003 CURVE SMOOTH",
"591 1017 OFFCURVE",
"580 1034 OFFCURVE",
"557 1034 CURVE SMOOTH",
"538 1034 OFFCURVE",
"521 1018 OFFCURVE",
"511 1008 CURVE SMOOTH",
"415 915 LINE",
"433 893 LINE"
);
}
);
};
components = (
{
name = E;
},
{
name = circumflexacute;
transform = "{1, 0, 0, 1, 564, 230}";
}
);
layerId = "0B1DFD06-3317-40CA-B510-4969A0718C16";
width = 607;
}
);
note = Ecircumflexacute;
unicode = 1EBE;
},
{
color = 3;
glyphname = Ecircumflexdotbelow;
lastChange = "2018-02-06 09:43:58 +0000";
layers = (
{
background = {
paths = (
{
closed = 1;
nodes = (
"554 0 LINE",
"571 179 LINE",
"544 179 LINE",
"538 124 OFFCURVE",
"520 40 OFFCURVE",
"456 40 CURVE SMOOTH",
"201 40 LINE",
"201 659 LINE",
"441 659 LINE SMOOTH",
"516 659 OFFCURVE",
"525 567 OFFCURVE",
"528 527 CURVE",
"555 527 LINE",
"555 700 LINE",
"16 700 LINE",
"16 673 LINE",
"44 673 LINE SMOOTH",
"83 673 OFFCURVE",
"103 662 OFFCURVE",
"103 637 CURVE SMOOTH",
"103 62 LINE SMOOTH",
"103 37 OFFCURVE",
"83 26 OFFCURVE",
"44 26 CURVE SMOOTH",
"16 26 LINE",
"16 0 LINE"
);
},
{
closed = 1;
nodes = (
"350 -159 OFFCURVE",
"368 -140 OFFCURVE",
"368 -112 CURVE SMOOTH",
"368 -84 OFFCURVE",
"350 -64 OFFCURVE",
"322 -64 CURVE SMOOTH",
"294 -64 OFFCURVE",
"275 -84 OFFCURVE",
"275 -112 CURVE SMOOTH",
"275 -140 OFFCURVE",
"294 -159 OFFCURVE",
"322 -159 CURVE SMOOTH"
);
},
{
closed = 1;
nodes = (
"455 251 LINE",
"455 485 LINE",
"431 485 LINE",
"427 436 OFFCURVE",
"424 388 OFFCURVE",
"379 388 CURVE SMOOTH",
"162 388 LINE",
"162 348 LINE",
"379 348 LINE SMOOTH",
"424 348 OFFCURVE",
"427 300 OFFCURVE",
"431 251 CURVE"
);
},
{
closed = 1;
nodes = (
"294 868 LINE SMOOTH",
"302 874 OFFCURVE",
"312 879 OFFCURVE",
"318 879 CURVE SMOOTH",
"324 879 OFFCURVE",
"332 874 OFFCURVE",
"341 868 CURVE",
"449 782 LINE",
"468 803 LINE",
"344 932 LINE",
"291 932 LINE",
"167 803 LINE",
"186 782 LINE"
);
}
);
};
components = (
{
name = E;
},
{
name = dotbelowcomb;
transform = "{1, 0, 0, 1, 565, 0}";
},
{
name = circumflex;
transform = "{1, 0, 0, 1, 68, 230}";
}
);
layerId = "0B1DFD06-3317-40CA-B510-4969A0718C16";
width = 607;
}
);
note = Ecircumflexdotbelow;
unicode = 1EC6;
},
{
color = 3;
glyphname = Ecircumflexgrave;
lastChange = "2018-02-06 09:43:58 +0000";
layers = (
{
background = {
paths = (
{
closed = 1;
nodes = (
"554 0 LINE",
"571 179 LINE",
"544 179 LINE",
"538 124 OFFCURVE",
"520 40 OFFCURVE",
"456 40 CURVE SMOOTH",
"201 40 LINE",
"201 659 LINE",
"441 659 LINE SMOOTH",
"516 659 OFFCURVE",
"525 567 OFFCURVE",
"528 527 CURVE",
"555 527 LINE",
"555 700 LINE",
"16 700 LINE",
"16 673 LINE",
"44 673 LINE SMOOTH",
"83 673 OFFCURVE",
"103 662 OFFCURVE",
"103 637 CURVE SMOOTH",
"103 62 LINE SMOOTH",
"103 37 OFFCURVE",
"83 26 OFFCURVE",
"44 26 CURVE SMOOTH",
"16 26 LINE",
"16 0 LINE"
);
},
{
closed = 1;
nodes = (
"455 251 LINE",
"455 485 LINE",
"431 485 LINE",
"427 436 OFFCURVE",
"424 388 OFFCURVE",
"379 388 CURVE SMOOTH",
"162 388 LINE",
"162 348 LINE",
"379 348 LINE SMOOTH",
"424 348 OFFCURVE",
"427 300 OFFCURVE",
"431 251 CURVE"
);
},
{
closed = 1;
nodes = (
"227 915 LINE",
"132 1008 LINE SMOOTH",
"122 1018 OFFCURVE",
"105 1034 OFFCURVE",
"85 1034 CURVE SMOOTH",
"63 1034 OFFCURVE",
"52 1017 OFFCURVE",
"52 1003 CURVE SMOOTH",
"52 988 OFFCURVE",
"65 972 OFFCURVE",
"88 960 CURVE SMOOTH",
"210 893 LINE"
);
},
{
closed = 1;
nodes = (
"290 862 LINE SMOOTH",
"300 870 OFFCURVE",
"310 878 OFFCURVE",
"318 878 CURVE SMOOTH",
"324 878 OFFCURVE",
"332 873 OFFCURVE",
"341 867 CURVE",
"447 781 LINE",
"466 803 LINE",
"344 932 LINE",
"293 932 LINE",
"171 803 LINE",
"189 781 LINE"
);
}
);
};
components = (
{
name = E;
},
{
name = circumflexgrave;
transform = "{1, 0, 0, 1, 564, 230}";
}
);
layerId = "0B1DFD06-3317-40CA-B510-4969A0718C16";
width = 607;
}
);
note = Ecircumflexgrave;
unicode = 1EC0;
},
{
color = 3;
glyphname = Ecircumflexhookabove;
lastChange = "2018-02-06 09:43:58 +0000";
layers = (
{
background = {
paths = (
{
closed = 1;
nodes = (
"554 0 LINE",
"571 179 LINE",
"544 179 LINE",
"538 124 OFFCURVE",
"520 40 OFFCURVE",
"456 40 CURVE SMOOTH",
"201 40 LINE",
"201 659 LINE",
"441 659 LINE SMOOTH",
"516 659 OFFCURVE",
"525 567 OFFCURVE",
"528 527 CURVE",
"555 527 LINE",
"555 700 LINE",
"16 700 LINE",
"16 673 LINE",
"44 673 LINE SMOOTH",
"83 673 OFFCURVE",
"103 662 OFFCURVE",
"103 637 CURVE SMOOTH",
"103 62 LINE SMOOTH",
"103 37 OFFCURVE",
"83 26 OFFCURVE",
"44 26 CURVE SMOOTH",
"16 26 LINE",
"16 0 LINE"
);
},
{
closed = 1;
nodes = (
"455 251 LINE",
"455 485 LINE",
"431 485 LINE",
"427 436 OFFCURVE",
"424 388 OFFCURVE",
"379 388 CURVE SMOOTH",
"162 388 LINE",
"162 348 LINE",
"379 348 LINE SMOOTH",
"424 348 OFFCURVE",
"427 300 OFFCURVE",
"431 251 CURVE"
);
},
{
closed = 1;
nodes = (
"286 858 LINE",
"297 868 OFFCURVE",
"309 878 OFFCURVE",
"318 878 CURVE SMOOTH",
"324 878 OFFCURVE",
"332 873 OFFCURVE",
"341 867 CURVE",
"447 781 LINE",
"466 803 LINE",
"344 932 LINE",
"293 932 LINE",
"171 803 LINE",
"189 781 LINE"
);
},
{
closed = 1;
nodes = (
"493 898 LINE",
"474 905 OFFCURVE",
"464 912 OFFCURVE",
"464 926 CURVE SMOOTH",
"464 954 OFFCURVE",
"544 965 OFFCURVE",
"544 1010 CURVE SMOOTH",
"544 1047 OFFCURVE",
"502 1063 OFFCURVE",
"460 1063 CURVE SMOOTH",
"429 1063 OFFCURVE",
"384 1053 OFFCURVE",
"384 1022 CURVE SMOOTH",
"384 1010 OFFCURVE",
"395 1001 OFFCURVE",
"405 1001 CURVE SMOOTH",
"434 1001 OFFCURVE",
"421 1040 OFFCURVE",
"464 1040 CURVE SMOOTH",
"483 1040 OFFCURVE",
"494 1028 OFFCURVE",
"494 1013 CURVE SMOOTH",
"494 973 OFFCURVE",
"421 965 OFFCURVE",
"421 925 CURVE SMOOTH",
"421 901 OFFCURVE",
"437 880 OFFCURVE",
"484 880 CURVE"
);
}
);
};
components = (
{
name = E;
},
{
name = circumflexhookabove;
transform = "{1, 0, 0, 1, 564, 230}";
}
);
layerId = "0B1DFD06-3317-40CA-B510-4969A0718C16";
width = 607;
}
);
note = Ecircumflexhookabove;
unicode = 1EC2;
},
{
color = 3;
glyphname = Ecircumflextilde;
lastChange = "2018-02-06 09:43:58 +0000";
layers = (
{
background = {
paths = (
{
closed = 1;
nodes = (
"554 0 LINE",
"571 179 LINE",
"544 179 LINE",
"538 124 OFFCURVE",
"520 40 OFFCURVE",
"456 40 CURVE SMOOTH",
"201 40 LINE",
"201 659 LINE",
"441 659 LINE SMOOTH",
"516 659 OFFCURVE",
"525 567 OFFCURVE",
"528 527 CURVE",
"555 527 LINE",
"555 700 LINE",
"16 700 LINE",
"16 673 LINE",
"44 673 LINE SMOOTH",
"83 673 OFFCURVE",
"103 662 OFFCURVE",
"103 637 CURVE SMOOTH",
"103 62 LINE SMOOTH",
"103 37 OFFCURVE",
"83 26 OFFCURVE",
"44 26 CURVE SMOOTH",
"16 26 LINE",
"16 0 LINE"
);
},
{
closed = 1;
nodes = (
"455 251 LINE",
"455 485 LINE",
"431 485 LINE",
"427 436 OFFCURVE",
"424 388 OFFCURVE",
"379 388 CURVE SMOOTH",
"162 388 LINE",
"162 348 LINE",
"379 348 LINE SMOOTH",
"424 348 OFFCURVE",
"427 300 OFFCURVE",
"431 251 CURVE"
);
},
{
closed = 1;
nodes = (
"290 862 LINE SMOOTH",
"300 870 OFFCURVE",
"310 878 OFFCURVE",
"318 878 CURVE SMOOTH",
"324 878 OFFCURVE",
"332 873 OFFCURVE",
"341 867 CURVE",
"447 781 LINE",
"466 803 LINE",
"344 932 LINE",
"293 932 LINE",
"171 803 LINE",
"189 781 LINE"
);
},
{
closed = 1;
nodes = (
"193 997 OFFCURVE",
"211 1018 OFFCURVE",
"242 1018 CURVE SMOOTH",
"291 1018 OFFCURVE",
"338 964 OFFCURVE",
"387 964 CURVE SMOOTH",
"440 964 OFFCURVE",
"469 1012 OFFCURVE",
"481 1063 CURVE",
"460 1075 LINE",
"447 1035 OFFCURVE",
"431 1012 OFFCURVE",
"398 1012 CURVE SMOOTH",
"351 1012 OFFCURVE",
"302 1065 OFFCURVE",
"253 1065 CURVE SMOOTH",
"202 1065 OFFCURVE",
"170 1021 OFFCURVE",
"160 970 CURVE",
"180 958 LINE"
);
}
);
};
components = (
{
name = E;
},
{
name = circumflextilde;
transform = "{1, 0, 0, 1, 564, 230}";
}
);
layerId = "0B1DFD06-3317-40CA-B510-4969A0718C16";
width = 607;
}
);
note = Ecircumflextilde;
unicode = 1EC4;
},
{
color = 3;
glyphname = Edieresis;
lastChange = "2018-02-06 09:43:58 +0000";
layers = (
{
background = {
paths = (
{
closed = 1;
nodes = (
"554 0 LINE",
"571 179 LINE",
"544 179 LINE",
"538 124 OFFCURVE",
"520 40 OFFCURVE",
"456 40 CURVE SMOOTH",
"201 40 LINE",
"201 659 LINE",
"441 659 LINE SMOOTH",
"516 659 OFFCURVE",
"525 567 OFFCURVE",
"528 527 CURVE",
"555 527 LINE",
"555 700 LINE",
"16 700 LINE",
"16 673 LINE",
"44 673 LINE SMOOTH",
"83 673 OFFCURVE",
"103 662 OFFCURVE",
"103 637 CURVE SMOOTH",
"103 62 LINE SMOOTH",
"103 37 OFFCURVE",
"83 26 OFFCURVE",
"44 26 CURVE SMOOTH",
"16 26 LINE",
"16 0 LINE"
);
},
{
closed = 1;
nodes = (
"455 251 LINE",
"455 485 LINE",
"431 485 LINE",
"427 436 OFFCURVE",
"424 388 OFFCURVE",
"379 388 CURVE SMOOTH",
"162 388 LINE",
"162 348 LINE",
"379 348 LINE SMOOTH",
"424 348 OFFCURVE",
"427 300 OFFCURVE",
"431 251 CURVE"
);
},
{
closed = 1;
nodes = (
"254 781 OFFCURVE",
"272 800 OFFCURVE",
"272 827 CURVE SMOOTH",
"272 855 OFFCURVE",
"254 875 OFFCURVE",
"225 875 CURVE SMOOTH",
"197 875 OFFCURVE",
"179 855 OFFCURVE",
"179 827 CURVE SMOOTH",
"179 800 OFFCURVE",
"197 781 OFFCURVE",
"225 781 CURVE SMOOTH"
);
},
{
closed = 1;
nodes = (
"470 781 OFFCURVE",
"488 800 OFFCURVE",
"488 827 CURVE SMOOTH",
"488 855 OFFCURVE",
"470 875 OFFCURVE",
"441 875 CURVE SMOOTH",
"412 875 OFFCURVE",
"394 855 OFFCURVE",
"394 827 CURVE SMOOTH",
"394 800 OFFCURVE",
"412 781 OFFCURVE",
"441 781 CURVE SMOOTH"
);
}
);
};
components = (
{
name = E;
},
{
name = dieresis;
transform = "{1, 0, 0, 1, 68, 230}";
}
);
layerId = "0B1DFD06-3317-40CA-B510-4969A0718C16";
width = 607;
}
);
note = Edieresis;
unicode = 00CB;
},
{
color = 3;
glyphname = Edotaccent;
lastChange = "2018-02-06 09:43:58 +0000";
layers = (
{
background = {
paths = (
{
closed = 1;
nodes = (
"554 0 LINE",
"571 179 LINE",
"544 179 LINE",
"538 124 OFFCURVE",
"520 40 OFFCURVE",
"456 40 CURVE SMOOTH",
"201 40 LINE",
"201 659 LINE",
"441 659 LINE SMOOTH",
"516 659 OFFCURVE",
"525 567 OFFCURVE",
"528 527 CURVE",
"555 527 LINE",
"555 700 LINE",
"16 700 LINE",
"16 673 LINE",
"44 673 LINE SMOOTH",
"83 673 OFFCURVE",
"103 662 OFFCURVE",
"103 637 CURVE SMOOTH",
"103 62 LINE SMOOTH",
"103 37 OFFCURVE",
"83 26 OFFCURVE",
"44 26 CURVE SMOOTH",
"16 26 LINE",
"16 0 LINE"
);
},
{
closed = 1;
nodes = (
"455 251 LINE",
"455 485 LINE",
"431 485 LINE",
"427 436 OFFCURVE",
"424 388 OFFCURVE",
"379 388 CURVE SMOOTH",
"162 388 LINE",
"162 348 LINE",
"379 348 LINE SMOOTH",
"424 348 OFFCURVE",
"427 300 OFFCURVE",
"431 251 CURVE"
);
},
{
closed = 1;
nodes = (
"362 765 OFFCURVE",
"380 784 OFFCURVE",
"380 811 CURVE SMOOTH",
"380 839 OFFCURVE",
"362 858 OFFCURVE",
"334 858 CURVE SMOOTH",
"305 858 OFFCURVE",
"287 839 OFFCURVE",
"287 811 CURVE SMOOTH",
"287 784 OFFCURVE",
"305 765 OFFCURVE",
"334 765 CURVE SMOOTH"
);
}
);
};
components = (
{
name = E;
},
{
name = dotaccent;
transform = "{1, 0, 0, 1, 68, 230}";
}
);
layerId = "0B1DFD06-3317-40CA-B510-4969A0718C16";
width = 607;
}
);
note = Edotaccent;
unicode = 0116;
},
{
color = 3;
glyphname = Edotbelow;
lastChange = "2018-02-06 09:43:58 +0000";
layers = (
{
background = {
paths = (
{
closed = 1;
nodes = (
"554 0 LINE",
"571 179 LINE",
"544 179 LINE",
"538 124 OFFCURVE",
"520 40 OFFCURVE",
"456 40 CURVE SMOOTH",
"201 40 LINE",
"201 659 LINE",
"441 659 LINE SMOOTH",
"516 659 OFFCURVE",
"525 567 OFFCURVE",
"528 527 CURVE",
"555 527 LINE",
"555 700 LINE",
"16 700 LINE",
"16 673 LINE",
"44 673 LINE SMOOTH",
"83 673 OFFCURVE",
"103 662 OFFCURVE",
"103 637 CURVE SMOOTH",
"103 62 LINE SMOOTH",
"103 37 OFFCURVE",
"83 26 OFFCURVE",
"44 26 CURVE SMOOTH",
"16 26 LINE",
"16 0 LINE"
);
},
{
closed = 1;
nodes = (
"343 -159 OFFCURVE",
"361 -140 OFFCURVE",
"361 -112 CURVE SMOOTH",
"361 -84 OFFCURVE",
"343 -64 OFFCURVE",
"315 -64 CURVE SMOOTH",
"287 -64 OFFCURVE",
"268 -84 OFFCURVE",
"268 -112 CURVE SMOOTH",
"268 -140 OFFCURVE",
"287 -159 OFFCURVE",
"315 -159 CURVE SMOOTH"
);
},
{
closed = 1;
nodes = (
"455 251 LINE",
"455 485 LINE",
"431 485 LINE",
"427 436 OFFCURVE",
"424 388 OFFCURVE",
"379 388 CURVE SMOOTH",
"162 388 LINE",
"162 348 LINE",
"379 348 LINE SMOOTH",
"424 348 OFFCURVE",
"427 300 OFFCURVE",
"431 251 CURVE"
);
}
);
};
components = (
{
name = E;
},
{
name = dotbelowcomb;
transform = "{1, 0, 0, 1, 565, 0}";
}
);
layerId = "0B1DFD06-3317-40CA-B510-4969A0718C16";
width = 607;
}
);
note = Edotbelow;
unicode = 1EB8;
},
{
color = 3;
glyphname = Egrave;
lastChange = "2018-02-06 09:43:58 +0000";
layers = (
{
background = {
paths = (
{
closed = 1;
nodes = (
"554 0 LINE",
"571 179 LINE",
"544 179 LINE",
"538 124 OFFCURVE",
"520 40 OFFCURVE",
"456 40 CURVE SMOOTH",
"201 40 LINE",
"201 659 LINE",
"441 659 LINE SMOOTH",
"516 659 OFFCURVE",
"525 567 OFFCURVE",
"528 527 CURVE",
"555 527 LINE",
"555 700 LINE",
"16 700 LINE",
"16 673 LINE",
"44 673 LINE SMOOTH",
"83 673 OFFCURVE",
"103 662 OFFCURVE",
"103 637 CURVE SMOOTH",
"103 62 LINE SMOOTH",
"103 37 OFFCURVE",
"83 26 OFFCURVE",
"44 26 CURVE SMOOTH",
"16 26 LINE",
"16 0 LINE"
);
},
{
closed = 1;
nodes = (
"455 251 LINE",
"455 485 LINE",
"431 485 LINE",
"427 436 OFFCURVE",
"424 388 OFFCURVE",
"379 388 CURVE SMOOTH",
"162 388 LINE",
"162 348 LINE",
"379 348 LINE SMOOTH",
"424 348 OFFCURVE",
"427 300 OFFCURVE",
"431 251 CURVE"
);
},
{
closed = 1;
nodes = (
"425 807 LINE",
"310 913 LINE",
"301 922 OFFCURVE",
"285 937 OFFCURVE",
"265 937 CURVE SMOOTH",
"245 937 OFFCURVE",
"233 924 OFFCURVE",
"233 908 CURVE SMOOTH",
"233 890 OFFCURVE",
"245 876 OFFCURVE",
"264 865 CURVE SMOOTH",
"407 782 LINE"
);
}
);
};
components = (
{
name = E;
},
{
name = grave;
transform = "{1, 0, 0, 1, 68, 230}";
}
);
layerId = "0B1DFD06-3317-40CA-B510-4969A0718C16";
width = 607;
}
);
note = Egrave;
unicode = 00C8;
},
{
color = 3;
glyphname = Ehookabove;
lastChange = "2018-02-06 09:43:58 +0000";
layers = (
{
background = {
paths = (
{
closed = 1;
nodes = (
"554 0 LINE",
"571 179 LINE",
"544 179 LINE",
"538 124 OFFCURVE",
"520 40 OFFCURVE",
"456 40 CURVE SMOOTH",
"201 40 LINE",
"201 659 LINE",
"441 659 LINE SMOOTH",
"516 659 OFFCURVE",
"525 567 OFFCURVE",
"528 527 CURVE",
"555 527 LINE",
"555 700 LINE",
"16 700 LINE",
"16 673 LINE",
"44 673 LINE SMOOTH",
"83 673 OFFCURVE",
"103 662 OFFCURVE",
"103 637 CURVE SMOOTH",
"103 62 LINE SMOOTH",
"103 37 OFFCURVE",
"83 26 OFFCURVE",
"44 26 CURVE SMOOTH",
"16 26 LINE",
"16 0 LINE"
);
},
{
closed = 1;
nodes = (
"455 251 LINE",
"455 485 LINE",
"431 485 LINE",
"427 436 OFFCURVE",
"424 388 OFFCURVE",
"379 388 CURVE SMOOTH",
"162 388 LINE",
"162 348 LINE",
"379 348 LINE SMOOTH",
"424 348 OFFCURVE",
"427 300 OFFCURVE",
"431 251 CURVE"
);
},
{
closed = 1;
nodes = (
"367 798 LINE",
"348 805 OFFCURVE",
"336 811 OFFCURVE",
"336 828 CURVE SMOOTH",
"336 861 OFFCURVE",
"425 876 OFFCURVE",
"425 927 CURVE SMOOTH",
"425 969 OFFCURVE",
"389 991 OFFCURVE",
"336 991 CURVE SMOOTH",
"289 991 OFFCURVE",
"248 974 OFFCURVE",
"248 940 CURVE SMOOTH",
"248 923 OFFCURVE",
"256 915 OFFCURVE",
"271 915 CURVE SMOOTH",
"294 915 OFFCURVE",
"296 934 OFFCURVE",
"299 942 CURVE SMOOTH",
"304 956 OFFCURVE",
"321 962 OFFCURVE",
"337 962 CURVE SMOOTH",
"358 962 OFFCURVE",
"371 947 OFFCURVE",
"371 930 CURVE SMOOTH",
"371 885 OFFCURVE",
"289 874 OFFCURVE",
"289 828 CURVE SMOOTH",
"289 801 OFFCURVE",
"307 778 OFFCURVE",
"358 778 CURVE"
);
}
);
};
components = (
{
name = E;
},
{
name = hookabovecomb;
transform = "{1, 0, 0, 1, 565, 230}";
}
);
layerId = "0B1DFD06-3317-40CA-B510-4969A0718C16";
width = 607;
}
);
note = Ehookabove;
unicode = 1EBA;
},
{
color = 3;
glyphname = Emacron;
lastChange = "2018-02-06 09:43:58 +0000";
layers = (
{
background = {
paths = (
{
closed = 1;
nodes = (
"554 0 LINE",
"571 179 LINE",
"544 179 LINE",
"538 124 OFFCURVE",
"520 40 OFFCURVE",
"456 40 CURVE SMOOTH",
"201 40 LINE",
"201 659 LINE",
"441 659 LINE SMOOTH",
"516 659 OFFCURVE",
"525 567 OFFCURVE",
"528 527 CURVE",
"555 527 LINE",
"555 700 LINE",
"16 700 LINE",
"16 673 LINE",
"44 673 LINE SMOOTH",
"83 673 OFFCURVE",
"103 662 OFFCURVE",
"103 637 CURVE SMOOTH",
"103 62 LINE SMOOTH",
"103 37 OFFCURVE",
"83 26 OFFCURVE",
"44 26 CURVE SMOOTH",
"16 26 LINE",
"16 0 LINE"
);
},
{
closed = 1;
nodes = (
"455 251 LINE",
"455 485 LINE",
"431 485 LINE",
"427 436 OFFCURVE",
"424 388 OFFCURVE",
"379 388 CURVE SMOOTH",
"162 388 LINE",
"162 348 LINE",
"379 348 LINE SMOOTH",
"424 348 OFFCURVE",
"427 300 OFFCURVE",
"431 251 CURVE"
);
},
{
closed = 1;
nodes = (
"495 782 LINE",
"495 824 LINE",
"162 824 LINE",
"162 782 LINE"
);
}
);
};
components = (
{
name = E;
},
{
name = macron;
transform = "{1, 0, 0, 1, 68, 230}";
}
);
layerId = "0B1DFD06-3317-40CA-B510-4969A0718C16";
width = 607;
}
);
note = Emacron;
unicode = 0112;
},
{
color = 3;
glyphname = Eogonek;
lastChange = "2018-02-06 09:43:58 +0000";
layers = (
{
background = {
paths = (
{
closed = 1;
nodes = (
"554 0 LINE",
"571 179 LINE",
"544 179 LINE",
"538 124 OFFCURVE",
"520 40 OFFCURVE",
"456 40 CURVE SMOOTH",
"201 40 LINE",
"201 659 LINE",
"441 659 LINE SMOOTH",
"516 659 OFFCURVE",
"525 567 OFFCURVE",
"528 527 CURVE",
"555 527 LINE",
"555 700 LINE",
"16 700 LINE",
"16 673 LINE",
"44 673 LINE SMOOTH",
"83 673 OFFCURVE",
"103 662 OFFCURVE",
"103 637 CURVE SMOOTH",
"103 62 LINE SMOOTH",
"103 37 OFFCURVE",
"83 26 OFFCURVE",
"44 26 CURVE SMOOTH",
"16 26 LINE",
"16 0 LINE"
);
},
{
closed = 1;
nodes = (
"496 -196 OFFCURVE",
"524 -189 OFFCURVE",
"549 -172 CURVE",
"543 -152 LINE",
"527 -158 OFFCURVE",
"510 -162 OFFCURVE",
"497 -162 CURVE SMOOTH",
"464 -162 OFFCURVE",
"437 -146 OFFCURVE",
"437 -106 CURVE SMOOTH",
"437 -66 OFFCURVE",
"464 -26 OFFCURVE",
"510 4 CURVE",
"469 4 LINE",
"416 -22 OFFCURVE",
"376 -64 OFFCURVE",
"376 -114 CURVE SMOOTH",
"376 -147 OFFCURVE",
"395 -196 OFFCURVE",
"470 -196 CURVE SMOOTH"
);
},
{
closed = 1;
nodes = (
"455 251 LINE",
"455 485 LINE",
"431 485 LINE",
"427 436 OFFCURVE",
"424 388 OFFCURVE",
"379 388 CURVE SMOOTH",
"162 388 LINE",
"162 348 LINE",
"379 348 LINE SMOOTH",
"424 348 OFFCURVE",
"427 300 OFFCURVE",
"431 251 CURVE"
);
}
);
};
components = (
{
name = E;
},
{
name = ogonek;
transform = "{1, 0, 0, 1, 256, 0}";
}
);
layerId = "0B1DFD06-3317-40CA-B510-4969A0718C16";
width = 607;
}
);
note = Eogonek;
unicode = 0118;
},
{
color = 3;
glyphname = Etilde;
lastChange = "2018-02-06 09:43:58 +0000";
layers = (
{
background = {
paths = (
{
closed = 1;
nodes = (
"554 0 LINE",
"571 179 LINE",
"544 179 LINE",
"538 124 OFFCURVE",
"520 40 OFFCURVE",
"456 40 CURVE SMOOTH",
"201 40 LINE",
"201 659 LINE",
"441 659 LINE SMOOTH",
"516 659 OFFCURVE",
"525 567 OFFCURVE",
"528 527 CURVE",
"555 527 LINE",
"555 700 LINE",
"16 700 LINE",
"16 673 LINE",
"44 673 LINE SMOOTH",
"83 673 OFFCURVE",
"103 662 OFFCURVE",
"103 637 CURVE SMOOTH",
"103 62 LINE SMOOTH",
"103 37 OFFCURVE",
"83 26 OFFCURVE",
"44 26 CURVE SMOOTH",
"16 26 LINE",
"16 0 LINE"
);
},
{
closed = 1;
nodes = (
"455 251 LINE",
"455 485 LINE",
"431 485 LINE",
"427 436 OFFCURVE",
"424 388 OFFCURVE",
"379 388 CURVE SMOOTH",
"162 388 LINE",
"162 348 LINE",
"379 348 LINE SMOOTH",
"424 348 OFFCURVE",
"427 300 OFFCURVE",
"431 251 CURVE"
);
},
{
closed = 1;
nodes = (
"190 817 OFFCURVE",
"208 838 OFFCURVE",
"241 838 CURVE SMOOTH",
"292 838 OFFCURVE",
"341 784 OFFCURVE",
"392 784 CURVE SMOOTH",
"450 784 OFFCURVE",
"480 832 OFFCURVE",
"492 884 CURVE",
"471 895 LINE",
"455 855 OFFCURVE",
"439 833 OFFCURVE",
"405 833 CURVE SMOOTH",
"356 833 OFFCURVE",
"304 886 OFFCURVE",
"253 886 CURVE SMOOTH",
"199 886 OFFCURVE",
"166 842 OFFCURVE",
"154 790 CURVE",
"176 779 LINE"
);
}
);
};
components = (
{
name = E;
},
{
name = tilde;
transform = "{1, 0, 0, 1, 68, 230}";
}
);
layerId = "0B1DFD06-3317-40CA-B510-4969A0718C16";
width = 607;
}
);
note = Etilde;
unicode = 1EBC;
},
{
color = 3;
glyphname = Hbar;
lastChange = "2018-02-06 09:43:58 +0000";
layers = (
{
components = (
{
name = H;
}
);
layerId = "0B1DFD06-3317-40CA-B510-4969A0718C16";
paths = (
{
closed = 1;
nodes = (
"988 588 LINE",
"833 582 OFFCURVE",
"237 584 OFFCURVE",
"188 584 CURVE",
"180 537 LINE",
"198 538 OFFCURVE",
"220 538 OFFCURVE",
"250 538 CURVE SMOOTH",
"338 538 OFFCURVE",
"850 544 OFFCURVE",
"977 543 CURVE"
);
}
);
width = 919;
}
);
note = Hbar;
unicode = 0126;
},
{
color = 3;
glyphname = Lslash;
lastChange = "2018-02-06 09:44:04 +0000";
layers = (
{
layerId = "0B1DFD06-3317-40CA-B510-4969A0718C16";
paths = (
{
closed = 1;
nodes = (
"179 303 OFFCURVE",
"211 321 OFFCURVE",
"271 342 CURVE",
"224 184 OFFCURVE",
"156 37 OFFCURVE",
"25 37 CURVE SMOOTH",
"17 37 OFFCURVE",
"14 33 OFFCURVE",
"15 27 CURVE",
"18 19 OFFCURVE",
"27 -13 OFFCURVE",
"37 -13 CURVE",
"161 20 OFFCURVE",
"506 44 OFFCURVE",
"640 -4 CURVE",
"653 -7 OFFCURVE",
"656 -24 OFFCURVE",
"656 -33 CURVE",
"660 -37 OFFCURVE",
"665 -38 OFFCURVE",
"669 -38 CURVE",
"676 -20 OFFCURVE",
"672 42 OFFCURVE",
"672 51 CURVE",
"669 64 OFFCURVE",
"659 71 OFFCURVE",
"641 74 CURVE",
"526 96 OFFCURVE",
"293 55 OFFCURVE",
"186 55 CURVE SMOOTH",
"177 55 OFFCURVE",
"179 62 OFFCURVE",
"182 65 CURVE",
"225 90 OFFCURVE",
"282 226 OFFCURVE",
"326 358 CURVE",
"437 393 OFFCURVE",
"497 408 OFFCURVE",
"501 405 CURVE SMOOTH",
"502 403 OFFCURVE",
"505 403 OFFCURVE",
"508 403 CURVE SMOOTH",
"515 403 OFFCURVE",
"507 438 OFFCURVE",
"491 438 CURVE",
"337 393 LINE",
"369 491 OFFCURVE",
"393 583 OFFCURVE",
"406 625 CURVE",
"414 657 OFFCURVE",
"455 685 OFFCURVE",
"494 685 CURVE SMOOTH",
"519 685 OFFCURVE",
"533 683 OFFCURVE",
"547 679 CURVE",
"552 682 OFFCURVE",
"552 720 OFFCURVE",
"539 724 CURVE",
"483 724 OFFCURVE",
"427 715 OFFCURVE",
"386 697 CURVE",
"376 694 OFFCURVE",
"364 688 OFFCURVE",
"361 675 CURVE",
"336 607 OFFCURVE",
"313 491 OFFCURVE",
"281 376 CURVE",
"192 350 OFFCURVE",
"171 338 OFFCURVE",
"152 338 CURVE SMOOTH",
"151 338 OFFCURVE",
"150 337 OFFCURVE",
"148 334 CURVE",
"148 330 OFFCURVE",
"164 303 OFFCURVE",
"180 303 CURVE"
);
}
);
width = 785;
}
);
note = Lslash;
unicode = 0141;
},
{
color = 3;
glyphname = Nacute;
lastChange = "2018-02-06 09:44:04 +0000";
layers = (
{
background = {
paths = (
{
closed = 1;
nodes = (
"247 0 LINE",
"247 26 LINE",
"217 26 LINE SMOOTH",
"179 26 OFFCURVE",
"159 37 OFFCURVE",
"159 62 CURVE SMOOTH",
"159 642 LINE",
"587 0 LINE",
"645 0 LINE",
"645 637 LINE SMOOTH",
"645 662 OFFCURVE",
"665 673 OFFCURVE",
"703 673 CURVE SMOOTH",
"733 673 LINE",
"733 700 LINE",
"508 700 LINE",
"508 673 LINE",
"537 673 LINE SMOOTH",
"576 673 OFFCURVE",
"595 662 OFFCURVE",
"595 637 CURVE SMOOTH",
"595 126 LINE",
"217 700 LINE",
"22 700 LINE",
"22 673 LINE",
"51 673 LINE SMOOTH",
"90 673 OFFCURVE",
"109 662 OFFCURVE",
"109 637 CURVE SMOOTH",
"109 62 LINE SMOOTH",
"109 37 OFFCURVE",
"90 26 OFFCURVE",
"51 26 CURVE SMOOTH",
"22 26 LINE",
"22 0 LINE"
);
},
{
closed = 1;
nodes = (
"458 865 LINE SMOOTH",
"480 877 OFFCURVE",
"492 890 OFFCURVE",
"492 907 CURVE SMOOTH",
"492 922 OFFCURVE",
"480 937 OFFCURVE",
"458 937 CURVE SMOOTH",
"437 937 OFFCURVE",
"422 921 OFFCURVE",
"414 914 CURVE SMOOTH",
"299 807 LINE",
"316 782 LINE"
);
}
);
};
components = (
{
name = N;
},
{
name = acute;
transform = "{1, 0, 0, 1, 120, 230}";
}
);
layerId = "0B1DFD06-3317-40CA-B510-4969A0718C16";
width = 755;
}
);
note = Nacute;
unicode = 0143;
},
{
color = 3;
glyphname = Ncaron;
lastChange = "2018-02-06 09:44:04 +0000";
layers = (
{
background = {
paths = (
{
closed = 1;
nodes = (
"247 0 LINE",
"247 26 LINE",
"217 26 LINE SMOOTH",
"179 26 OFFCURVE",
"159 37 OFFCURVE",
"159 62 CURVE SMOOTH",
"159 642 LINE",
"587 0 LINE",
"645 0 LINE",
"645 637 LINE SMOOTH",
"645 662 OFFCURVE",
"665 673 OFFCURVE",
"703 673 CURVE SMOOTH",
"733 673 LINE",
"733 700 LINE",
"508 700 LINE",
"508 673 LINE",
"537 673 LINE SMOOTH",
"576 673 OFFCURVE",
"595 662 OFFCURVE",
"595 637 CURVE SMOOTH",
"595 126 LINE",
"217 700 LINE",
"22 700 LINE",
"22 673 LINE",
"51 673 LINE SMOOTH",
"90 673 OFFCURVE",
"109 662 OFFCURVE",
"109 637 CURVE SMOOTH",
"109 62 LINE SMOOTH",
"109 37 OFFCURVE",
"90 26 OFFCURVE",
"51 26 CURVE SMOOTH",
"22 26 LINE",
"22 0 LINE"
);
},
{
closed = 1;
nodes = (
"403 782 LINE",
"527 911 LINE",
"508 932 LINE",
"400 847 LINE",
"392 840 OFFCURVE",
"383 836 OFFCURVE",
"377 836 CURVE SMOOTH",
"371 836 OFFCURVE",
"363 840 OFFCURVE",
"353 847 CURVE",
"245 932 LINE",
"226 911 LINE",
"350 782 LINE"
);
}
);
};
components = (
{
name = N;
},
{
name = caron;
transform = "{1, 0, 0, 1, 132, 230}";
}
);
layerId = "0B1DFD06-3317-40CA-B510-4969A0718C16";
width = 755;
}
);
note = Ncaron;
unicode = 0147;
},
{
color = 3;
glyphname = Ncommaaccent;
lastChange = "2018-02-06 09:44:04 +0000";
layers = (
{
background = {
paths = (
{
closed = 1;
nodes = (
"247 0 LINE",
"247 26 LINE",
"217 26 LINE SMOOTH",
"179 26 OFFCURVE",
"159 37 OFFCURVE",
"159 62 CURVE SMOOTH",
"159 642 LINE",
"587 0 LINE",
"645 0 LINE",
"645 637 LINE SMOOTH",
"645 662 OFFCURVE",
"665 673 OFFCURVE",
"703 673 CURVE SMOOTH",
"733 673 LINE",
"733 700 LINE",
"508 700 LINE",
"508 673 LINE",
"537 673 LINE SMOOTH",
"576 673 OFFCURVE",
"595 662 OFFCURVE",
"595 637 CURVE SMOOTH",
"595 126 LINE",
"217 700 LINE",
"22 700 LINE",
"22 673 LINE",
"51 673 LINE SMOOTH",
"90 673 OFFCURVE",
"109 662 OFFCURVE",
"109 637 CURVE SMOOTH",
"109 62 LINE SMOOTH",
"109 37 OFFCURVE",
"90 26 OFFCURVE",
"51 26 CURVE SMOOTH",
"22 26 LINE",
"22 0 LINE"
);
},
{
closed = 1;
nodes = (
"369 -258 OFFCURVE",
"413 -198 OFFCURVE",
"413 -135 CURVE SMOOTH",
"413 -87 OFFCURVE",
"389 -67 OFFCURVE",
"360 -67 CURVE SMOOTH",
"331 -67 OFFCURVE",
"314 -87 OFFCURVE",
"314 -111 CURVE SMOOTH",
"314 -145 OFFCURVE",
"349 -152 OFFCURVE",
"349 -187 CURVE SMOOTH",
"349 -223 OFFCURVE",
"323 -256 OFFCURVE",
"296 -282 CURVE",
"313 -299 LINE"
);
}
);
};
components = (
{
name = N;
},
{
name = commaaccentcomb;
}
);
layerId = "0B1DFD06-3317-40CA-B510-4969A0718C16";
width = 707;
}
);
note = Ncommaaccent;
unicode = 0145;
},
{
color = 3;
glyphname = Ndotaccent;
lastChange = "2018-02-06 09:44:04 +0000";
layers = (
{
background = {
paths = (
{
closed = 1;
nodes = (
"247 0 LINE",
"247 26 LINE",
"217 26 LINE SMOOTH",
"179 26 OFFCURVE",
"159 37 OFFCURVE",
"159 62 CURVE SMOOTH",
"159 642 LINE",
"587 0 LINE",
"645 0 LINE",
"645 637 LINE SMOOTH",
"645 662 OFFCURVE",
"665 673 OFFCURVE",
"703 673 CURVE SMOOTH",
"733 673 LINE",
"733 700 LINE",
"508 700 LINE",
"508 673 LINE",
"537 673 LINE SMOOTH",
"576 673 OFFCURVE",
"595 662 OFFCURVE",
"595 637 CURVE SMOOTH",
"595 126 LINE",
"217 700 LINE",
"22 700 LINE",
"22 673 LINE",
"51 673 LINE SMOOTH",
"90 673 OFFCURVE",
"109 662 OFFCURVE",
"109 637 CURVE SMOOTH",
"109 62 LINE SMOOTH",
"109 37 OFFCURVE",
"90 26 OFFCURVE",
"51 26 CURVE SMOOTH",
"22 26 LINE",
"22 0 LINE"
);
},
{
closed = 1;
nodes = (
"405 765 OFFCURVE",
"423 784 OFFCURVE",
"423 811 CURVE SMOOTH",
"423 839 OFFCURVE",
"405 858 OFFCURVE",
"377 858 CURVE SMOOTH",
"348 858 OFFCURVE",
"330 839 OFFCURVE",
"330 811 CURVE SMOOTH",
"330 784 OFFCURVE",
"348 765 OFFCURVE",
"377 765 CURVE SMOOTH"
);
}
);
};
components = (
{
name = N;
},
{
name = dotaccent;
transform = "{1, 0, 0, 1, 132, 230}";
}
);
layerId = "0B1DFD06-3317-40CA-B510-4969A0718C16";
width = 755;
}
);
note = Ndotaccent;
unicode = 1E44;
},
{
color = 3;
glyphname = Ndotbelow;
lastChange = "2018-02-06 09:44:04 +0000";
layers = (
{
background = {
paths = (
{
closed = 1;
nodes = (
"247 0 LINE",
"247 26 LINE",
"217 26 LINE SMOOTH",
"179 26 OFFCURVE",
"159 37 OFFCURVE",
"159 62 CURVE SMOOTH",
"159 642 LINE",
"587 0 LINE",
"645 0 LINE",
"645 637 LINE SMOOTH",
"645 662 OFFCURVE",
"665 673 OFFCURVE",
"703 673 CURVE SMOOTH",
"733 673 LINE",
"733 700 LINE",
"508 700 LINE",
"508 673 LINE",
"537 673 LINE SMOOTH",
"576 673 OFFCURVE",
"595 662 OFFCURVE",
"595 637 CURVE SMOOTH",
"595 126 LINE",
"217 700 LINE",
"22 700 LINE",
"22 673 LINE",
"51 673 LINE SMOOTH",
"90 673 OFFCURVE",
"109 662 OFFCURVE",
"109 637 CURVE SMOOTH",
"109 62 LINE SMOOTH",
"109 37 OFFCURVE",
"90 26 OFFCURVE",
"51 26 CURVE SMOOTH",
"22 26 LINE",
"22 0 LINE"
);
},
{
closed = 1;
nodes = (
"415 -159 OFFCURVE",
"433 -140 OFFCURVE",
"433 -112 CURVE SMOOTH",
"433 -84 OFFCURVE",
"415 -64 OFFCURVE",
"387 -64 CURVE SMOOTH",
"359 -64 OFFCURVE",
"340 -84 OFFCURVE",
"340 -112 CURVE SMOOTH",
"340 -140 OFFCURVE",
"359 -159 OFFCURVE",
"387 -159 CURVE SMOOTH"
);
}
);
};
components = (
{
name = N;
},
{
name = dotbelowcomb;
transform = "{1, 0, 0, 1, 629, 0}";
}
);
layerId = "0B1DFD06-3317-40CA-B510-4969A0718C16";
width = 755;
}
);
note = uni1E46;
unicode = 1E46;
},
{
color = 0;
glyphname = Eng;
lastChange = "2018-02-12 20:14:26 +0000";
layers = (
{
background = {
paths = (
{
closed = 1;
nodes = (
"592 -259 OFFCURVE",
"645 -182 OFFCURVE",
"645 -36 CURVE SMOOTH",
"645 637 LINE SMOOTH",
"645 662 OFFCURVE",
"665 673 OFFCURVE",
"703 673 CURVE SMOOTH",
"733 673 LINE",
"733 700 LINE",
"508 700 LINE",
"508 673 LINE",
"537 673 LINE SMOOTH",
"576 673 OFFCURVE",
"595 662 OFFCURVE",
"595 637 CURVE SMOOTH",
"595 125 LINE",
"219 700 LINE",
"22 700 LINE",
"22 673 LINE",
"51 673 LINE SMOOTH",
"90 673 OFFCURVE",
"109 662 OFFCURVE",
"109 637 CURVE SMOOTH",
"109 62 LINE SMOOTH",
"109 37 OFFCURVE",
"93 26 OFFCURVE",
"51 26 CURVE SMOOTH",
"22 26 LINE",
"22 0 LINE",
"247 0 LINE",
"247 26 LINE",
"217 26 LINE SMOOTH",
"179 26 OFFCURVE",
"159 37 OFFCURVE",
"159 62 CURVE SMOOTH",
"159 647 LINE",
"586 0 LINE",
"586 -76 LINE SMOOTH",
"586 -173 OFFCURVE",
"510 -238 OFFCURVE",
"423 -243 CURVE",
"427 -268 LINE"
);
}
);
};
layerId = "0B1DFD06-3317-40CA-B510-4969A0718C16";
paths = (
{
closed = 1;
nodes = (
"634 20 LINE",
"609 -102 OFFCURVE",
"570 -209 OFFCURVE",
"466 -209 CURVE SMOOTH",
"394 -209 OFFCURVE",
"351 -173 OFFCURVE",
"328 -116 CURVE",
"312 -120 LINE",
"312 -155 OFFCURVE",
"312 -189 OFFCURVE",
"318 -218 CURVE",
"350 -231 OFFCURVE",
"403 -238 OFFCURVE",
"443 -238 CURVE SMOOTH",
"609 -238 OFFCURVE",
"674 -111 OFFCURVE",
"705 60 CURVE SMOOTH",
"766 395 OFFCURVE",
"840 798 OFFCURVE",
"1027 798 CURVE SMOOTH",
"1041 798 OFFCURVE",
"970 835 OFFCURVE",
"956 835 CURVE SMOOTH",
"796 835 OFFCURVE",
"716 324 OFFCURVE",
"664 129 CURVE SMOOTH",
"660 115 OFFCURVE",
"657 113 OFFCURVE",
"652 113 CURVE SMOOTH",
"643 113 OFFCURVE",
"640 115 OFFCURVE",
"632 133 CURVE SMOOTH",
"546 305 OFFCURVE",
"438 518 OFFCURVE",
"362 678 CURVE SMOOTH",
"357 689 OFFCURVE",
"351 694 OFFCURVE",
"345 694 CURVE",
"321 684 OFFCURVE",
"292 677 OFFCURVE",
"250 677 CURVE SMOOTH",
"218 677 OFFCURVE",
"186 678 OFFCURVE",
"163 687 CURVE",
"158 687 OFFCURVE",
"157 684 OFFCURVE",
"158 681 CURVE",
"164 670 OFFCURVE",
"170 632 OFFCURVE",
"179 632 CURVE",
"201 633 OFFCURVE",
"227 635 OFFCURVE",
"252 635 CURVE SMOOTH",
"284 635 OFFCURVE",
"288 616 OFFCURVE",
"289 591 CURVE SMOOTH",
"294 481 OFFCURVE",
"115 148 OFFCURVE",
"125 30 CURVE",
"131 14 OFFCURVE",
"168 -19 OFFCURVE",
"181 -25 CURVE",
"186 -25 LINE",
"201 192 OFFCURVE",
"253 339 OFFCURVE",
"333 565 CURVE SMOOTH",
"342 589 OFFCURVE",
"352 595 OFFCURVE",
"365 572 CURVE SMOOTH",
"437 450 OFFCURVE",
"577 130 OFFCURVE",
"644 -8 CURVE"
);
}
);
width = 755;
}
);
note = Eng;
unicode = 014A;
},
{
color = 3;
glyphname = Nlinebelow;
lastChange = "2018-02-06 09:44:08 +0000";
layers = (
{
background = {
paths = (
{
closed = 1;
nodes = (
"247 0 LINE",
"247 26 LINE",
"217 26 LINE SMOOTH",
"179 26 OFFCURVE",
"159 37 OFFCURVE",
"159 62 CURVE SMOOTH",
"159 642 LINE",
"587 0 LINE",
"645 0 LINE",
"645 637 LINE SMOOTH",
"645 662 OFFCURVE",
"665 673 OFFCURVE",
"703 673 CURVE SMOOTH",
"733 673 LINE",
"733 700 LINE",
"508 700 LINE",
"508 673 LINE",
"537 673 LINE SMOOTH",
"576 673 OFFCURVE",
"595 662 OFFCURVE",
"595 637 CURVE SMOOTH",
"595 126 LINE",
"217 700 LINE",
"22 700 LINE",
"22 673 LINE",
"51 673 LINE SMOOTH",
"90 673 OFFCURVE",
"109 662 OFFCURVE",
"109 637 CURVE SMOOTH",
"109 62 LINE SMOOTH",
"109 37 OFFCURVE",
"90 26 OFFCURVE",
"51 26 CURVE SMOOTH",
"22 26 LINE",
"22 0 LINE"
);
},
{
closed = 1;
nodes = (
"542 -110 LINE",
"542 -72 LINE",
"210 -72 LINE",
"210 -110 LINE"
);
}
);
};
components = (
{
name = N;
},
{
name = macronbelowcomb;
transform = "{1, 0, 0, 1, 378, 0}";
}
);
layerId = "0B1DFD06-3317-40CA-B510-4969A0718C16";
width = 755;
}
);
note = Nlinebelow;
unicode = 1E48;
},
{
color = 3;
glyphname = Ntilde;
lastChange = "2018-02-06 09:44:08 +0000";
layers = (
{
background = {
paths = (
{
closed = 1;
nodes = (
"247 0 LINE",
"247 26 LINE",
"217 26 LINE SMOOTH",
"179 26 OFFCURVE",
"159 37 OFFCURVE",
"159 62 CURVE SMOOTH",
"159 642 LINE",
"587 0 LINE",
"645 0 LINE",
"645 637 LINE SMOOTH",
"645 662 OFFCURVE",
"665 673 OFFCURVE",
"703 673 CURVE SMOOTH",
"733 673 LINE",
"733 700 LINE",
"508 700 LINE",
"508 673 LINE",
"537 673 LINE SMOOTH",
"576 673 OFFCURVE",
"595 662 OFFCURVE",
"595 637 CURVE SMOOTH",
"595 126 LINE",
"217 700 LINE",
"22 700 LINE",
"22 673 LINE",
"51 673 LINE SMOOTH",
"90 673 OFFCURVE",
"109 662 OFFCURVE",
"109 637 CURVE SMOOTH",
"109 62 LINE SMOOTH",
"109 37 OFFCURVE",
"90 26 OFFCURVE",
"51 26 CURVE SMOOTH",
"22 26 LINE",
"22 0 LINE"
);
},
{
closed = 1;
nodes = (
"254 818 OFFCURVE",
"272 839 OFFCURVE",
"305 839 CURVE SMOOTH",
"356 839 OFFCURVE",
"405 785 OFFCURVE",
"456 785 CURVE SMOOTH",
"514 785 OFFCURVE",
"544 833 OFFCURVE",
"556 885 CURVE",
"535 896 LINE",
"519 856 OFFCURVE",
"503 834 OFFCURVE",
"469 834 CURVE SMOOTH",
"420 834 OFFCURVE",
"368 887 OFFCURVE",
"317 887 CURVE SMOOTH",
"263 887 OFFCURVE",
"230 843 OFFCURVE",
"218 791 CURVE",
"240 780 LINE"
);
}
);
};
components = (
{
name = N;
},
{
name = tilde;
transform = "{1, 0, 0, 1, 132, 230}";
}
);
layerId = "0B1DFD06-3317-40CA-B510-4969A0718C16";
width = 755;
}
);
note = Ntilde;
unicode = 00D1;
},
{
color = 3;
glyphname = Oacute;
lastChange = "2018-02-06 09:44:08 +0000";
layers = (
{
background = {
paths = (
{
closed = 1;
nodes = (
"601 -10 OFFCURVE",
"719 124 OFFCURVE",
"719 350 CURVE SMOOTH",
"719 574 OFFCURVE",
"601 710 OFFCURVE",
"378 710 CURVE SMOOTH",
"154 710 OFFCURVE",
"36 574 OFFCURVE",
"36 350 CURVE SMOOTH",
"36 124 OFFCURVE",
"154 -10 OFFCURVE",
"378 -10 CURVE SMOOTH"
);
},
{
closed = 1;
nodes = (
"215 32 OFFCURVE",
"135 158 OFFCURVE",
"135 350 CURVE SMOOTH",
"135 541 OFFCURVE",
"215 668 OFFCURVE",
"377 668 CURVE SMOOTH",
"541 668 OFFCURVE",
"620 541 OFFCURVE",
"620 350 CURVE SMOOTH",
"620 158 OFFCURVE",
"541 32 OFFCURVE",
"377 32 CURVE SMOOTH"
);
},
{
closed = 1;
nodes = (
"440 865 LINE SMOOTH",
"462 877 OFFCURVE",
"474 890 OFFCURVE",
"474 907 CURVE SMOOTH",
"474 922 OFFCURVE",
"462 937 OFFCURVE",
"440 937 CURVE SMOOTH",
"419 937 OFFCURVE",
"404 921 OFFCURVE",
"396 914 CURVE SMOOTH",
"281 807 LINE",
"298 782 LINE"
);
}
);
};
components = (
{
name = O;
},
{
name = acute;
transform = "{1, 0, 0, 1, 120, 230}";
}
);
layerId = "0B1DFD06-3317-40CA-B510-4969A0718C16";
width = 755;
}
);
leftKerningGroup = O;
note = Oacute;
rightKerningGroup = O;
unicode = 00D3;
},
{
color = 3;
glyphname = Obreve;
lastChange = "2018-02-06 09:44:08 +0000";
layers = (
{
background = {
paths = (
{
closed = 1;
nodes = (
"601 -10 OFFCURVE",
"719 124 OFFCURVE",
"719 350 CURVE SMOOTH",
"719 574 OFFCURVE",
"601 710 OFFCURVE",
"378 710 CURVE SMOOTH",
"154 710 OFFCURVE",
"36 574 OFFCURVE",
"36 350 CURVE SMOOTH",
"36 124 OFFCURVE",
"154 -10 OFFCURVE",
"378 -10 CURVE SMOOTH"
);
},
{
closed = 1;
nodes = (
"215 32 OFFCURVE",
"135 158 OFFCURVE",
"135 350 CURVE SMOOTH",
"135 541 OFFCURVE",
"215 668 OFFCURVE",
"377 668 CURVE SMOOTH",
"541 668 OFFCURVE",
"620 541 OFFCURVE",
"620 350 CURVE SMOOTH",
"620 158 OFFCURVE",
"541 32 OFFCURVE",
"377 32 CURVE SMOOTH"
);
},
{
closed = 1;
nodes = (
"477 774 OFFCURVE",
"519 830 OFFCURVE",
"523 905 CURVE",
"490 905 LINE",
"484 846 OFFCURVE",
"442 820 OFFCURVE",
"378 820 CURVE SMOOTH",
"314 820 OFFCURVE",
"271 846 OFFCURVE",
"264 905 CURVE",
"231 905 LINE",
"235 827 OFFCURVE",
"277 774 OFFCURVE",
"378 774 CURVE SMOOTH"
);
}
);
};
components = (
{
name = O;
},
{
name = breve;
transform = "{1, 0, 0, 1, 132, 230}";
}
);
layerId = "0B1DFD06-3317-40CA-B510-4969A0718C16";
width = 755;
}
);
leftKerningGroup = O;
note = Obreve;
rightKerningGroup = O;
unicode = 014E;
},
{
color = 3;
glyphname = Ocaron;
lastChange = "2018-02-06 09:44:08 +0000";
layers = (
{
background = {
paths = (
{
closed = 1;
nodes = (
"601 -10 OFFCURVE",
"719 124 OFFCURVE",
"719 350 CURVE SMOOTH",
"719 574 OFFCURVE",
"601 710 OFFCURVE",
"378 710 CURVE SMOOTH",
"154 710 OFFCURVE",
"36 574 OFFCURVE",
"36 350 CURVE SMOOTH",
"36 124 OFFCURVE",
"154 -10 OFFCURVE",
"378 -10 CURVE SMOOTH"
);
},
{
closed = 1;
nodes = (
"215 32 OFFCURVE",
"135 158 OFFCURVE",
"135 350 CURVE SMOOTH",
"135 541 OFFCURVE",
"215 668 OFFCURVE",
"377 668 CURVE SMOOTH",
"541 668 OFFCURVE",
"620 541 OFFCURVE",
"620 350 CURVE SMOOTH",
"620 158 OFFCURVE",
"541 32 OFFCURVE",
"377 32 CURVE SMOOTH"
);
},
{
closed = 1;
nodes = (
"404 782 LINE",
"528 911 LINE",
"509 932 LINE",
"401 847 LINE",
"393 840 OFFCURVE",
"384 836 OFFCURVE",
"378 836 CURVE SMOOTH",
"372 836 OFFCURVE",
"364 840 OFFCURVE",
"354 847 CURVE",
"246 932 LINE",
"227 911 LINE",
"351 782 LINE"
);
}
);
};
components = (
{
name = O;
},
{
name = caron;
transform = "{1, 0, 0, 1, 132, 230}";
}
);
layerId = "0B1DFD06-3317-40CA-B510-4969A0718C16";
width = 755;
}
);
leftKerningGroup = O;
note = Ocaron;
rightKerningGroup = O;
unicode = 01D1;
},
{
color = 3;
glyphname = Ocircumflex;
lastChange = "2018-02-06 09:44:08 +0000";
layers = (
{
background = {
paths = (
{
closed = 1;
nodes = (
"601 -10 OFFCURVE",
"719 124 OFFCURVE",
"719 350 CURVE SMOOTH",
"719 574 OFFCURVE",
"601 710 OFFCURVE",
"378 710 CURVE SMOOTH",
"154 710 OFFCURVE",
"36 574 OFFCURVE",
"36 350 CURVE SMOOTH",
"36 124 OFFCURVE",
"154 -10 OFFCURVE",
"378 -10 CURVE SMOOTH"
);
},
{
closed = 1;
nodes = (
"215 32 OFFCURVE",
"135 158 OFFCURVE",
"135 350 CURVE SMOOTH",
"135 541 OFFCURVE",
"215 668 OFFCURVE",
"377 668 CURVE SMOOTH",
"541 668 OFFCURVE",
"620 541 OFFCURVE",
"620 350 CURVE SMOOTH",
"620 158 OFFCURVE",
"541 32 OFFCURVE",
"377 32 CURVE SMOOTH"
);
},
{
closed = 1;
nodes = (
"354 868 LINE SMOOTH",
"362 874 OFFCURVE",
"372 879 OFFCURVE",
"378 879 CURVE SMOOTH",
"384 879 OFFCURVE",
"392 874 OFFCURVE",
"401 868 CURVE",
"509 782 LINE",
"528 803 LINE",
"404 932 LINE",
"351 932 LINE",
"227 803 LINE",
"246 782 LINE"
);
}
);
};
components = (
{
name = O;
},
{
name = circumflex;
transform = "{1, 0, 0, 1, 132, 230}";
}
);
layerId = "0B1DFD06-3317-40CA-B510-4969A0718C16";
width = 755;
}
);
leftKerningGroup = O;
note = Ocircumflex;
rightKerningGroup = O;
unicode = 00D4;
},
{
color = 3;
glyphname = Ocircumflexacute;
lastChange = "2018-02-06 09:44:08 +0000";
layers = (
{
background = {
paths = (
{
closed = 1;
nodes = (
"601 -10 OFFCURVE",
"719 124 OFFCURVE",
"719 350 CURVE SMOOTH",
"719 574 OFFCURVE",
"601 710 OFFCURVE",
"378 710 CURVE SMOOTH",
"154 710 OFFCURVE",
"36 574 OFFCURVE",
"36 350 CURVE SMOOTH",
"36 124 OFFCURVE",
"154 -10 OFFCURVE",
"378 -10 CURVE SMOOTH"
);
},
{
closed = 1;
nodes = (
"215 32 OFFCURVE",
"135 158 OFFCURVE",
"135 350 CURVE SMOOTH",
"135 541 OFFCURVE",
"215 668 OFFCURVE",
"377 668 CURVE SMOOTH",
"541 668 OFFCURVE",
"620 541 OFFCURVE",
"620 350 CURVE SMOOTH",
"620 158 OFFCURVE",
"541 32 OFFCURVE",
"377 32 CURVE SMOOTH"
);
},
{
closed = 1;
nodes = (
"348 861 LINE SMOOTH",
"358 869 OFFCURVE",
"368 877 OFFCURVE",
"376 877 CURVE SMOOTH",
"382 877 OFFCURVE",
"390 872 OFFCURVE",
"399 866 CURVE",
"505 780 LINE",
"524 802 LINE",
"402 931 LINE",
"351 931 LINE",
"229 802 LINE",
"247 780 LINE"
);
},
{
closed = 1;
nodes = (
"613 959 LINE SMOOTH",
"636 971 OFFCURVE",
"649 987 OFFCURVE",
"649 1002 CURVE SMOOTH",
"649 1016 OFFCURVE",
"638 1033 OFFCURVE",
"615 1033 CURVE SMOOTH",
"596 1033 OFFCURVE",
"579 1017 OFFCURVE",
"569 1007 CURVE SMOOTH",
"473 914 LINE",
"491 892 LINE"
);
}
);
};
components = (
{
name = O;
},
{
name = circumflexacute;
transform = "{1, 0, 0, 1, 628, 230}";
}
);
layerId = "0B1DFD06-3317-40CA-B510-4969A0718C16";
width = 755;
}
);
leftKerningGroup = O;
note = Ocircumflexacute;
rightKerningGroup = O;
unicode = 1ED0;
},
{
color = 3;
glyphname = Ocircumflexdotbelow;
lastChange = "2018-02-06 09:44:08 +0000";
layers = (
{
background = {
paths = (
{
closed = 1;
nodes = (
"36 124 OFFCURVE",
"154 -10 OFFCURVE",
"378 -10 CURVE SMOOTH",
"601 -10 OFFCURVE",
"719 124 OFFCURVE",
"719 350 CURVE SMOOTH",
"719 574 OFFCURVE",
"601 710 OFFCURVE",
"378 710 CURVE SMOOTH",
"154 710 OFFCURVE",
"36 574 OFFCURVE",
"36 350 CURVE SMOOTH"
);
},
{
closed = 1;
nodes = (
"135 541 OFFCURVE",
"215 668 OFFCURVE",
"377 668 CURVE SMOOTH",
"541 668 OFFCURVE",
"620 541 OFFCURVE",
"620 350 CURVE SMOOTH",
"620 158 OFFCURVE",
"541 32 OFFCURVE",
"377 32 CURVE SMOOTH",
"215 32 OFFCURVE",
"135 158 OFFCURVE",
"135 350 CURVE SMOOTH"
);
},
{
closed = 1;
nodes = (
"245 782 LINE",
"353 868 LINE SMOOTH",
"361 874 OFFCURVE",
"371 879 OFFCURVE",
"377 879 CURVE SMOOTH",
"383 879 OFFCURVE",
"391 874 OFFCURVE",
"400 868 CURVE",
"508 782 LINE",
"527 803 LINE",
"403 932 LINE",
"350 932 LINE",
"226 803 LINE"
);
},
{
closed = 1;
nodes = (
"330 -140 OFFCURVE",
"349 -159 OFFCURVE",
"377 -159 CURVE SMOOTH",
"405 -159 OFFCURVE",
"423 -140 OFFCURVE",
"423 -112 CURVE SMOOTH",
"423 -84 OFFCURVE",
"405 -64 OFFCURVE",
"377 -64 CURVE SMOOTH",
"349 -64 OFFCURVE",
"330 -84 OFFCURVE",
"330 -112 CURVE SMOOTH"
);
}
);
};
components = (
{
name = O;
},
{
name = dotbelowcomb;
transform = "{1, 0, 0, 1, 629, 0}";
},
{
name = circumflex;
transform = "{1, 0, 0, 1, 132, 230}";
}
);
layerId = "0B1DFD06-3317-40CA-B510-4969A0718C16";
width = 755;
}
);
leftKerningGroup = O;
note = Ocircumflexdotbelow;
rightKerningGroup = O;
unicode = 1ED8;
},
{
color = 3;
glyphname = Ocircumflexgrave;
lastChange = "2018-02-06 09:44:08 +0000";
layers = (
{
background = {
paths = (
{
closed = 1;
nodes = (
"601 -10 OFFCURVE",
"719 124 OFFCURVE",
"719 350 CURVE SMOOTH",
"719 574 OFFCURVE",
"601 710 OFFCURVE",
"378 710 CURVE SMOOTH",
"154 710 OFFCURVE",
"36 574 OFFCURVE",
"36 350 CURVE SMOOTH",
"36 124 OFFCURVE",
"154 -10 OFFCURVE",
"378 -10 CURVE SMOOTH"
);
},
{
closed = 1;
nodes = (
"215 32 OFFCURVE",
"135 158 OFFCURVE",
"135 350 CURVE SMOOTH",
"135 541 OFFCURVE",
"215 668 OFFCURVE",
"377 668 CURVE SMOOTH",
"541 668 OFFCURVE",
"620 541 OFFCURVE",
"620 350 CURVE SMOOTH",
"620 158 OFFCURVE",
"541 32 OFFCURVE",
"377 32 CURVE SMOOTH"
);
},
{
closed = 1;
nodes = (
"285 914 LINE",
"190 1007 LINE SMOOTH",
"180 1017 OFFCURVE",
"163 1033 OFFCURVE",
"143 1033 CURVE SMOOTH",
"121 1033 OFFCURVE",
"110 1016 OFFCURVE",
"110 1002 CURVE SMOOTH",
"110 987 OFFCURVE",
"123 971 OFFCURVE",
"146 959 CURVE SMOOTH",
"268 892 LINE"
);
},
{
closed = 1;
nodes = (
"348 861 LINE SMOOTH",
"358 869 OFFCURVE",
"368 877 OFFCURVE",
"376 877 CURVE SMOOTH",
"382 877 OFFCURVE",
"390 872 OFFCURVE",
"399 866 CURVE",
"505 780 LINE",
"524 802 LINE",
"402 931 LINE",
"351 931 LINE",
"229 802 LINE",
"247 780 LINE"
);
}
);
};
components = (
{
name = O;
},
{
name = circumflexgrave;
transform = "{1, 0, 0, 1, 628, 230}";
}
);
layerId = "0B1DFD06-3317-40CA-B510-4969A0718C16";
width = 755;
}
);
leftKerningGroup = O;
note = Ocircumflexgrave;
rightKerningGroup = O;
unicode = 1ED2;
},
{
color = 3;
glyphname = Ocircumflexhookabove;
lastChange = "2018-02-06 09:44:08 +0000";
layers = (
{
background = {
paths = (
{
closed = 1;
nodes = (
"601 -10 OFFCURVE",
"719 124 OFFCURVE",
"719 350 CURVE SMOOTH",
"719 574 OFFCURVE",
"601 710 OFFCURVE",
"378 710 CURVE SMOOTH",
"154 710 OFFCURVE",
"36 574 OFFCURVE",
"36 350 CURVE SMOOTH",
"36 124 OFFCURVE",
"154 -10 OFFCURVE",
"378 -10 CURVE SMOOTH"
);
},
{
closed = 1;
nodes = (
"215 32 OFFCURVE",
"135 158 OFFCURVE",
"135 350 CURVE SMOOTH",
"135 541 OFFCURVE",
"215 668 OFFCURVE",
"377 668 CURVE SMOOTH",
"541 668 OFFCURVE",
"620 541 OFFCURVE",
"620 350 CURVE SMOOTH",
"620 158 OFFCURVE",
"541 32 OFFCURVE",
"377 32 CURVE SMOOTH"
);
},
{
closed = 1;
nodes = (
"344 858 LINE",
"355 868 OFFCURVE",
"367 878 OFFCURVE",
"376 878 CURVE SMOOTH",
"382 878 OFFCURVE",
"390 873 OFFCURVE",
"399 867 CURVE",
"505 781 LINE",
"524 803 LINE",
"402 932 LINE",
"351 932 LINE",
"229 803 LINE",
"247 781 LINE"
);
},
{
closed = 1;
nodes = (
"551 898 LINE",
"532 905 OFFCURVE",
"522 912 OFFCURVE",
"522 926 CURVE SMOOTH",
"522 954 OFFCURVE",
"602 965 OFFCURVE",
"602 1010 CURVE SMOOTH",
"602 1047 OFFCURVE",
"560 1063 OFFCURVE",
"518 1063 CURVE SMOOTH",
"487 1063 OFFCURVE",
"442 1053 OFFCURVE",
"442 1022 CURVE SMOOTH",
"442 1010 OFFCURVE",
"453 1001 OFFCURVE",
"463 1001 CURVE SMOOTH",
"492 1001 OFFCURVE",
"479 1040 OFFCURVE",
"522 1040 CURVE SMOOTH",
"541 1040 OFFCURVE",
"552 1028 OFFCURVE",
"552 1013 CURVE SMOOTH",
"552 973 OFFCURVE",
"479 965 OFFCURVE",
"479 925 CURVE SMOOTH",
"479 901 OFFCURVE",
"495 880 OFFCURVE",
"542 880 CURVE"
);
}
);
};
components = (
{
name = O;
},
{
name = circumflexhookabove;
transform = "{1, 0, 0, 1, 628, 230}";
}
);
layerId = "0B1DFD06-3317-40CA-B510-4969A0718C16";
width = 755;
}
);
leftKerningGroup = O;
note = Ocircumflexhookabove;
rightKerningGroup = O;
unicode = 1ED4;
},
{
color = 3;
glyphname = Ocircumflextilde;
lastChange = "2018-02-06 09:44:08 +0000";
layers = (
{
background = {
paths = (
{
closed = 1;
nodes = (
"601 -10 OFFCURVE",
"719 124 OFFCURVE",
"719 350 CURVE SMOOTH",
"719 574 OFFCURVE",
"601 710 OFFCURVE",
"378 710 CURVE SMOOTH",
"154 710 OFFCURVE",
"36 574 OFFCURVE",
"36 350 CURVE SMOOTH",
"36 124 OFFCURVE",
"154 -10 OFFCURVE",
"378 -10 CURVE SMOOTH"
);
},
{
closed = 1;
nodes = (
"215 32 OFFCURVE",
"135 158 OFFCURVE",
"135 350 CURVE SMOOTH",
"135 541 OFFCURVE",
"215 668 OFFCURVE",
"377 668 CURVE SMOOTH",
"541 668 OFFCURVE",
"620 541 OFFCURVE",
"620 350 CURVE SMOOTH",
"620 158 OFFCURVE",
"541 32 OFFCURVE",
"377 32 CURVE SMOOTH"
);
},
{
closed = 1;
nodes = (
"348 862 LINE SMOOTH",
"358 870 OFFCURVE",
"368 878 OFFCURVE",
"376 878 CURVE SMOOTH",
"382 878 OFFCURVE",
"390 873 OFFCURVE",
"399 867 CURVE",
"505 781 LINE",
"524 803 LINE",
"402 932 LINE",
"351 932 LINE",
"229 803 LINE",
"247 781 LINE"
);
},
{
closed = 1;
nodes = (
"251 997 OFFCURVE",
"269 1018 OFFCURVE",
"300 1018 CURVE SMOOTH",
"349 1018 OFFCURVE",
"396 964 OFFCURVE",
"445 964 CURVE SMOOTH",
"498 964 OFFCURVE",
"527 1012 OFFCURVE",
"539 1063 CURVE",
"518 1075 LINE",
"505 1035 OFFCURVE",
"489 1012 OFFCURVE",
"456 1012 CURVE SMOOTH",
"409 1012 OFFCURVE",
"360 1065 OFFCURVE",
"311 1065 CURVE SMOOTH",
"260 1065 OFFCURVE",
"228 1021 OFFCURVE",
"218 970 CURVE",
"238 958 LINE"
);
}
);
};
components = (
{
name = O;
},
{
name = circumflextilde;
transform = "{1, 0, 0, 1, 628, 230}";
}
);
layerId = "0B1DFD06-3317-40CA-B510-4969A0718C16";
width = 755;
}
);
leftKerningGroup = O;
note = Ocircumflextilde;
rightKerningGroup = O;
unicode = 1ED6;
},
{
color = 3;
glyphname = Odieresis;
lastChange = "2018-02-06 09:44:08 +0000";
layers = (
{
background = {
paths = (
{
closed = 1;
nodes = (
"601 -10 OFFCURVE",
"719 124 OFFCURVE",
"719 350 CURVE SMOOTH",
"719 574 OFFCURVE",
"601 710 OFFCURVE",
"378 710 CURVE SMOOTH",
"154 710 OFFCURVE",
"36 574 OFFCURVE",
"36 350 CURVE SMOOTH",
"36 124 OFFCURVE",
"154 -10 OFFCURVE",
"378 -10 CURVE SMOOTH"
);
},
{
closed = 1;
nodes = (
"215 32 OFFCURVE",
"135 158 OFFCURVE",
"135 350 CURVE SMOOTH",
"135 541 OFFCURVE",
"215 668 OFFCURVE",
"377 668 CURVE SMOOTH",
"541 668 OFFCURVE",
"620 541 OFFCURVE",
"620 350 CURVE SMOOTH",
"620 158 OFFCURVE",
"541 32 OFFCURVE",
"377 32 CURVE SMOOTH"
);
},
{
closed = 1;
nodes = (
"298 781 OFFCURVE",
"316 800 OFFCURVE",
"316 827 CURVE SMOOTH",
"316 855 OFFCURVE",
"298 875 OFFCURVE",
"269 875 CURVE SMOOTH",
"241 875 OFFCURVE",
"223 855 OFFCURVE",
"223 827 CURVE SMOOTH",
"223 800 OFFCURVE",
"241 781 OFFCURVE",
"269 781 CURVE SMOOTH"
);
},
{
closed = 1;
nodes = (
"514 781 OFFCURVE",
"532 800 OFFCURVE",
"532 827 CURVE SMOOTH",
"532 855 OFFCURVE",
"514 875 OFFCURVE",
"485 875 CURVE SMOOTH",
"456 875 OFFCURVE",
"438 855 OFFCURVE",
"438 827 CURVE SMOOTH",
"438 800 OFFCURVE",
"456 781 OFFCURVE",
"485 781 CURVE SMOOTH"
);
}
);
};
components = (
{
name = O;
},
{
name = dieresis;
transform = "{1, 0, 0, 1, 132, 230}";
}
);
layerId = "0B1DFD06-3317-40CA-B510-4969A0718C16";
width = 755;
}
);
leftKerningGroup = O;
note = Odieresis;
rightKerningGroup = O;
unicode = 00D6;
},
{
color = 3;
glyphname = Odotbelow;
lastChange = "2018-02-06 09:44:08 +0000";
layers = (
{
background = {
paths = (
{
closed = 1;
nodes = (
"36 124 OFFCURVE",
"154 -10 OFFCURVE",
"378 -10 CURVE SMOOTH",
"601 -10 OFFCURVE",
"719 124 OFFCURVE",
"719 350 CURVE SMOOTH",
"719 574 OFFCURVE",
"601 710 OFFCURVE",
"378 710 CURVE SMOOTH",
"154 710 OFFCURVE",
"36 574 OFFCURVE",
"36 350 CURVE SMOOTH"
);
},
{
closed = 1;
nodes = (
"135 541 OFFCURVE",
"215 668 OFFCURVE",
"377 668 CURVE SMOOTH",
"541 668 OFFCURVE",
"620 541 OFFCURVE",
"620 350 CURVE SMOOTH",
"620 158 OFFCURVE",
"541 32 OFFCURVE",
"377 32 CURVE SMOOTH",
"215 32 OFFCURVE",
"135 158 OFFCURVE",
"135 350 CURVE SMOOTH"
);
},
{
closed = 1;
nodes = (
"330 -140 OFFCURVE",
"349 -159 OFFCURVE",
"377 -159 CURVE SMOOTH",
"405 -159 OFFCURVE",
"423 -140 OFFCURVE",
"423 -112 CURVE SMOOTH",
"423 -84 OFFCURVE",
"405 -64 OFFCURVE",
"377 -64 CURVE SMOOTH",
"349 -64 OFFCURVE",
"330 -84 OFFCURVE",
"330 -112 CURVE SMOOTH"
);
}
);
};
components = (
{
name = O;
},
{
name = dotbelowcomb;
transform = "{1, 0, 0, 1, 629, 0}";
}
);
layerId = "0B1DFD06-3317-40CA-B510-4969A0718C16";
width = 755;
}
);
leftKerningGroup = O;
note = Odotbelow;
rightKerningGroup = O;
unicode = 1ECC;
},
{
color = 3;
glyphname = Ograve;
lastChange = "2018-02-06 09:44:08 +0000";
layers = (
{
background = {
paths = (
{
closed = 1;
nodes = (
"601 -10 OFFCURVE",
"719 124 OFFCURVE",
"719 350 CURVE SMOOTH",
"719 574 OFFCURVE",
"601 710 OFFCURVE",
"378 710 CURVE SMOOTH",
"154 710 OFFCURVE",
"36 574 OFFCURVE",
"36 350 CURVE SMOOTH",
"36 124 OFFCURVE",
"154 -10 OFFCURVE",
"378 -10 CURVE SMOOTH"
);
},
{
closed = 1;
nodes = (
"215 32 OFFCURVE",
"135 158 OFFCURVE",
"135 350 CURVE SMOOTH",
"135 541 OFFCURVE",
"215 668 OFFCURVE",
"377 668 CURVE SMOOTH",
"541 668 OFFCURVE",
"620 541 OFFCURVE",
"620 350 CURVE SMOOTH",
"620 158 OFFCURVE",
"541 32 OFFCURVE",
"377 32 CURVE SMOOTH"
);
},
{
closed = 1;
nodes = (
"459 807 LINE",
"344 913 LINE",
"335 922 OFFCURVE",
"319 937 OFFCURVE",
"299 937 CURVE SMOOTH",
"279 937 OFFCURVE",
"267 924 OFFCURVE",
"267 908 CURVE SMOOTH",
"267 890 OFFCURVE",
"279 876 OFFCURVE",
"298 865 CURVE SMOOTH",
"441 782 LINE"
);
}
);
};
components = (
{
name = O;
},
{
name = grave;
transform = "{1, 0, 0, 1, 132, 230}";
}
);
layerId = "0B1DFD06-3317-40CA-B510-4969A0718C16";
width = 755;
}
);
leftKerningGroup = O;
note = Ograve;
rightKerningGroup = O;
unicode = 00D2;
},
{
color = 3;
glyphname = Ohookabove;
lastChange = "2018-02-06 09:44:08 +0000";
layers = (
{
background = {
paths = (
{
closed = 1;
nodes = (
"601 -10 OFFCURVE",
"719 124 OFFCURVE",
"719 350 CURVE SMOOTH",
"719 574 OFFCURVE",
"601 710 OFFCURVE",
"378 710 CURVE SMOOTH",
"154 710 OFFCURVE",
"36 574 OFFCURVE",
"36 350 CURVE SMOOTH",
"36 124 OFFCURVE",
"154 -10 OFFCURVE",
"378 -10 CURVE SMOOTH"
);
},
{
closed = 1;
nodes = (
"215 32 OFFCURVE",
"135 158 OFFCURVE",
"135 350 CURVE SMOOTH",
"135 541 OFFCURVE",
"215 668 OFFCURVE",
"377 668 CURVE SMOOTH",
"541 668 OFFCURVE",
"620 541 OFFCURVE",
"620 350 CURVE SMOOTH",
"620 158 OFFCURVE",
"541 32 OFFCURVE",
"377 32 CURVE SMOOTH"
);
},
{
closed = 1;
nodes = (
"407 798 LINE",
"388 805 OFFCURVE",
"376 811 OFFCURVE",
"376 828 CURVE SMOOTH",
"376 861 OFFCURVE",
"465 876 OFFCURVE",
"465 927 CURVE SMOOTH",
"465 969 OFFCURVE",
"429 991 OFFCURVE",
"376 991 CURVE SMOOTH",
"329 991 OFFCURVE",
"288 974 OFFCURVE",
"288 940 CURVE SMOOTH",
"288 923 OFFCURVE",
"296 915 OFFCURVE",
"311 915 CURVE SMOOTH",
"334 915 OFFCURVE",
"336 934 OFFCURVE",
"339 942 CURVE SMOOTH",
"344 956 OFFCURVE",
"361 962 OFFCURVE",
"377 962 CURVE SMOOTH",
"398 962 OFFCURVE",
"411 947 OFFCURVE",
"411 930 CURVE SMOOTH",
"411 885 OFFCURVE",
"329 874 OFFCURVE",
"329 828 CURVE SMOOTH",
"329 801 OFFCURVE",
"347 778 OFFCURVE",
"398 778 CURVE"
);
}
);
};
components = (
{
name = O;
},
{
name = hookabovecomb;
transform = "{1, 0, 0, 1, 629, 230}";
}
);
layerId = "0B1DFD06-3317-40CA-B510-4969A0718C16";
width = 755;
}
);
leftKerningGroup = O;
note = Ohookabove;
rightKerningGroup = O;
unicode = 1ECE;
},
{
color = 3;
glyphname = Ohorn;
lastChange = "2018-02-06 09:44:08 +0000";
layers = (
{
layerId = "0B1DFD06-3317-40CA-B510-4969A0718C16";
paths = (
{
closed = 1;
nodes = (
"872 595 OFFCURVE",
"718 719 OFFCURVE",
"541 719 CURVE SMOOTH",
"300 719 OFFCURVE",
"130 566 OFFCURVE",
"139 296 CURVE SMOOTH",
"145 96 OFFCURVE",
"300 -15 OFFCURVE",
"489 -15 CURVE SMOOTH",
"741 -15 OFFCURVE",
"888 176 OFFCURVE",
"878 413 CURVE SMOOTH"
);
},
{
closed = 1;
nodes = (
"816 187 OFFCURVE",
"695 37 OFFCURVE",
"474 37 CURVE SMOOTH",
"350 37 OFFCURVE",
"214 146 OFFCURVE",
"208 292 CURVE SMOOTH",
"199 516 OFFCURVE",
"320 670 OFFCURVE",
"547 670 CURVE SMOOTH",
"685 670 OFFCURVE",
"807 543 OFFCURVE",
"810 401 CURVE SMOOTH"
);
},
{
closed = 1;
nodes = (
"812 527 LINE",
"829 493 OFFCURVE",
"852 471 OFFCURVE",
"906 471 CURVE SMOOTH",
"938 471 OFFCURVE",
"973 493 OFFCURVE",
"973 539 CURVE",
"970 581 OFFCURVE",
"952 610 OFFCURVE",
"923 628 CURVE",
"920 632 OFFCURVE",
"893 624 OFFCURVE",
"893 618 CURVE",
"910 600 OFFCURVE",
"923 576 OFFCURVE",
"923 556 CURVE",
"925 528 OFFCURVE",
"901 514 OFFCURVE",
"878 514 CURVE SMOOTH",
"854 514 OFFCURVE",
"846 524 OFFCURVE",
"838 537 CURVE"
);
}
);
width = 923;
}
);
note = Ohorn;
unicode = 01A0;
},
{
color = 3;
glyphname = Ohornacute;
lastChange = "2018-02-06 09:44:08 +0000";
layers = (
{
background = {
paths = (
{
closed = 1;
nodes = (
"602 -10 OFFCURVE",
"720 124 OFFCURVE",
"720 350 CURVE SMOOTH",
"720 574 OFFCURVE",
"602 710 OFFCURVE",
"379 710 CURVE SMOOTH",
"155 710 OFFCURVE",
"37 574 OFFCURVE",
"37 350 CURVE SMOOTH",
"37 124 OFFCURVE",
"155 -10 OFFCURVE",
"379 -10 CURVE SMOOTH"
);
},
{
closed = 1;
nodes = (
"216 32 OFFCURVE",
"136 158 OFFCURVE",
"136 350 CURVE SMOOTH",
"136 541 OFFCURVE",
"216 668 OFFCURVE",
"378 668 CURVE SMOOTH",
"542 668 OFFCURVE",
"621 541 OFFCURVE",
"621 350 CURVE SMOOTH",
"621 158 OFFCURVE",
"542 32 OFFCURVE",
"378 32 CURVE SMOOTH"
);
},
{
closed = 1;
nodes = (
"424 864 LINE SMOOTH",
"446 876 OFFCURVE",
"458 889 OFFCURVE",
"458 906 CURVE SMOOTH",
"458 921 OFFCURVE",
"446 936 OFFCURVE",
"424 936 CURVE SMOOTH",
"403 936 OFFCURVE",
"388 920 OFFCURVE",
"380 913 CURVE SMOOTH",
"265 806 LINE",
"282 781 LINE"
);
},
{
closed = 1;
nodes = (
"691 567 OFFCURVE",
"756 632 OFFCURVE",
"756 705 CURVE SMOOTH",
"756 752 OFFCURVE",
"729 772 OFFCURVE",
"701 772 CURVE SMOOTH",
"672 772 OFFCURVE",
"656 752 OFFCURVE",
"656 729 CURVE SMOOTH",
"656 695 OFFCURVE",
"689 688 OFFCURVE",
"689 653 CURVE SMOOTH",
"689 617 OFFCURVE",
"658 588 OFFCURVE",
"623 568 CURVE",
"623 543 LINE"
);
}
);
};
components = (
{
name = acute;
transform = "{1, 0, 0, 1, 120, 230}";
},
{
name = Ohorn;
}
);
layerId = "0B1DFD06-3317-40CA-B510-4969A0718C16";
width = 755;
}
);
leftKerningGroup = O;
note = Ohornacute;
rightKerningGroup = O;
unicode = 1EDA;
},
{
color = 3;
glyphname = Ohorndotbelow;
lastChange = "2018-02-06 09:44:08 +0000";
layers = (
{
background = {
paths = (
{
closed = 1;
nodes = (
"602 -10 OFFCURVE",
"720 124 OFFCURVE",
"720 350 CURVE SMOOTH",
"720 574 OFFCURVE",
"602 710 OFFCURVE",
"379 710 CURVE SMOOTH",
"155 710 OFFCURVE",
"37 574 OFFCURVE",
"37 350 CURVE SMOOTH",
"37 124 OFFCURVE",
"155 -10 OFFCURVE",
"379 -10 CURVE SMOOTH"
);
},
{
closed = 1;
nodes = (
"216 32 OFFCURVE",
"136 158 OFFCURVE",
"136 350 CURVE SMOOTH",
"136 541 OFFCURVE",
"216 668 OFFCURVE",
"378 668 CURVE SMOOTH",
"542 668 OFFCURVE",
"621 541 OFFCURVE",
"621 350 CURVE SMOOTH",
"621 158 OFFCURVE",
"542 32 OFFCURVE",
"378 32 CURVE SMOOTH"
);
},
{
closed = 1;
nodes = (
"691 567 OFFCURVE",
"756 632 OFFCURVE",
"756 705 CURVE SMOOTH",
"756 752 OFFCURVE",
"729 772 OFFCURVE",
"701 772 CURVE SMOOTH",
"672 772 OFFCURVE",
"656 752 OFFCURVE",
"656 729 CURVE SMOOTH",
"656 695 OFFCURVE",
"689 688 OFFCURVE",
"689 653 CURVE SMOOTH",
"689 617 OFFCURVE",
"658 588 OFFCURVE",
"623 568 CURVE",
"623 543 LINE"
);
},
{
closed = 1;
nodes = (
"395 -159 OFFCURVE",
"413 -140 OFFCURVE",
"413 -112 CURVE SMOOTH",
"413 -84 OFFCURVE",
"395 -64 OFFCURVE",
"367 -64 CURVE SMOOTH",
"339 -64 OFFCURVE",
"320 -84 OFFCURVE",
"320 -112 CURVE SMOOTH",
"320 -140 OFFCURVE",
"339 -159 OFFCURVE",
"367 -159 CURVE SMOOTH"
);
}
);
};
components = (
{
name = dotbelowcomb;
transform = "{1, 0, 0, 1, 629, 0}";
},
{
name = Ohorn;
}
);
layerId = "0B1DFD06-3317-40CA-B510-4969A0718C16";
width = 755;
}
);
leftKerningGroup = O;
note = Ohorndotbelow;
rightKerningGroup = O;
unicode = 1EE2;
},
{
color = 3;
glyphname = Ohorngrave;
lastChange = "2018-02-06 09:44:08 +0000";
layers = (
{
background = {
paths = (
{
closed = 1;
nodes = (
"602 -10 OFFCURVE",
"720 124 OFFCURVE",
"720 350 CURVE SMOOTH",
"720 574 OFFCURVE",
"602 710 OFFCURVE",
"379 710 CURVE SMOOTH",
"155 710 OFFCURVE",
"37 574 OFFCURVE",
"37 350 CURVE SMOOTH",
"37 124 OFFCURVE",
"155 -10 OFFCURVE",
"379 -10 CURVE SMOOTH"
);
},
{
closed = 1;
nodes = (
"216 32 OFFCURVE",
"136 158 OFFCURVE",
"136 350 CURVE SMOOTH",
"136 541 OFFCURVE",
"216 668 OFFCURVE",
"378 668 CURVE SMOOTH",
"542 668 OFFCURVE",
"621 541 OFFCURVE",
"621 350 CURVE SMOOTH",
"621 158 OFFCURVE",
"542 32 OFFCURVE",
"378 32 CURVE SMOOTH"
);
},
{
closed = 1;
nodes = (
"464 816 LINE",
"349 922 LINE",
"340 931 OFFCURVE",
"324 946 OFFCURVE",
"304 946 CURVE SMOOTH",
"284 946 OFFCURVE",
"272 933 OFFCURVE",
"272 917 CURVE SMOOTH",
"272 899 OFFCURVE",
"284 885 OFFCURVE",
"303 874 CURVE SMOOTH",
"446 791 LINE"
);
},
{
closed = 1;
nodes = (
"691 567 OFFCURVE",
"756 632 OFFCURVE",
"756 705 CURVE SMOOTH",
"756 752 OFFCURVE",
"729 772 OFFCURVE",
"701 772 CURVE SMOOTH",
"672 772 OFFCURVE",
"656 752 OFFCURVE",
"656 729 CURVE SMOOTH",
"656 695 OFFCURVE",
"689 688 OFFCURVE",
"689 653 CURVE SMOOTH",
"689 617 OFFCURVE",
"658 588 OFFCURVE",
"623 568 CURVE",
"623 543 LINE"
);
}
);
};
components = (
{
name = grave;
transform = "{1, 0, 0, 1, 132, 230}";
},
{
name = Ohorn;
}
);
layerId = "0B1DFD06-3317-40CA-B510-4969A0718C16";
width = 755;
}
);
leftKerningGroup = O;
note = Ohorngrave;
rightKerningGroup = O;
unicode = 1EDC;
},
{
color = 3;
glyphname = Ohornhookabove;
lastChange = "2018-02-06 09:44:08 +0000";
layers = (
{
background = {
paths = (
{
closed = 1;
nodes = (
"602 -10 OFFCURVE",
"720 124 OFFCURVE",
"720 350 CURVE SMOOTH",
"720 574 OFFCURVE",
"602 710 OFFCURVE",
"379 710 CURVE SMOOTH",
"155 710 OFFCURVE",
"37 574 OFFCURVE",
"37 350 CURVE SMOOTH",
"37 124 OFFCURVE",
"155 -10 OFFCURVE",
"379 -10 CURVE SMOOTH"
);
},
{
closed = 1;
nodes = (
"216 32 OFFCURVE",
"136 158 OFFCURVE",
"136 350 CURVE SMOOTH",
"136 541 OFFCURVE",
"216 668 OFFCURVE",
"378 668 CURVE SMOOTH",
"542 668 OFFCURVE",
"621 541 OFFCURVE",
"621 350 CURVE SMOOTH",
"621 158 OFFCURVE",
"542 32 OFFCURVE",
"378 32 CURVE SMOOTH"
);
},
{
closed = 1;
nodes = (
"412 809 LINE",
"393 816 OFFCURVE",
"381 822 OFFCURVE",
"381 839 CURVE SMOOTH",
"381 872 OFFCURVE",
"470 887 OFFCURVE",
"470 938 CURVE SMOOTH",
"470 980 OFFCURVE",
"434 1002 OFFCURVE",
"381 1002 CURVE SMOOTH",
"334 1002 OFFCURVE",
"293 985 OFFCURVE",
"293 951 CURVE SMOOTH",
"293 934 OFFCURVE",
"301 926 OFFCURVE",
"316 926 CURVE SMOOTH",
"339 926 OFFCURVE",
"341 945 OFFCURVE",
"344 953 CURVE SMOOTH",
"349 967 OFFCURVE",
"366 973 OFFCURVE",
"382 973 CURVE SMOOTH",
"403 973 OFFCURVE",
"416 958 OFFCURVE",
"416 941 CURVE SMOOTH",
"416 896 OFFCURVE",
"334 885 OFFCURVE",
"334 839 CURVE SMOOTH",
"334 812 OFFCURVE",
"352 789 OFFCURVE",
"403 789 CURVE"
);
},
{
closed = 1;
nodes = (
"691 567 OFFCURVE",
"756 632 OFFCURVE",
"756 705 CURVE SMOOTH",
"756 752 OFFCURVE",
"729 772 OFFCURVE",
"701 772 CURVE SMOOTH",
"672 772 OFFCURVE",
"656 752 OFFCURVE",
"656 729 CURVE SMOOTH",
"656 695 OFFCURVE",
"689 688 OFFCURVE",
"689 653 CURVE SMOOTH",
"689 617 OFFCURVE",
"658 588 OFFCURVE",
"623 568 CURVE",
"623 543 LINE"
);
}
);
};
components = (
{
name = hookabovecomb;
transform = "{1, 0, 0, 1, 629, 230}";
},
{
name = Ohorn;
}
);
layerId = "0B1DFD06-3317-40CA-B510-4969A0718C16";
width = 755;
}
);
leftKerningGroup = O;
note = Ohornhookabove;
rightKerningGroup = O;
unicode = 1EDE;
},
{
color = 3;
glyphname = Ohorntilde;
lastChange = "2018-02-06 09:44:08 +0000";
layers = (
{
background = {
paths = (
{
closed = 1;
nodes = (
"602 -10 OFFCURVE",
"720 124 OFFCURVE",
"720 350 CURVE SMOOTH",
"720 574 OFFCURVE",
"602 710 OFFCURVE",
"379 710 CURVE SMOOTH",
"155 710 OFFCURVE",
"37 574 OFFCURVE",
"37 350 CURVE SMOOTH",
"37 124 OFFCURVE",
"155 -10 OFFCURVE",
"379 -10 CURVE SMOOTH"
);
},
{
closed = 1;
nodes = (
"216 32 OFFCURVE",
"136 158 OFFCURVE",
"136 350 CURVE SMOOTH",
"136 541 OFFCURVE",
"216 668 OFFCURVE",
"378 668 CURVE SMOOTH",
"542 668 OFFCURVE",
"621 541 OFFCURVE",
"621 350 CURVE SMOOTH",
"621 158 OFFCURVE",
"542 32 OFFCURVE",
"378 32 CURVE SMOOTH"
);
},
{
closed = 1;
nodes = (
"234 828 OFFCURVE",
"252 849 OFFCURVE",
"285 849 CURVE SMOOTH",
"336 849 OFFCURVE",
"385 795 OFFCURVE",
"436 795 CURVE SMOOTH",
"494 795 OFFCURVE",
"524 843 OFFCURVE",
"536 895 CURVE",
"515 906 LINE",
"499 866 OFFCURVE",
"483 844 OFFCURVE",
"449 844 CURVE SMOOTH",
"400 844 OFFCURVE",
"348 897 OFFCURVE",
"297 897 CURVE SMOOTH",
"243 897 OFFCURVE",
"210 853 OFFCURVE",
"198 801 CURVE",
"220 790 LINE"
);
},
{
closed = 1;
nodes = (
"691 567 OFFCURVE",
"756 632 OFFCURVE",
"756 705 CURVE SMOOTH",
"756 752 OFFCURVE",
"729 772 OFFCURVE",
"701 772 CURVE SMOOTH",
"672 772 OFFCURVE",
"656 752 OFFCURVE",
"656 729 CURVE SMOOTH",
"656 695 OFFCURVE",
"689 688 OFFCURVE",
"689 653 CURVE SMOOTH",
"689 617 OFFCURVE",
"658 588 OFFCURVE",
"623 568 CURVE",
"623 543 LINE"
);
}
);
};
components = (
{
name = tilde;
transform = "{1, 0, 0, 1, 132, 230}";
},
{
name = Ohorn;
}
);
layerId = "0B1DFD06-3317-40CA-B510-4969A0718C16";
width = 755;
}
);
leftKerningGroup = O;
note = Ohorntilde;
rightKerningGroup = O;
unicode = 1EE0;
},
{
color = 3;
glyphname = Ohungarumlaut;
lastChange = "2018-02-06 09:44:08 +0000";
layers = (
{
background = {
paths = (
{
closed = 1;
nodes = (
"601 -10 OFFCURVE",
"719 124 OFFCURVE",
"719 350 CURVE SMOOTH",
"719 574 OFFCURVE",
"601 710 OFFCURVE",
"378 710 CURVE SMOOTH",
"154 710 OFFCURVE",
"36 574 OFFCURVE",
"36 350 CURVE SMOOTH",
"36 124 OFFCURVE",
"154 -10 OFFCURVE",
"378 -10 CURVE SMOOTH"
);
},
{
closed = 1;
nodes = (
"215 32 OFFCURVE",
"135 158 OFFCURVE",
"135 350 CURVE SMOOTH",
"135 541 OFFCURVE",
"215 668 OFFCURVE",
"377 668 CURVE SMOOTH",
"541 668 OFFCURVE",
"620 541 OFFCURVE",
"620 350 CURVE SMOOTH",
"620 158 OFFCURVE",
"541 32 OFFCURVE",
"377 32 CURVE SMOOTH"
);
},
{
closed = 1;
nodes = (
"395 864 LINE SMOOTH",
"417 877 OFFCURVE",
"429 891 OFFCURVE",
"429 908 CURVE SMOOTH",
"429 922 OFFCURVE",
"421 937 OFFCURVE",
"399 937 CURVE SMOOTH",
"378 937 OFFCURVE",
"357 919 OFFCURVE",
"350 913 CURVE",
"236 807 LINE",
"253 782 LINE"
);
},
{
closed = 1;
nodes = (
"556 864 LINE SMOOTH",
"577 877 OFFCURVE",
"589 891 OFFCURVE",
"589 908 CURVE SMOOTH",
"589 922 OFFCURVE",
"578 937 OFFCURVE",
"556 937 CURVE SMOOTH",
"534 937 OFFCURVE",
"517 919 OFFCURVE",
"510 913 CURVE",
"396 807 LINE",
"414 782 LINE"
);
}
);
};
components = (
{
name = O;
},
{
name = hungarumlaut;
transform = "{1, 0, 0, 1, 131, 230}";
}
);
layerId = "0B1DFD06-3317-40CA-B510-4969A0718C16";
width = 755;
}
);
leftKerningGroup = O;
note = Ohungarumlaut;
rightKerningGroup = O;
unicode = 0150;
},
{
color = 3;
glyphname = Omacron;
lastChange = "2018-02-06 09:44:08 +0000";
layers = (
{
background = {
paths = (
{
closed = 1;
nodes = (
"601 -10 OFFCURVE",
"719 124 OFFCURVE",
"719 350 CURVE SMOOTH",
"719 574 OFFCURVE",
"601 710 OFFCURVE",
"378 710 CURVE SMOOTH",
"154 710 OFFCURVE",
"36 574 OFFCURVE",
"36 350 CURVE SMOOTH",
"36 124 OFFCURVE",
"154 -10 OFFCURVE",
"378 -10 CURVE SMOOTH"
);
},
{
closed = 1;
nodes = (
"215 32 OFFCURVE",
"135 158 OFFCURVE",
"135 350 CURVE SMOOTH",
"135 541 OFFCURVE",
"215 668 OFFCURVE",
"377 668 CURVE SMOOTH",
"541 668 OFFCURVE",
"620 541 OFFCURVE",
"620 350 CURVE SMOOTH",
"620 158 OFFCURVE",
"541 32 OFFCURVE",
"377 32 CURVE SMOOTH"
);
},
{
closed = 1;
nodes = (
"543 793 LINE",
"543 835 LINE",
"210 835 LINE",
"210 793 LINE"
);
}
);
};
components = (
{
name = O;
},
{
name = macron;
transform = "{1, 0, 0, 1, 132, 230}";
}
);
layerId = "0B1DFD06-3317-40CA-B510-4969A0718C16";
width = 755;
}
);
leftKerningGroup = O;
note = Omacron;
rightKerningGroup = O;
unicode = 014C;
},
{
color = 3;
glyphname = Oslash;
lastChange = "2018-02-06 09:44:08 +0000";
layers = (
{
layerId = "0B1DFD06-3317-40CA-B510-4969A0718C16";
paths = (
{
closed = 1;
nodes = (
"303 -194 OFFCURVE",
"351 -211 OFFCURVE",
"355 -190 CURVE",
"469 212 OFFCURVE",
"565 477 OFFCURVE",
"759 889 CURVE",
"756 902 OFFCURVE",
"715 904 OFFCURVE",
"707 896 CURVE",
"526 509 OFFCURVE",
"402 187 OFFCURVE",
"298 -177 CURVE"
);
},
{
closed = 1;
nodes = (
"825 595 OFFCURVE",
"694 719 OFFCURVE",
"518 719 CURVE SMOOTH",
"276 719 OFFCURVE",
"130 566 OFFCURVE",
"139 296 CURVE SMOOTH",
"145 96 OFFCURVE",
"277 -15 OFFCURVE",
"465 -15 CURVE SMOOTH",
"719 -15 OFFCURVE",
"840 176 OFFCURVE",
"831 413 CURVE SMOOTH"
);
},
{
closed = 1;
nodes = (
"775 188 OFFCURVE",
"672 33 OFFCURVE",
"451 33 CURVE SMOOTH",
"327 33 OFFCURVE",
"208 146 OFFCURVE",
"202 292 CURVE SMOOTH",
"193 516 OFFCURVE",
"295 674 OFFCURVE",
"524 674 CURVE SMOOTH",
"662 674 OFFCURVE",
"765 543 OFFCURVE",
"769 401 CURVE SMOOTH"
);
}
);
width = 876;
}
);
note = Oslash;
unicode = 00D8;
},
{
color = 3;
glyphname = OE;
lastChange = "2018-02-06 09:44:08 +0000";
layers = (
{
layerId = "0B1DFD06-3317-40CA-B510-4969A0718C16";
paths = (
{
closed = 1;
nodes = (
"313 719 OFFCURVE",
"130 543 OFFCURVE",
"139 296 CURVE SMOOTH",
"145 96 OFFCURVE",
"277 -15 OFFCURVE",
"465 -15 CURVE SMOOTH",
"571 -15 OFFCURVE",
"659 24 OFFCURVE",
"726 90 CURVE",
"724 77 OFFCURVE",
"722 69 OFFCURVE",
"724 63 CURVE",
"724 20 OFFCURVE",
"756 -13 OFFCURVE",
"927 -13 CURVE SMOOTH",
"1036 -13 OFFCURVE",
"1132 -8 OFFCURVE",
"1232 17 CURVE SMOOTH",
"1254 23 OFFCURVE",
"1267 32 OFFCURVE",
"1272 45 CURVE",
"1276 57 OFFCURVE",
"1283 102 OFFCURVE",
"1295 114 CURVE",
"1292 120 OFFCURVE",
"1290 123 OFFCURVE",
"1286 120 CURVE",
"1201 44 OFFCURVE",
"1020 32 OFFCURVE",
"901 32 CURVE SMOOTH",
"834 32 OFFCURVE",
"795 37 OFFCURVE",
"794 86 CURVE SMOOTH",
"790 171 OFFCURVE",
"827 258 OFFCURVE",
"859 339 CURVE SMOOTH",
"862 345 OFFCURVE",
"866 349 OFFCURVE",
"875 349 CURVE",
"922 352 OFFCURVE",
"1136 349 OFFCURVE",
"1201 349 CURVE SMOOTH",
"1209 349 OFFCURVE",
"1213 351 OFFCURVE",
"1214 355 CURVE",
"1214 365 OFFCURVE",
"1226 399 OFFCURVE",
"1229 408 CURVE",
"1223 413 LINE",
"1147 390 OFFCURVE",
"987 388 OFFCURVE",
"895 394 CURVE",
"884 394 OFFCURVE",
"879 399 OFFCURVE",
"882 408 CURVE",
"914 501 OFFCURVE",
"929 569 OFFCURVE",
"973 645 CURVE",
"979 658 OFFCURVE",
"988 662 OFFCURVE",
"1006 662 CURVE SMOOTH",
"1083 662 OFFCURVE",
"1169 657 OFFCURVE",
"1240 647 CURVE",
"1247 644 OFFCURVE",
"1253 635 OFFCURVE",
"1259 620 CURVE",
"1265 619 LINE",
"1271 641 OFFCURVE",
"1288 693 OFFCURVE",
"1291 703 CURVE",
"1290 709 OFFCURVE",
"1286 713 OFFCURVE",
"1280 713 CURVE SMOOTH",
"1180 713 OFFCURVE",
"978 702 OFFCURVE",
"934 702 CURVE SMOOTH",
"904 702 OFFCURVE",
"896 699 OFFCURVE",
"900 655 CURVE",
"900 643 OFFCURVE",
"869 534 OFFCURVE",
"840 450 CURVE",
"821 631 OFFCURVE",
"707 719 OFFCURVE",
"541 719 CURVE SMOOTH"
);
},
{
closed = 1;
nodes = (
"791 212 OFFCURVE",
"672 37 OFFCURVE",
"450 37 CURVE SMOOTH",
"325 37 OFFCURVE",
"214 146 OFFCURVE",
"208 292 CURVE SMOOTH",
"199 516 OFFCURVE",
"330 670 OFFCURVE",
"547 670 CURVE SMOOTH",
"685 670 OFFCURVE",
"782 566 OFFCURVE",
"785 425 CURVE SMOOTH"
);
}
);
width = 1291;
}
);
note = OE;
unicode = 0152;
},
{
color = 3;
glyphname = Thorn;
lastChange = "2018-02-06 09:44:08 +0000";
layers = (
{
layerId = "0B1DFD06-3317-40CA-B510-4969A0718C16";
paths = (
{
closed = 1;
nodes = (
"289 30 OFFCURVE",
"239 33 OFFCURVE",
"230 56 CURVE",
"226 96 OFFCURVE",
"250 179 OFFCURVE",
"317 461 CURVE SMOOTH",
"326 502 OFFCURVE",
"397 508 OFFCURVE",
"431 508 CURVE SMOOTH",
"531 508 OFFCURVE",
"574 476 OFFCURVE",
"577 381 CURVE SMOOTH",
"583 248 OFFCURVE",
"501 201 OFFCURVE",
"400 201 CURVE SMOOTH",
"368 201 OFFCURVE",
"337 224 OFFCURVE",
"322 234 CURVE",
"319 236 OFFCURVE",
"313 231 OFFCURVE",
"313 227 CURVE SMOOTH",
"313 224 OFFCURVE",
"320 179 OFFCURVE",
"322 179 CURVE",
"343 173 OFFCURVE",
"371 164 OFFCURVE",
"418 164 CURVE SMOOTH",
"627 164 OFFCURVE",
"660 318 OFFCURVE",
"657 380 CURVE SMOOTH",
"653 506 OFFCURVE",
"562 546 OFFCURVE",
"457 546 CURVE SMOOTH",
"408 546 OFFCURVE",
"349 532 OFFCURVE",
"340 532 CURVE SMOOTH",
"337 532 OFFCURVE",
"336 533 OFFCURVE",
"336 536 CURVE",
"336 534 OFFCURVE",
"340 585 OFFCURVE",
"363 668 CURVE",
"371 693 OFFCURVE",
"375 707 OFFCURVE",
"374 708 CURVE",
"372 713 OFFCURVE",
"368 715 OFFCURVE",
"359 715 CURVE",
"257 706 LINE SMOOTH",
"214 702 OFFCURVE",
"177 700 OFFCURVE",
"150 700 CURVE SMOOTH",
"133 700 OFFCURVE",
"139 664 OFFCURVE",
"156 664 CURVE SMOOTH",
"192 664 OFFCURVE",
"267 683 OFFCURVE",
"286 645 CURVE",
"311 657 OFFCURVE",
"140 44 OFFCURVE",
"140 23 CURVE",
"144 7 OFFCURVE",
"156 -2 OFFCURVE",
"177 -4 CURVE",
"199 -7 OFFCURVE",
"231 -6 OFFCURVE",
"318 -6 CURVE SMOOTH",
"327 -6 OFFCURVE",
"324 20 OFFCURVE",
"314 30 CURVE"
);
}
);
width = 745;
}
);
note = Thorn;
unicode = 00DE;
},
{
color = 0;
glyphname = Germandbls;
lastChange = "2017-12-19 05:23:49 +0000";
layers = (
{
layerId = "0B1DFD06-3317-40CA-B510-4969A0718C16";
paths = (
{
closed = 1;
nodes = (
"606 -10 OFFCURVE",
"674 88 OFFCURVE",
"674 203 CURVE SMOOTH",
"674 313 OFFCURVE",
"592 385 OFFCURVE",
"445 398 CURVE",
"591 553 LINE",
"569 627 OFFCURVE",
"489 710 OFFCURVE",
"354 710 CURVE SMOOTH",
"177 710 OFFCURVE",
"92 616 OFFCURVE",
"92 470 CURVE SMOOTH",
"92 62 LINE SMOOTH",
"92 37 OFFCURVE",
"72 26 OFFCURVE",
"33 26 CURVE SMOOTH",
"5 26 LINE",
"5 0 LINE",
"255 0 LINE",
"255 26 LINE",
"227 26 LINE SMOOTH",
"202 26 OFFCURVE",
"188 44 OFFCURVE",
"188 63 CURVE SMOOTH",
"188 495 LINE SMOOTH",
"188 602 OFFCURVE",
"246 668 OFFCURVE",
"347 668 CURVE SMOOTH",
"431 668 OFFCURVE",
"479 617 OFFCURVE",
"499 555 CURVE",
"344 387 LINE",
"344 361 LINE",
"406 361 LINE SMOOTH",
"520 361 OFFCURVE",
"578 296 OFFCURVE",
"578 203 CURVE SMOOTH",
"578 100 OFFCURVE",
"521 29 OFFCURVE",
"419 29 CURVE SMOOTH",
"374 29 OFFCURVE",
"324 37 OFFCURVE",
"277 56 CURVE",
"277 14 LINE",
"318 -2 OFFCURVE",
"367 -10 OFFCURVE",
"423 -10 CURVE SMOOTH"
);
}
);
width = 703;
}
);
note = uni1E9E;
unicode = 1E9E;
},
{
color = 0;
glyphname = Schwa;
lastChange = "2018-02-12 21:30:47 +0000";
layers = (
{
layerId = "0B1DFD06-3317-40CA-B510-4969A0718C16";
paths = (
{
closed = 1;
nodes = (
"405 32 OFFCURVE",
"247 32 CURVE SMOOTH",
"150 32 OFFCURVE",
"120 85 OFFCURVE",
"120 164 CURVE SMOOTH",
"120 274 OFFCURVE",
"227 369 OFFCURVE",
"401 369 CURVE SMOOTH",
"477 369 OFFCURVE",
"546 351 OFFCURVE",
"577 341 CURVE",
"581 381 LINE",
"547 394 OFFCURVE",
"490 414 OFFCURVE",
"405 414 CURVE SMOOTH",
"156 414 OFFCURVE",
"57 273 OFFCURVE",
"57 149 CURVE SMOOTH",
"57 65 OFFCURVE",
"130 -10 OFFCURVE",
"238 -10 CURVE SMOOTH",
"454 -10 OFFCURVE",
"616 206 OFFCURVE",
"616 460 CURVE SMOOTH",
"616 595 OFFCURVE",
"526 682 OFFCURVE",
"392 682 CURVE SMOOTH",
"250 682 OFFCURVE",
"130 609 OFFCURVE",
"130 564 CURVE SMOOTH",
"130 545 OFFCURVE",
"138 529 OFFCURVE",
"153 527 CURVE",
"199 590 OFFCURVE",
"280 640 OFFCURVE",
"377 640 CURVE SMOOTH",
"507 640 OFFCURVE",
"557 552 OFFCURVE",
"557 439 CURVE SMOOTH",
"557 215 OFFCURVE"
);
}
);
width = 692;
}
);
note = uni018F;
unicode = 018F;
},
{
color = 3;
glyphname = Tbar;
lastChange = "2018-02-06 09:44:12 +0000";
layers = (
{
components = (
{
name = T;
}
);
layerId = "0B1DFD06-3317-40CA-B510-4969A0718C16";
paths = (
{
closed = 1;
nodes = (
"520 317 LINE",
"520 363 LINE",
"134 363 LINE",
"134 317 LINE"
);
}
);
width = 652;
}
);
leftKerningGroup = T;
note = Tbar;
rightKerningGroup = T;
unicode = 0166;
},
{
color = 3;
glyphname = Uacute;
lastChange = "2018-02-06 09:44:12 +0000";
layers = (
{
background = {
paths = (
{
closed = 1;
nodes = (
"539 -10 OFFCURVE",
"636 51 OFFCURVE",
"636 204 CURVE SMOOTH",
"636 637 LINE SMOOTH",
"636 662 OFFCURVE",
"660 673 OFFCURVE",
"690 673 CURVE SMOOTH",
"713 673 LINE",
"713 700 LINE",
"510 700 LINE",
"510 673 LINE",
"532 673 LINE SMOOTH",
"564 673 OFFCURVE",
"586 662 OFFCURVE",
"586 637 CURVE SMOOTH",
"586 197 LINE SMOOTH",
"586 65 OFFCURVE",
"489 31 OFFCURVE",
"397 31 CURVE SMOOTH",
"290 31 OFFCURVE",
"203 63 OFFCURVE",
"203 197 CURVE SMOOTH",
"203 637 LINE SMOOTH",
"203 662 OFFCURVE",
"226 673 OFFCURVE",
"257 673 CURVE SMOOTH",
"280 673 LINE",
"280 700 LINE",
"28 700 LINE",
"28 673 LINE",
"51 673 LINE SMOOTH",
"82 673 OFFCURVE",
"105 662 OFFCURVE",
"105 637 CURVE SMOOTH",
"105 204 LINE SMOOTH",
"105 46 OFFCURVE",
"208 -10 OFFCURVE",
"375 -10 CURVE SMOOTH"
);
},
{
closed = 1;
nodes = (
"447 865 LINE SMOOTH",
"469 877 OFFCURVE",
"481 890 OFFCURVE",
"481 907 CURVE SMOOTH",
"481 922 OFFCURVE",
"469 937 OFFCURVE",
"447 937 CURVE SMOOTH",
"426 937 OFFCURVE",
"411 921 OFFCURVE",
"403 914 CURVE SMOOTH",
"288 807 LINE",
"305 782 LINE"
);
}
);
};
components = (
{
name = U;
},
{
name = acute;
transform = "{1, 0, 0, 1, 136, 230}";
}
);
layerId = "0B1DFD06-3317-40CA-B510-4969A0718C16";
width = 742;
}
);
leftKerningGroup = U;
note = Uacute;
rightKerningGroup = U;
unicode = 00DA;
},
{
color = 3;
glyphname = Ubreve;
lastChange = "2018-02-06 09:44:12 +0000";
layers = (
{
background = {
paths = (
{
closed = 1;
nodes = (
"539 -10 OFFCURVE",
"636 51 OFFCURVE",
"636 204 CURVE SMOOTH",
"636 637 LINE SMOOTH",
"636 662 OFFCURVE",
"660 673 OFFCURVE",
"690 673 CURVE SMOOTH",
"713 673 LINE",
"713 700 LINE",
"510 700 LINE",
"510 673 LINE",
"532 673 LINE SMOOTH",
"564 673 OFFCURVE",
"586 662 OFFCURVE",
"586 637 CURVE SMOOTH",
"586 197 LINE SMOOTH",
"586 65 OFFCURVE",
"489 31 OFFCURVE",
"397 31 CURVE SMOOTH",
"290 31 OFFCURVE",
"203 63 OFFCURVE",
"203 197 CURVE SMOOTH",
"203 637 LINE SMOOTH",
"203 662 OFFCURVE",
"226 673 OFFCURVE",
"257 673 CURVE SMOOTH",
"280 673 LINE",
"280 700 LINE",
"28 700 LINE",
"28 673 LINE",
"51 673 LINE SMOOTH",
"82 673 OFFCURVE",
"105 662 OFFCURVE",
"105 637 CURVE SMOOTH",
"105 204 LINE SMOOTH",
"105 46 OFFCURVE",
"208 -10 OFFCURVE",
"375 -10 CURVE SMOOTH"
);
},
{
closed = 1;
nodes = (
"483 774 OFFCURVE",
"525 830 OFFCURVE",
"529 905 CURVE",
"496 905 LINE",
"490 846 OFFCURVE",
"448 820 OFFCURVE",
"384 820 CURVE SMOOTH",
"320 820 OFFCURVE",
"277 846 OFFCURVE",
"270 905 CURVE",
"237 905 LINE",
"241 827 OFFCURVE",
"283 774 OFFCURVE",
"384 774 CURVE SMOOTH"
);
}
);
};
components = (
{
name = U;
},
{
name = breve;
transform = "{1, 0, 0, 1, 148, 230}";
}
);
layerId = "0B1DFD06-3317-40CA-B510-4969A0718C16";
width = 742;
}
);
leftKerningGroup = U;
note = Ubreve;
rightKerningGroup = U;
unicode = 016C;
},
{
color = 3;
glyphname = Ucaron;
lastChange = "2018-02-06 09:44:12 +0000";
layers = (
{
background = {
paths = (
{
closed = 1;
nodes = (
"539 -10 OFFCURVE",
"636 51 OFFCURVE",
"636 204 CURVE SMOOTH",
"636 637 LINE SMOOTH",
"636 662 OFFCURVE",
"660 673 OFFCURVE",
"690 673 CURVE SMOOTH",
"713 673 LINE",
"713 700 LINE",
"510 700 LINE",
"510 673 LINE",
"532 673 LINE SMOOTH",
"564 673 OFFCURVE",
"586 662 OFFCURVE",
"586 637 CURVE SMOOTH",
"586 197 LINE SMOOTH",
"586 65 OFFCURVE",
"489 31 OFFCURVE",
"397 31 CURVE SMOOTH",
"290 31 OFFCURVE",
"203 63 OFFCURVE",
"203 197 CURVE SMOOTH",
"203 637 LINE SMOOTH",
"203 662 OFFCURVE",
"226 673 OFFCURVE",
"257 673 CURVE SMOOTH",
"280 673 LINE",
"280 700 LINE",
"28 700 LINE",
"28 673 LINE",
"51 673 LINE SMOOTH",
"82 673 OFFCURVE",
"105 662 OFFCURVE",
"105 637 CURVE SMOOTH",
"105 204 LINE SMOOTH",
"105 46 OFFCURVE",
"208 -10 OFFCURVE",
"375 -10 CURVE SMOOTH"
);
},
{
closed = 1;
nodes = (
"397 782 LINE",
"521 911 LINE",
"502 932 LINE",
"394 847 LINE",
"386 840 OFFCURVE",
"377 836 OFFCURVE",
"371 836 CURVE SMOOTH",
"365 836 OFFCURVE",
"357 840 OFFCURVE",
"347 847 CURVE",
"239 932 LINE",
"220 911 LINE",
"344 782 LINE"
);
}
);
};
components = (
{
name = U;
},
{
name = caron;
transform = "{1, 0, 0, 1, 148, 230}";
}
);
layerId = "0B1DFD06-3317-40CA-B510-4969A0718C16";
width = 742;
}
);
leftKerningGroup = U;
note = Ucaron;
rightKerningGroup = U;
unicode = 01D3;
},
{
color = 3;
glyphname = Ucircumflex;
lastChange = "2018-02-06 09:44:12 +0000";
layers = (
{
background = {
paths = (
{
closed = 1;
nodes = (
"539 -10 OFFCURVE",
"636 51 OFFCURVE",
"636 204 CURVE SMOOTH",
"636 637 LINE SMOOTH",
"636 662 OFFCURVE",
"660 673 OFFCURVE",
"690 673 CURVE SMOOTH",
"713 673 LINE",
"713 700 LINE",
"510 700 LINE",
"510 673 LINE",
"532 673 LINE SMOOTH",
"564 673 OFFCURVE",
"586 662 OFFCURVE",
"586 637 CURVE SMOOTH",
"586 197 LINE SMOOTH",
"586 65 OFFCURVE",
"489 31 OFFCURVE",
"397 31 CURVE SMOOTH",
"290 31 OFFCURVE",
"203 63 OFFCURVE",
"203 197 CURVE SMOOTH",
"203 637 LINE SMOOTH",
"203 662 OFFCURVE",
"226 673 OFFCURVE",
"257 673 CURVE SMOOTH",
"280 673 LINE",
"280 700 LINE",
"28 700 LINE",
"28 673 LINE",
"51 673 LINE SMOOTH",
"82 673 OFFCURVE",
"105 662 OFFCURVE",
"105 637 CURVE SMOOTH",
"105 204 LINE SMOOTH",
"105 46 OFFCURVE",
"208 -10 OFFCURVE",
"375 -10 CURVE SMOOTH"
);
},
{
closed = 1;
nodes = (
"360 868 LINE SMOOTH",
"368 874 OFFCURVE",
"378 879 OFFCURVE",
"384 879 CURVE SMOOTH",
"390 879 OFFCURVE",
"398 874 OFFCURVE",
"407 868 CURVE",
"515 782 LINE",
"534 803 LINE",
"410 932 LINE",
"357 932 LINE",
"233 803 LINE",
"252 782 LINE"
);
}
);
};
components = (
{
name = U;
},
{
name = circumflex;
transform = "{1, 0, 0, 1, 148, 230}";
}
);
layerId = "0B1DFD06-3317-40CA-B510-4969A0718C16";
width = 742;
}
);
leftKerningGroup = U;
note = Ucircumflex;
rightKerningGroup = U;
unicode = 00DB;
},
{
color = 3;
glyphname = Udieresis;
lastChange = "2018-02-06 09:44:12 +0000";
layers = (
{
background = {
paths = (
{
closed = 1;
nodes = (
"539 -10 OFFCURVE",
"636 51 OFFCURVE",
"636 204 CURVE SMOOTH",
"636 637 LINE SMOOTH",
"636 662 OFFCURVE",
"660 673 OFFCURVE",
"690 673 CURVE SMOOTH",
"713 673 LINE",
"713 700 LINE",
"510 700 LINE",
"510 673 LINE",
"532 673 LINE SMOOTH",
"564 673 OFFCURVE",
"586 662 OFFCURVE",
"586 637 CURVE SMOOTH",
"586 197 LINE SMOOTH",
"586 65 OFFCURVE",
"489 31 OFFCURVE",
"397 31 CURVE SMOOTH",
"290 31 OFFCURVE",
"203 63 OFFCURVE",
"203 197 CURVE SMOOTH",
"203 637 LINE SMOOTH",
"203 662 OFFCURVE",
"226 673 OFFCURVE",
"257 673 CURVE SMOOTH",
"280 673 LINE",
"280 700 LINE",
"28 700 LINE",
"28 673 LINE",
"51 673 LINE SMOOTH",
"82 673 OFFCURVE",
"105 662 OFFCURVE",
"105 637 CURVE SMOOTH",
"105 204 LINE SMOOTH",
"105 46 OFFCURVE",
"208 -10 OFFCURVE",
"375 -10 CURVE SMOOTH"
);
},
{
closed = 1;
nodes = (
"304 781 OFFCURVE",
"322 800 OFFCURVE",
"322 827 CURVE SMOOTH",
"322 855 OFFCURVE",
"304 875 OFFCURVE",
"275 875 CURVE SMOOTH",
"247 875 OFFCURVE",
"229 855 OFFCURVE",
"229 827 CURVE SMOOTH",
"229 800 OFFCURVE",
"247 781 OFFCURVE",
"275 781 CURVE SMOOTH"
);
},
{
closed = 1;
nodes = (
"520 781 OFFCURVE",
"538 800 OFFCURVE",
"538 827 CURVE SMOOTH",
"538 855 OFFCURVE",
"520 875 OFFCURVE",
"491 875 CURVE SMOOTH",
"462 875 OFFCURVE",
"444 855 OFFCURVE",
"444 827 CURVE SMOOTH",
"444 800 OFFCURVE",
"462 781 OFFCURVE",
"491 781 CURVE SMOOTH"
);
}
);
};
components = (
{
name = U;
},
{
name = dieresis;
transform = "{1, 0, 0, 1, 148, 230}";
}
);
layerId = "0B1DFD06-3317-40CA-B510-4969A0718C16";
width = 742;
}
);
leftKerningGroup = U;
note = Udieresis;
rightKerningGroup = U;
unicode = 00DC;
},
{
color = 3;
glyphname = Udieresisacute;
lastChange = "2018-02-06 09:44:12 +0000";
layers = (
{
background = {
paths = (
{
closed = 1;
nodes = (
"539 -10 OFFCURVE",
"636 51 OFFCURVE",
"636 204 CURVE SMOOTH",
"636 637 LINE SMOOTH",
"636 662 OFFCURVE",
"660 673 OFFCURVE",
"690 673 CURVE SMOOTH",
"713 673 LINE",
"713 700 LINE",
"510 700 LINE",
"510 673 LINE",
"532 673 LINE SMOOTH",
"564 673 OFFCURVE",
"586 662 OFFCURVE",
"586 637 CURVE SMOOTH",
"586 197 LINE SMOOTH",
"586 65 OFFCURVE",
"489 31 OFFCURVE",
"397 31 CURVE SMOOTH",
"290 31 OFFCURVE",
"203 63 OFFCURVE",
"203 197 CURVE SMOOTH",
"203 637 LINE SMOOTH",
"203 662 OFFCURVE",
"226 673 OFFCURVE",
"257 673 CURVE SMOOTH",
"280 673 LINE",
"280 700 LINE",
"28 700 LINE",
"28 673 LINE",
"51 673 LINE SMOOTH",
"82 673 OFFCURVE",
"105 662 OFFCURVE",
"105 637 CURVE SMOOTH",
"105 204 LINE SMOOTH",
"105 46 OFFCURVE",
"208 -10 OFFCURVE",
"375 -10 CURVE SMOOTH"
);
},
{
closed = 1;
nodes = (
"291 780 OFFCURVE",
"310 799 OFFCURVE",
"310 827 CURVE SMOOTH",
"310 855 OFFCURVE",
"291 875 OFFCURVE",
"262 875 CURVE SMOOTH",
"235 875 OFFCURVE",
"216 855 OFFCURVE",
"216 827 CURVE SMOOTH",
"216 799 OFFCURVE",
"235 780 OFFCURVE",
"262 780 CURVE SMOOTH"
);
},
{
closed = 1;
nodes = (
"507 780 OFFCURVE",
"526 799 OFFCURVE",
"526 827 CURVE SMOOTH",
"526 855 OFFCURVE",
"507 875 OFFCURVE",
"479 875 CURVE SMOOTH",
"451 875 OFFCURVE",
"432 855 OFFCURVE",
"432 827 CURVE SMOOTH",
"432 799 OFFCURVE",
"451 780 OFFCURVE",
"479 780 CURVE SMOOTH"
);
},
{
closed = 1;
nodes = (
"481 969 LINE SMOOTH",
"502 981 OFFCURVE",
"512 993 OFFCURVE",
"512 1009 CURVE SMOOTH",
"512 1024 OFFCURVE",
"503 1037 OFFCURVE",
"481 1037 CURVE SMOOTH",
"460 1037 OFFCURVE",
"442 1020 OFFCURVE",
"435 1013 CURVE SMOOTH",
"344 924 LINE",
"362 899 LINE"
);
}
);
};
components = (
{
name = U;
},
{
name = dieresisacute;
transform = "{1, 0, 0, 1, 149, 230}";
}
);
layerId = "0B1DFD06-3317-40CA-B510-4969A0718C16";
width = 742;
}
);
leftKerningGroup = U;
note = Udieresisacute;
rightKerningGroup = U;
unicode = 01D7;
},
{
color = 3;
glyphname = Udieresiscaron;
lastChange = "2018-02-06 09:44:12 +0000";
layers = (
{
background = {
paths = (
{
closed = 1;
nodes = (
"539 -10 OFFCURVE",
"636 51 OFFCURVE",
"636 204 CURVE SMOOTH",
"636 637 LINE SMOOTH",
"636 662 OFFCURVE",
"660 673 OFFCURVE",
"690 673 CURVE SMOOTH",
"713 673 LINE",
"713 700 LINE",
"510 700 LINE",
"510 673 LINE",
"532 673 LINE SMOOTH",
"564 673 OFFCURVE",
"586 662 OFFCURVE",
"586 637 CURVE SMOOTH",
"586 197 LINE SMOOTH",
"586 65 OFFCURVE",
"489 31 OFFCURVE",
"397 31 CURVE SMOOTH",
"290 31 OFFCURVE",
"203 63 OFFCURVE",
"203 197 CURVE SMOOTH",
"203 637 LINE SMOOTH",
"203 662 OFFCURVE",
"226 673 OFFCURVE",
"257 673 CURVE SMOOTH",
"280 673 LINE",
"280 700 LINE",
"28 700 LINE",
"28 673 LINE",
"51 673 LINE SMOOTH",
"82 673 OFFCURVE",
"105 662 OFFCURVE",
"105 637 CURVE SMOOTH",
"105 204 LINE SMOOTH",
"105 46 OFFCURVE",
"208 -10 OFFCURVE",
"375 -10 CURVE SMOOTH"
);
},
{
closed = 1;
nodes = (
"296 780 OFFCURVE",
"315 799 OFFCURVE",
"315 827 CURVE SMOOTH",
"315 855 OFFCURVE",
"296 875 OFFCURVE",
"267 875 CURVE SMOOTH",
"240 875 OFFCURVE",
"221 855 OFFCURVE",
"221 827 CURVE SMOOTH",
"221 799 OFFCURVE",
"240 780 OFFCURVE",
"267 780 CURVE SMOOTH"
);
},
{
closed = 1;
nodes = (
"512 780 OFFCURVE",
"531 799 OFFCURVE",
"531 827 CURVE SMOOTH",
"531 855 OFFCURVE",
"512 875 OFFCURVE",
"484 875 CURVE SMOOTH",
"456 875 OFFCURVE",
"437 855 OFFCURVE",
"437 827 CURVE SMOOTH",
"437 799 OFFCURVE",
"456 780 OFFCURVE",
"484 780 CURVE SMOOTH"
);
},
{
closed = 1;
nodes = (
"401 911 LINE",
"523 1035 LINE",
"505 1056 LINE",
"404 978 LINE",
"394 971 OFFCURVE",
"385 963 OFFCURVE",
"376 963 CURVE SMOOTH",
"369 963 OFFCURVE",
"357 971 OFFCURVE",
"347 978 CURVE",
"246 1056 LINE",
"228 1035 LINE",
"350 911 LINE"
);
}
);
};
components = (
{
name = U;
},
{
name = dieresiscaron;
transform = "{1, 0, 0, 1, 149, 230}";
}
);
layerId = "0B1DFD06-3317-40CA-B510-4969A0718C16";
width = 742;
}
);
leftKerningGroup = U;
note = Udieresiscaron;
rightKerningGroup = U;
unicode = 01D9;
},
{
color = 3;
glyphname = Udieresisgrave;
lastChange = "2018-02-06 09:44:12 +0000";
layers = (
{
background = {
paths = (
{
closed = 1;
nodes = (
"539 -10 OFFCURVE",
"636 51 OFFCURVE",
"636 204 CURVE SMOOTH",
"636 637 LINE SMOOTH",
"636 662 OFFCURVE",
"660 673 OFFCURVE",
"690 673 CURVE SMOOTH",
"713 673 LINE",
"713 700 LINE",
"510 700 LINE",
"510 673 LINE",
"532 673 LINE SMOOTH",
"564 673 OFFCURVE",
"586 662 OFFCURVE",
"586 637 CURVE SMOOTH",
"586 197 LINE SMOOTH",
"586 65 OFFCURVE",
"489 31 OFFCURVE",
"397 31 CURVE SMOOTH",
"290 31 OFFCURVE",
"203 63 OFFCURVE",
"203 197 CURVE SMOOTH",
"203 637 LINE SMOOTH",
"203 662 OFFCURVE",
"226 673 OFFCURVE",
"257 673 CURVE SMOOTH",
"280 673 LINE",
"280 700 LINE",
"28 700 LINE",
"28 673 LINE",
"51 673 LINE SMOOTH",
"82 673 OFFCURVE",
"105 662 OFFCURVE",
"105 637 CURVE SMOOTH",
"105 204 LINE SMOOTH",
"105 46 OFFCURVE",
"208 -10 OFFCURVE",
"375 -10 CURVE SMOOTH"
);
},
{
closed = 1;
nodes = (
"296 780 OFFCURVE",
"315 799 OFFCURVE",
"315 827 CURVE SMOOTH",
"315 855 OFFCURVE",
"296 875 OFFCURVE",
"267 875 CURVE SMOOTH",
"240 875 OFFCURVE",
"221 855 OFFCURVE",
"221 827 CURVE SMOOTH",
"221 799 OFFCURVE",
"240 780 OFFCURVE",
"267 780 CURVE SMOOTH"
);
},
{
closed = 1;
nodes = (
"403 924 LINE",
"312 1013 LINE SMOOTH",
"305 1020 OFFCURVE",
"288 1036 OFFCURVE",
"267 1036 CURVE SMOOTH",
"245 1036 OFFCURVE",
"235 1024 OFFCURVE",
"235 1009 CURVE SMOOTH",
"235 993 OFFCURVE",
"245 981 OFFCURVE",
"266 969 CURVE SMOOTH",
"385 899 LINE"
);
},
{
closed = 1;
nodes = (
"512 780 OFFCURVE",
"531 799 OFFCURVE",
"531 827 CURVE SMOOTH",
"531 855 OFFCURVE",
"512 875 OFFCURVE",
"484 875 CURVE SMOOTH",
"456 875 OFFCURVE",
"437 855 OFFCURVE",
"437 827 CURVE SMOOTH",
"437 799 OFFCURVE",
"456 780 OFFCURVE",
"484 780 CURVE SMOOTH"
);
}
);
};
components = (
{
name = U;
},
{
name = dieresisgrave;
transform = "{1, 0, 0, 1, 149, 230}";
}
);
layerId = "0B1DFD06-3317-40CA-B510-4969A0718C16";
width = 742;
}
);
leftKerningGroup = U;
note = Udieresisgrave;
rightKerningGroup = U;
unicode = 01DB;
},
{
color = 3;
glyphname = Udieresismacron;
lastChange = "2018-02-10 06:42:44 +0000";
layers = (
{
background = {
paths = (
{
closed = 1;
nodes = (
"539 -10 OFFCURVE",
"636 51 OFFCURVE",
"636 204 CURVE SMOOTH",
"636 637 LINE SMOOTH",
"636 662 OFFCURVE",
"660 673 OFFCURVE",
"690 673 CURVE SMOOTH",
"713 673 LINE",
"713 700 LINE",
"510 700 LINE",
"510 673 LINE",
"532 673 LINE SMOOTH",
"564 673 OFFCURVE",
"586 662 OFFCURVE",
"586 637 CURVE SMOOTH",
"586 197 LINE SMOOTH",
"586 65 OFFCURVE",
"489 31 OFFCURVE",
"397 31 CURVE SMOOTH",
"290 31 OFFCURVE",
"203 63 OFFCURVE",
"203 197 CURVE SMOOTH",
"203 637 LINE SMOOTH",
"203 662 OFFCURVE",
"226 673 OFFCURVE",
"257 673 CURVE SMOOTH",
"280 673 LINE",
"280 700 LINE",
"28 700 LINE",
"28 673 LINE",
"51 673 LINE SMOOTH",
"82 673 OFFCURVE",
"105 662 OFFCURVE",
"105 637 CURVE SMOOTH",
"105 204 LINE SMOOTH",
"105 46 OFFCURVE",
"208 -10 OFFCURVE",
"375 -10 CURVE SMOOTH"
);
},
{
closed = 1;
nodes = (
"291 781 OFFCURVE",
"309 800 OFFCURVE",
"309 827 CURVE SMOOTH",
"309 855 OFFCURVE",
"291 875 OFFCURVE",
"262 875 CURVE SMOOTH",
"234 875 OFFCURVE",
"216 855 OFFCURVE",
"216 827 CURVE SMOOTH",
"216 800 OFFCURVE",
"234 781 OFFCURVE",
"262 781 CURVE SMOOTH"
);
},
{
closed = 1;
nodes = (
"507 781 OFFCURVE",
"525 800 OFFCURVE",
"525 827 CURVE SMOOTH",
"525 855 OFFCURVE",
"507 875 OFFCURVE",
"478 875 CURVE SMOOTH",
"449 875 OFFCURVE",
"431 855 OFFCURVE",
"431 827 CURVE SMOOTH",
"431 800 OFFCURVE",
"449 781 OFFCURVE",
"478 781 CURVE SMOOTH"
);
},
{
closed = 1;
nodes = (
"537 928 LINE",
"537 970 LINE",
"204 970 LINE",
"204 928 LINE"
);
}
);
};
components = (
{
name = U;
},
{
name = dieresis;
transform = "{1, 0, 0, 1, 495, 230}";
},
{
alignment = -1;
name = macron;
transform = "{1, 0, 0, 1, 477, 356}";
}
);
layerId = "0B1DFD06-3317-40CA-B510-4969A0718C16";
width = 742;
}
);
leftKerningGroup = U;
note = Udieresismacron;
rightKerningGroup = U;
unicode = 01D5;
},
{
color = 3;
glyphname = Uhorn;
lastChange = "2018-02-06 09:44:12 +0000";
layers = (
{
layerId = "0B1DFD06-3317-40CA-B510-4969A0718C16";
paths = (
{
closed = 1;
nodes = (
"969 682 OFFCURVE",
"971 685 OFFCURVE",
"971 694 CURVE SMOOTH",
"971 704 OFFCURVE",
"966 720 OFFCURVE",
"958 720 CURVE SMOOTH",
"945 720 OFFCURVE",
"896 700 OFFCURVE",
"878 696 CURVE",
"853 683 OFFCURVE",
"844 670 OFFCURVE",
"835 646 CURVE SMOOTH",
"764 438 OFFCURVE",
"596 40 OFFCURVE",
"372 40 CURVE SMOOTH",
"264 40 OFFCURVE",
"226 83 OFFCURVE",
"223 169 CURVE SMOOTH",
"218 259 OFFCURVE",
"342 526 OFFCURVE",
"393 633 CURVE SMOOTH",
"403 656 OFFCURVE",
"428 653 OFFCURVE",
"446 658 CURVE",
"452 659 OFFCURVE",
"458 658 OFFCURVE",
"459 668 CURVE",
"459 671 OFFCURVE",
"456 706 OFFCURVE",
"451 706 CURVE SMOOTH",
"445 706 OFFCURVE",
"347 697 OFFCURVE",
"194 697 CURVE SMOOTH",
"186 697 OFFCURVE",
"182 687 OFFCURVE",
"183 676 CURVE",
"183 662 OFFCURVE",
"190 646 OFFCURVE",
"200 646 CURVE SMOOTH",
"290 646 LINE SMOOTH",
"308 646 OFFCURVE",
"318 640 OFFCURVE",
"318 627 CURVE SMOOTH",
"318 624 OFFCURVE",
"317 618 OFFCURVE",
"317 613 CURVE",
"290 501 OFFCURVE",
"150 281 OFFCURVE",
"154 148 CURVE SMOOTH",
"159 33 OFFCURVE",
"243 -18 OFFCURVE",
"336 -18 CURVE SMOOTH",
"486 -18 OFFCURVE",
"574 31 OFFCURVE",
"689 203 CURVE",
"690 203 OFFCURVE",
"693 202 OFFCURVE",
"695 200 CURVE",
"695 196 OFFCURVE",
"671 133 OFFCURVE",
"671 80 CURVE",
"675 31 OFFCURVE",
"699 -25 OFFCURVE",
"800 -25 CURVE SMOOTH",
"868 -25 OFFCURVE",
"915 -1 OFFCURVE",
"971 27 CURVE",
"975 29 OFFCURVE",
"975 32 OFFCURVE",
"973 36 CURVE",
"973 49 OFFCURVE",
"960 73 OFFCURVE",
"951 73 CURVE SMOOTH",
"947 73 OFFCURVE",
"883 29 OFFCURVE",
"828 29 CURVE SMOOTH",
"765 29 OFFCURVE",
"738 43 OFFCURVE",
"734 104 CURVE",
"731 261 OFFCURVE",
"832 520 OFFCURVE",
"927 663 CURVE SMOOTH",
"935 676 OFFCURVE",
"957 681 OFFCURVE",
"965 682 CURVE"
);
},
{
closed = 1;
nodes = (
"803 534 LINE",
"797 483 OFFCURVE",
"829 437 OFFCURVE",
"872 427 CURVE SMOOTH",
"964 405 OFFCURVE",
"1004 493 OFFCURVE",
"1004 532 CURVE",
"1003 547 OFFCURVE",
"1002 569 OFFCURVE",
"994 582 CURVE",
"990 585 OFFCURVE",
"971 593 OFFCURVE",
"958 584 CURVE",
"963 575 OFFCURVE",
"965 565 OFFCURVE",
"965 557 CURVE SMOOTH",
"965 512 OFFCURVE",
"938 468 OFFCURVE",
"888 481 CURVE SMOOTH",
"837 494 OFFCURVE",
"819 530 OFFCURVE",
"823 550 CURVE"
);
}
);
width = 956;
}
);
note = Uhorn;
unicode = 01AF;
},
{
glyphname = A.001;
lastChange = "2018-02-12 18:09:06 +0000";
layers = (
{
layerId = "0B1DFD06-3317-40CA-B510-4969A0718C16";
paths = (
{
closed = 1;
nodes = (
"323 -15 OFFCURVE",
"401 85 OFFCURVE",
"521 257 CURVE SMOOTH",
"528 266 OFFCURVE",
"658 459 OFFCURVE",
"727 555 CURVE SMOOTH",
"732 562 OFFCURVE",
"737 562 OFFCURVE",
"737 557 CURVE SMOOTH",
"737 530 OFFCURVE",
"722 362 OFFCURVE",
"719 286 CURVE",
"708 286 OFFCURVE",
"650 283 OFFCURVE",
"592 283 CURVE SMOOTH",
"568 283 OFFCURVE",
"546 284 OFFCURVE",
"528 285 CURVE SMOOTH",
"498 287 OFFCURVE",
"443 291 OFFCURVE",
"419 301 CURVE",
"413 296 OFFCURVE",
"402 280 OFFCURVE",
"402 265 CURVE SMOOTH",
"402 251 OFFCURVE",
"427 245 OFFCURVE",
"487 245 CURVE SMOOTH",
"562 245 OFFCURVE",
"661 246 OFFCURVE",
"685 246 CURVE SMOOTH",
"710 246 OFFCURVE",
"721 240 OFFCURVE",
"721 212 CURVE SMOOTH",
"721 137 OFFCURVE",
"733 101 OFFCURVE",
"748 57 CURVE SMOOTH",
"761 20 OFFCURVE",
"789 -6 OFFCURVE",
"819 -6 CURVE SMOOTH",
"859 -6 OFFCURVE",
"918 38 OFFCURVE",
"940 67 CURVE SMOOTH",
"950 79 OFFCURVE",
"952 100 OFFCURVE",
"946 114 CURVE",
"914 79 OFFCURVE",
"876 52 OFFCURVE",
"848 52 CURVE SMOOTH",
"826 52 OFFCURVE",
"798 75 OFFCURVE",
"789 117 CURVE SMOOTH",
"776 170 OFFCURVE",
"770 254 OFFCURVE",
"770 352 CURVE SMOOTH",
"770 430 OFFCURVE",
"774 517 OFFCURVE",
"782 607 CURVE SMOOTH",
"785 655 OFFCURVE",
"787 689 OFFCURVE",
"819 689 CURVE SMOOTH",
"836 689 OFFCURVE",
"854 679 OFFCURVE",
"864 670 CURVE",
"872 688 OFFCURVE",
"889 699 OFFCURVE",
"889 707 CURVE SMOOTH",
"889 727 OFFCURVE",
"857 745 OFFCURVE",
"823 745 CURVE SMOOTH",
"794 745 OFFCURVE",
"774 712 OFFCURVE",
"753 683 CURVE SMOOTH",
"738 660 OFFCURVE",
"711 655 OFFCURVE",
"687 655 CURVE SMOOTH",
"587 655 OFFCURVE",
"482 731 OFFCURVE",
"368 731 CURVE SMOOTH",
"243 731 OFFCURVE",
"179 665 OFFCURVE",
"179 569 CURVE SMOOTH",
"179 537 OFFCURVE",
"186 508 OFFCURVE",
"194 491 CURVE SMOOTH",
"200 478 OFFCURVE",
"214 472 OFFCURVE",
"227 475 CURVE",
"222 491 OFFCURVE",
"218 517 OFFCURVE",
"218 539 CURVE SMOOTH",
"218 647 OFFCURVE",
"271 679 OFFCURVE",
"356 679 CURVE SMOOTH",
"440 679 OFFCURVE",
"549 611 OFFCURVE",
"645 611 CURVE SMOOTH",
"696 611 OFFCURVE",
"741 630 OFFCURVE",
"755 638 CURVE",
"754 651 LINE",
"679 544 OFFCURVE",
"582 404 OFFCURVE",
"471 259 CURVE SMOOTH",
"350 100 OFFCURVE",
"271 36 OFFCURVE",
"138 36 CURVE SMOOTH",
"51 36 OFFCURVE",
"-2 94 OFFCURVE",
"-2 189 CURVE SMOOTH",
"-2 251 OFFCURVE",
"18 302 OFFCURVE",
"52 347 CURVE",
"47 356 OFFCURVE",
"26 356 OFFCURVE",
"11 344 CURVE SMOOTH",
"-29 312 OFFCURVE",
"-63 254 OFFCURVE",
"-63 191 CURVE SMOOTH",
"-63 87 OFFCURVE",
"7 -15 OFFCURVE",
"143 -15 CURVE SMOOTH"
);
}
);
width = 964;
}
);
note = A;
},
{
color = 0;
glyphname = "alpha-latin";
lastChange = "2017-12-19 05:24:05 +0000";
layers = (
{
layerId = "0B1DFD06-3317-40CA-B510-4969A0718C16";
paths = (
{
closed = 1;
nodes = (
"304 -10 OFFCURVE",
"357 10 OFFCURVE",
"393 69 CURVE",
"393 37 LINE SMOOTH",
"393 0 OFFCURVE",
"429 -10 OFFCURVE",
"461 -10 CURVE SMOOTH",
"491 -10 OFFCURVE",
"523 -1 OFFCURVE",
"545 17 CURVE",
"545 34 LINE",
"531 29 OFFCURVE",
"519 26 OFFCURVE",
"510 26 CURVE SMOOTH",
"494 26 OFFCURVE",
"486 36 OFFCURVE",
"486 58 CURVE SMOOTH",
"486 403 LINE",
"452 444 OFFCURVE",
"374 480 OFFCURVE",
"279 480 CURVE SMOOTH",
"141 480 OFFCURVE",
"26 405 OFFCURVE",
"26 215 CURVE SMOOTH",
"26 67 OFFCURVE",
"96 -10 OFFCURVE",
"234 -10 CURVE SMOOTH"
);
},
{
closed = 1;
nodes = (
"152 28 OFFCURVE",
"119 116 OFFCURVE",
"119 222 CURVE SMOOTH",
"119 370 OFFCURVE",
"183 441 OFFCURVE",
"279 441 CURVE SMOOTH",
"330 441 OFFCURVE",
"368 421 OFFCURVE",
"392 398 CURVE",
"392 169 LINE SMOOTH",
"392 98 OFFCURVE",
"346 28 OFFCURVE",
"255 28 CURVE SMOOTH"
);
}
);
width = 558;
}
);
leftKerningGroup = a;
note = ascript;
rightKerningGroup = a;
unicode = 0251;
},
{
color = 3;
glyphname = ae;
lastChange = "2018-02-06 09:44:18 +0000";
layers = (
{
layerId = "0B1DFD06-3317-40CA-B510-4969A0718C16";
paths = (
{
closed = 1;
nodes = (
"465 198 OFFCURVE",
"563 263 OFFCURVE",
"559 331 CURVE SMOOTH",
"556 375 OFFCURVE",
"533 393 OFFCURVE",
"496 393 CURVE SMOOTH",
"450 393 OFFCURVE",
"406 367 OFFCURVE",
"364 325 CURVE",
"383 371 OFFCURVE",
"405 428 OFFCURVE",
"414 441 CURVE",
"411 443 LINE",
"364 428 LINE",
"355 424 OFFCURVE",
"347 420 OFFCURVE",
"343 396 CURVE",
"152 396 OFFCURVE",
"21 253 OFFCURVE",
"27 88 CURVE",
"27 49 OFFCURVE",
"71 -6 OFFCURVE",
"102 -6 CURVE SMOOTH",
"163 -6 OFFCURVE",
"218 37 OFFCURVE",
"261 113 CURVE",
"261 102 LINE",
"264 31 OFFCURVE",
"314 -13 OFFCURVE",
"370 -13 CURVE SMOOTH",
"507 -13 OFFCURVE",
"627 112 OFFCURVE",
"684 213 CURVE",
"683 219 OFFCURVE",
"660 234 OFFCURVE",
"656 230 CURVE",
"614 150 OFFCURVE",
"505 37 OFFCURVE",
"397 37 CURVE SMOOTH",
"342 37 OFFCURVE",
"322 56 OFFCURVE",
"319 114 CURVE SMOOTH",
"318 154 OFFCURVE",
"327 180 OFFCURVE",
"332 198 CURVE"
);
},
{
closed = 1;
nodes = (
"331 359 LINE",
"308 311 OFFCURVE",
"295 258 OFFCURVE",
"273 201 CURVE",
"225 101 OFFCURVE",
"154 39 OFFCURVE",
"119 39 CURVE SMOOTH",
"105 39 OFFCURVE",
"94 67 OFFCURVE",
"93 100 CURVE SMOOTH",
"89 205 OFFCURVE",
"175 362 OFFCURVE",
"330 362 CURVE"
);
},
{
closed = 1;
nodes = (
"380 305 OFFCURVE",
"434 351 OFFCURVE",
"482 351 CURVE SMOOTH",
"506 351 OFFCURVE",
"512 338 OFFCURVE",
"512 322 CURVE SMOOTH",
"512 274 OFFCURVE",
"439 239 OFFCURVE",
"389 239 CURVE SMOOTH",
"381 239 OFFCURVE",
"367 242 OFFCURVE",
"361 243 CURVE"
);
}
);
width = 509;
}
);
note = ae;
unicode = 00E6;
},
{
color = 3;
glyphname = eth;
lastChange = "2018-02-12 20:16:49 +0000";
layers = (
{
components = (
{
name = d;
}
);
layerId = "0B1DFD06-3317-40CA-B510-4969A0718C16";
paths = (
{
closed = 1;
nodes = (
"49 674 OFFCURVE",
"87 691 OFFCURVE",
"163 715 CURVE SMOOTH",
"283 753 OFFCURVE",
"337 771 OFFCURVE",
"372 771 CURVE SMOOTH",
"374 771 OFFCURVE",
"375 773 OFFCURVE",
"375 777 CURVE SMOOTH",
"374 786 OFFCURVE",
"367 806 OFFCURVE",
"355 806 CURVE",
"284 786 OFFCURVE",
"219 767 OFFCURVE",
"149 745 CURVE SMOOTH",
"60 717 OFFCURVE",
"36 706 OFFCURVE",
"17 706 CURVE",
"13 702 LINE",
"13 697 OFFCURVE",
"29 671 OFFCURVE",
"44 671 CURVE"
);
}
);
width = 415;
}
);
note = eth;
rightMetricsKey = d;
unicode = 00F0;
},
{
color = 0;
glyphname = schwa;
lastChange = "2018-02-12 19:40:21 +0000";
layers = (
{
layerId = "0B1DFD06-3317-40CA-B510-4969A0718C16";
paths = (
{
closed = 1;
nodes = (
"310 226 LINE",
"291 234 OFFCURVE",
"262 245 OFFCURVE",
"220 245 CURVE SMOOTH",
"70 245 OFFCURVE",
"1 149 OFFCURVE",
"5 86 CURVE SMOOTH",
"8 33 OFFCURVE",
"46 -9 OFFCURVE",
"110 -9 CURVE SMOOTH",
"240 -9 OFFCURVE",
"344 121 OFFCURVE",
"344 275 CURVE SMOOTH",
"344 356 OFFCURVE",
"290 409 OFFCURVE",
"209 409 CURVE SMOOTH",
"123 409 OFFCURVE",
"50 353 OFFCURVE",
"50 307 CURVE SMOOTH",
"50 296 OFFCURVE",
"55 286 OFFCURVE",
"64 285 CURVE",
"92 329 OFFCURVE",
"129 362 OFFCURVE",
"188 362 CURVE SMOOTH",
"260 362 OFFCURVE",
"284 330 OFFCURVE",
"284 262 CURVE SMOOTH",
"284 147 OFFCURVE",
"210 35 OFFCURVE",
"121 35 CURVE SMOOTH",
"76 35 OFFCURVE",
"55 58 OFFCURVE",
"55 95 CURVE SMOOTH",
"55 150 OFFCURVE",
"125 209 OFFCURVE",
"230 209 CURVE SMOOTH",
"272 209 OFFCURVE",
"293 202 OFFCURVE",
"310 196 CURVE"
);
}
);
width = 368;
}
);
note = schwa;
unicode = 0259;
},
{
color = 3;
glyphname = idotless;
lastChange = "2018-02-06 09:44:37 +0000";
layers = (
{
layerId = "0B1DFD06-3317-40CA-B510-4969A0718C16";
paths = (
{
closed = 1;
nodes = (
"450 245 OFFCURVE",
"421 256 OFFCURVE",
"414 243 CURVE SMOOTH",
"375 171 OFFCURVE",
"281 49 OFFCURVE",
"189 49 CURVE SMOOTH",
"162 49 OFFCURVE",
"145 63 OFFCURVE",
"139 90 CURVE",
"126 138 OFFCURVE",
"157 248 OFFCURVE",
"218 356 CURVE SMOOTH",
"223 364 OFFCURVE",
"209 382 OFFCURVE",
"200 382 CURVE SMOOTH",
"190 382 OFFCURVE",
"157 368 OFFCURVE",
"146 349 CURVE",
"120 294 OFFCURVE",
"54 124 OFFCURVE",
"67 61 CURVE SMOOTH",
"76 8 OFFCURVE",
"129 0 OFFCURVE",
"161 0 CURVE SMOOTH",
"205 0 OFFCURVE",
"246 17 OFFCURVE",
"288 49 CURVE",
"344 88 OFFCURVE",
"407 158 OFFCURVE",
"446 234 CURVE"
);
}
);
width = 324;
}
);
note = dotlessi;
unicode = 0131;
},
{
color = 3;
glyphname = jdotless;
lastChange = "2018-02-12 20:18:06 +0000";
layers = (
{
anchors = (
{
name = bottom;
position = "{151, 0}";
},
{
name = top;
position = "{201, 470}";
}
);
layerId = "0B1DFD06-3317-40CA-B510-4969A0718C16";
paths = (
{
closed = 1;
nodes = (
"39 359 OFFCURVE",
"39 317 OFFCURVE",
"48 317 CURVE SMOOTH",
"71 317 OFFCURVE",
"114 328 OFFCURVE",
"118 328 CURVE SMOOTH",
"127 328 OFFCURVE",
"133 324 OFFCURVE",
"136 313 CURVE",
"136 308 OFFCURVE",
"136 301 OFFCURVE",
"134 288 CURVE",
"74 58 OFFCURVE",
"32 -92 OFFCURVE",
"-25 -275 CURVE SMOOTH",
"-73 -413 OFFCURVE",
"-120 -378 OFFCURVE",
"-177 -491 CURVE",
"-181 -497 OFFCURVE",
"-181 -506 OFFCURVE",
"-179 -518 CURVE",
"-174 -531 OFFCURVE",
"-164 -560 OFFCURVE",
"-151 -560 CURVE SMOOTH",
"-146 -560 OFFCURVE",
"-143 -559 OFFCURVE",
"-140 -557 CURVE",
"-92 -499 OFFCURVE",
"-63 -446 OFFCURVE",
"-45 -414 CURVE SMOOTH",
"117 -129 OFFCURVE",
"405 -46 OFFCURVE",
"395 196 CURVE",
"392 242 OFFCURVE",
"358 290 OFFCURVE",
"307 300 CURVE",
"315 282 OFFCURVE",
"334 261 OFFCURVE",
"336 205 CURVE SMOOTH",
"345 4 OFFCURVE",
"89 -152 OFFCURVE",
"4 -290 CURVE",
"89 -35 OFFCURVE",
"138 106 OFFCURVE",
"214 352 CURVE",
"217 363 OFFCURVE",
"217 371 OFFCURVE",
"215 377 CURVE",
"212 390 OFFCURVE",
"205 396 OFFCURVE",
"193 396 CURVE SMOOTH",
"171 396 OFFCURVE",
"151 378 OFFCURVE",
"50 359 CURVE"
);
}
);
width = 302;
}
);
leftKerningGroup = j;
note = dotlessj;
unicode = 0237;
},
{
color = 3;
glyphname = kgreenlandic;
lastChange = "2018-02-06 09:44:37 +0000";
layers = (
{
layerId = "0B1DFD06-3317-40CA-B510-4969A0718C16";
paths = (
{
closed = 1;
nodes = (
"136 72 OFFCURVE",
"338 309 OFFCURVE",
"415 365 CURVE SMOOTH",
"426 373 OFFCURVE",
"432 373 OFFCURVE",
"428 382 CURVE SMOOTH",
"420 401 OFFCURVE",
"405 420 OFFCURVE",
"399 420 CURVE SMOOTH",
"377 420 OFFCURVE",
"170 183 OFFCURVE",
"86 74 CURVE",
"95 66 LINE",
"148 216 OFFCURVE",
"201 353 OFFCURVE",
"242 474 CURVE SMOOTH",
"262 533 OFFCURVE",
"228 525 OFFCURVE",
"198 525 CURVE",
"116 258 OFFCURVE",
"65 116 OFFCURVE",
"37 48 CURVE",
"36 45 OFFCURVE",
"35 39 OFFCURVE",
"36 36 CURVE",
"44 8 OFFCURVE",
"61 -13 OFFCURVE",
"72 -13 CURVE SMOOTH",
"77 -13 OFFCURVE",
"81 -10 OFFCURVE",
"85 -4 CURVE SMOOTH"
);
},
{
closed = 1;
nodes = (
"267 277 OFFCURVE",
"260 306 OFFCURVE",
"255 306 CURVE",
"246 302 OFFCURVE",
"240 302 OFFCURVE",
"227 294 CURVE SMOOTH",
"214 286 OFFCURVE",
"210 276 OFFCURVE",
"213 267 CURVE SMOOTH",
"253 134 OFFCURVE",
"296 -12 OFFCURVE",
"420 -12 CURVE SMOOTH",
"528 -12 OFFCURVE",
"621 111 OFFCURVE",
"672 249 CURVE",
"676 256 OFFCURVE",
"637 278 OFFCURVE",
"631 270 CURVE",
"602 156 OFFCURVE",
"524 31 OFFCURVE",
"405 31 CURVE SMOOTH",
"342 31 OFFCURVE",
"299 156 OFFCURVE",
"273 254 CURVE"
);
}
);
width = 591;
}
);
note = kgreenlandic;
rightKerningGroup = k;
unicode = 0138;
},
{
color = 3;
glyphname = lslash;
lastChange = "2018-02-13 11:27:28 +0000";
layers = (
{
components = (
{
name = l.001;
}
);
layerId = "0B1DFD06-3317-40CA-B510-4969A0718C16";
paths = (
{
closed = 1;
nodes = (
"81 402 OFFCURVE",
"119 419 OFFCURVE",
"195 443 CURVE SMOOTH",
"315 481 OFFCURVE",
"369 499 OFFCURVE",
"404 499 CURVE SMOOTH",
"406 499 OFFCURVE",
"407 501 OFFCURVE",
"407 505 CURVE SMOOTH",
"407 514 OFFCURVE",
"399 534 OFFCURVE",
"387 534 CURVE",
"316 514 OFFCURVE",
"251 495 OFFCURVE",
"181 473 CURVE SMOOTH",
"92 445 OFFCURVE",
"68 434 OFFCURVE",
"49 434 CURVE",
"45 430 LINE",
"45 425 OFFCURVE",
"61 399 OFFCURVE",
"76 399 CURVE"
);
}
);
width = 358;
}
);
note = lslash;
unicode = 0142;
},
{
color = 0;
glyphname = eng;
lastChange = "2018-02-12 19:35:03 +0000";
layers = (
{
layerId = "0B1DFD06-3317-40CA-B510-4969A0718C16";
paths = (
{
closed = 1;
nodes = (
"64 -496 OFFCURVE",
"170 -286 OFFCURVE",
"248 -77 CURVE SMOOTH",
"319 113 OFFCURVE",
"357 218 OFFCURVE",
"388 350 CURVE SMOOTH",
"392 367 OFFCURVE",
"394 385 OFFCURVE",
"392 391 CURVE SMOOTH",
"389 401 OFFCURVE",
"377 416 OFFCURVE",
"367 416 CURVE SMOOTH",
"330 416 OFFCURVE",
"220 319 OFFCURVE",
"135 226 CURVE",
"142 190 LINE",
"163 261 OFFCURVE",
"176 302 OFFCURVE",
"186 330 CURVE SMOOTH",
"195 359 OFFCURVE",
"202 378 OFFCURVE",
"201 382 CURVE SMOOTH",
"195 396 OFFCURVE",
"177 411 OFFCURVE",
"163 411 CURVE SMOOTH",
"155 411 OFFCURVE",
"150 408 OFFCURVE",
"149 401 CURVE SMOOTH",
"134 332 OFFCURVE",
"112 237 OFFCURVE",
"89 158 CURVE",
"64 110 OFFCURVE",
"34 72 OFFCURVE",
"40 48 CURVE",
"40 41 OFFCURVE",
"62 1 OFFCURVE",
"72 1 CURVE SMOOTH",
"73 1 OFFCURVE",
"76 5 OFFCURVE",
"80 14 CURVE",
"103 79 OFFCURVE",
"106 92 OFFCURVE",
"132 151 CURVE",
"166 208 OFFCURVE",
"257 297 OFFCURVE",
"299 334 CURVE SMOOTH",
"307 341 OFFCURVE",
"315 334 OFFCURVE",
"315 326 CURVE SMOOTH",
"315 292 OFFCURVE",
"275 126 OFFCURVE",
"210 -59 CURVE SMOOTH",
"140 -258 OFFCURVE",
"30 -419 OFFCURVE",
"-121 -451 CURVE",
"-93 -474 OFFCURVE",
"-59 -496 OFFCURVE",
"-21 -496 CURVE SMOOTH"
);
}
);
width = 440;
}
);
leftKerningGroup = m;
note = eng;
rightKerningGroup = m;
unicode = 014B;
},
{
color = 3;
glyphname = ohorn;
lastChange = "2018-02-13 11:29:17 +0000";
layers = (
{
layerId = "0B1DFD06-3317-40CA-B510-4969A0718C16";
paths = (
{
closed = 1;
nodes = (
"622 305 OFFCURVE",
"622 306 OFFCURVE",
"622 308 CURVE SMOOTH",
"622 317 OFFCURVE",
"607 327 OFFCURVE",
"597 327 CURVE SMOOTH",
"595 327 OFFCURVE",
"593 326 OFFCURVE",
"591 324 CURVE SMOOTH",
"566 276 OFFCURVE",
"512 236 OFFCURVE",
"465 236 CURVE SMOOTH",
"389 236 OFFCURVE",
"356 311 OFFCURVE",
"352 389 CURVE SMOOTH",
"351 409 OFFCURVE",
"356 431 OFFCURVE",
"361 444 CURVE SMOOTH",
"362 447 LINE",
"362 453 OFFCURVE",
"358 456 OFFCURVE",
"352 456 CURVE SMOOTH",
"350 456 OFFCURVE",
"347 455 OFFCURVE",
"346 453 CURVE",
"338 449 OFFCURVE",
"325 447 OFFCURVE",
"314 444 CURVE",
"292 439 OFFCURVE",
"294 408 OFFCURVE",
"290 389 CURVE",
"158 386 OFFCURVE",
"52 240 OFFCURVE",
"58 90 CURVE SMOOTH",
"60 37 OFFCURVE",
"93 -12 OFFCURVE",
"155 -12 CURVE SMOOTH",
"288 -12 OFFCURVE",
"333 157 OFFCURVE",
"346 251 CURVE",
"378 212 OFFCURVE",
"422 198 OFFCURVE",
"462 198 CURVE SMOOTH",
"537 198 OFFCURVE",
"594 251 OFFCURVE",
"622 305 CURVE"
);
},
{
closed = 1;
nodes = (
"308 307 LINE",
"312 236 OFFCURVE",
"248 38 OFFCURVE",
"168 38 CURVE SMOOTH",
"137 38 OFFCURVE",
"127 84 OFFCURVE",
"127 108 CURVE",
"124 209 OFFCURVE",
"205 355 OFFCURVE",
"290 355 CURVE SMOOTH",
"295 355 OFFCURVE",
"298 352 OFFCURVE",
"298 346 CURVE",
"303 319 OFFCURVE",
"305 322 OFFCURVE",
"308 312 CURVE"
);
},
{
closed = 1;
nodes = (
"326 352 LINE",
"337 339 OFFCURVE",
"351 321 OFFCURVE",
"399 321 CURVE SMOOTH",
"446 321 OFFCURVE",
"483 365 OFFCURVE",
"483 406 CURVE",
"482 424 OFFCURVE",
"477 438 OFFCURVE",
"470 450 CURVE",
"466 453 OFFCURVE",
"450 458 OFFCURVE",
"440 458 CURVE SMOOTH",
"438 458 OFFCURVE",
"436 457 OFFCURVE",
"434 456 CURVE",
"436 447 OFFCURVE",
"438 438 OFFCURVE",
"438 430 CURVE SMOOTH",
"439 386 OFFCURVE",
"422 358 OFFCURVE",
"389 358 CURVE SMOOTH",
"364 358 OFFCURVE",
"350 363 OFFCURVE",
"342 386 CURVE"
);
}
);
width = 458;
}
);
note = ohorn;
rightMetricsKey = o;
unicode = 01A1;
},
{
color = 3;
glyphname = oslash;
lastChange = "2018-02-13 11:29:17 +0000";
layers = (
{
layerId = "0B1DFD06-3317-40CA-B510-4969A0718C16";
paths = (
{
closed = 1;
nodes = (
"130 -226 OFFCURVE",
"158 -238 OFFCURVE",
"162 -221 CURVE",
"171 -145 OFFCURVE",
"182 -74 OFFCURVE",
"194 -6 CURVE",
"299 23 OFFCURVE",
"333 167 OFFCURVE",
"346 251 CURVE",
"378 212 OFFCURVE",
"422 198 OFFCURVE",
"462 198 CURVE SMOOTH",
"537 198 OFFCURVE",
"594 251 OFFCURVE",
"622 305 CURVE",
"632 314 OFFCURVE",
"595 333 OFFCURVE",
"591 324 CURVE",
"566 276 OFFCURVE",
"512 236 OFFCURVE",
"465 236 CURVE SMOOTH",
"389 236 OFFCURVE",
"356 311 OFFCURVE",
"352 389 CURVE SMOOTH",
"351 409 OFFCURVE",
"356 431 OFFCURVE",
"361 444 CURVE SMOOTH",
"364 453 OFFCURVE",
"351 458 OFFCURVE",
"346 453 CURVE",
"338 449 OFFCURVE",
"325 447 OFFCURVE",
"314 444 CURVE",
"306 440 LINE",
"328 513 OFFCURVE",
"357 587 OFFCURVE",
"389 672 CURVE",
"388 683 OFFCURVE",
"363 687 OFFCURVE",
"357 678 CURVE",
"318 575 OFFCURVE",
"283 480 OFFCURVE",
"253 384 CURVE",
"138 356 OFFCURVE",
"55 228 OFFCURVE",
"58 90 CURVE SMOOTH",
"60 37 OFFCURVE",
"92 -11 OFFCURVE",
"154 -12 CURVE",
"140 -77 OFFCURVE",
"132 -140 OFFCURVE",
"124 -211 CURVE"
);
},
{
closed = 1;
nodes = (
"124 187 OFFCURVE",
"176 298 OFFCURVE",
"239 338 CURVE",
"209 238 OFFCURVE",
"184 139 OFFCURVE",
"162 38 CURVE",
"137 44 OFFCURVE",
"127 84 OFFCURVE",
"127 108 CURVE"
);
},
{
closed = 1;
nodes = (
"314 255 OFFCURVE",
"269 99 OFFCURVE",
"205 51 CURVE",
"225 156 OFFCURVE",
"246 252 OFFCURVE",
"278 353 CURVE",
"282 353 OFFCURVE",
"286 355 OFFCURVE",
"290 355 CURVE SMOOTH",
"295 355 OFFCURVE",
"298 352 OFFCURVE",
"298 346 CURVE",
"303 319 OFFCURVE",
"305 322 OFFCURVE",
"308 312 CURVE"
);
},
{
closed = 1;
nodes = (
"289 389 LINE",
"289 390 OFFCURVE",
"290 392 OFFCURVE",
"292 395 CURVE",
"290 394 OFFCURVE",
"290 392 OFFCURVE",
"290 389 CURVE"
);
}
);
width = 459;
}
);
note = oslash;
rightMetricsKey = o;
unicode = 00F8;
},
{
color = 3;
glyphname = oe;
lastChange = "2018-02-06 09:44:42 +0000";
layers = (
{
layerId = "0B1DFD06-3317-40CA-B510-4969A0718C16";
paths = (
{
closed = 1;
nodes = (
"301 13 OFFCURVE",
"357 -11 OFFCURVE",
"438 -11 CURVE SMOOTH",
"562 -11 OFFCURVE",
"668 61 OFFCURVE",
"753 189 CURVE",
"754 190 OFFCURVE",
"754 193 OFFCURVE",
"754 195 CURVE SMOOTH",
"754 200 OFFCURVE",
"740 228 OFFCURVE",
"737 228 CURVE SMOOTH",
"735 228 OFFCURVE",
"729 231 OFFCURVE",
"728 227 CURVE",
"669 89 OFFCURVE",
"537 35 OFFCURVE",
"471 35 CURVE SMOOTH",
"387 35 OFFCURVE",
"353 67 OFFCURVE",
"350 125 CURVE",
"426 163 OFFCURVE",
"559 267 OFFCURVE",
"556 353 CURVE SMOOTH",
"555 383 OFFCURVE",
"534 393 OFFCURVE",
"511 393 CURVE SMOOTH",
"439 393 OFFCURVE",
"383 330 OFFCURVE",
"345 259 CURVE",
"346 269 OFFCURVE",
"346 280 OFFCURVE",
"346 290 CURVE",
"345 322 OFFCURVE",
"338 352 OFFCURVE",
"328 375 CURVE",
"328 377 OFFCURVE",
"326 378 OFFCURVE",
"322 378 CURVE SMOOTH",
"318 378 LINE",
"300 374 OFFCURVE",
"274 358 OFFCURVE",
"274 353 CURVE",
"289 336 OFFCURVE",
"303 284 OFFCURVE",
"303 252 CURVE SMOOTH",
"307 149 OFFCURVE",
"237 40 OFFCURVE",
"165 40 CURVE SMOOTH",
"130 40 OFFCURVE",
"115 83 OFFCURVE",
"115 115 CURVE",
"112 206 OFFCURVE",
"161 293 OFFCURVE",
"256 350 CURVE",
"259 353 OFFCURVE",
"261 359 OFFCURVE",
"261 369 CURVE",
"259 377 OFFCURVE",
"258 387 OFFCURVE",
"250 388 CURVE",
"121 318 OFFCURVE",
"49 232 OFFCURVE",
"54 95 CURVE SMOOTH",
"54 43 OFFCURVE",
"80 -13 OFFCURVE",
"138 -13 CURVE SMOOTH",
"195 -13 OFFCURVE",
"269 44 OFFCURVE",
"295 99 CURVE"
);
},
{
closed = 1;
nodes = (
"362 224 OFFCURVE",
"428 352 OFFCURVE",
"493 352 CURVE SMOOTH",
"505 352 OFFCURVE",
"511 344 OFFCURVE",
"512 328 CURVE",
"512 305 OFFCURVE",
"461 233 OFFCURVE",
"349 169 CURVE"
);
}
);
width = 631;
}
);
note = oe;
unicode = 0153;
},
{
color = 3;
glyphname = thorn;
lastChange = "2018-02-10 11:03:28 +0000";
layers = (
{
layerId = "0B1DFD06-3317-40CA-B510-4969A0718C16";
paths = (
{
closed = 1;
nodes = (
"32 40 OFFCURVE",
"-2 34 OFFCURVE",
"2 15 CURVE SMOOTH",
"6 1 OFFCURVE",
"15 -7 OFFCURVE",
"30 -7 CURVE",
"220 7 OFFCURVE",
"412 51 OFFCURVE",
"538 219 CURVE SMOOTH",
"550 235 OFFCURVE",
"561 251 OFFCURVE",
"561 269 CURVE SMOOTH",
"561 288 OFFCURVE",
"548 293 OFFCURVE",
"538 293 CURVE",
"443 118 OFFCURVE",
"200 43 OFFCURVE",
"111 30 CURVE",
"118 19 LINE",
"318 104 OFFCURVE",
"378 239 OFFCURVE",
"375 317 CURVE SMOOTH",
"375 355 OFFCURVE",
"338 392 OFFCURVE",
"311 392 CURVE SMOOTH",
"283 392 OFFCURVE",
"196 351 OFFCURVE",
"175 303 CURVE",
"185 303 LINE",
"212 362 OFFCURVE",
"303 619 OFFCURVE",
"353 750 CURVE",
"357 756 OFFCURVE",
"359 778 OFFCURVE",
"358 789 CURVE",
"357 826 OFFCURVE",
"330 838 OFFCURVE",
"301 838 CURVE SMOOTH",
"269 838 OFFCURVE",
"170 822 OFFCURVE",
"138 813 CURVE",
"132 812 OFFCURVE",
"129 802 OFFCURVE",
"129 797 CURVE",
"130 794 OFFCURVE",
"133 787 OFFCURVE",
"139 788 CURVE SMOOTH",
"161 793 OFFCURVE",
"180 795 OFFCURVE",
"196 795 CURVE SMOOTH",
"248 795 OFFCURVE",
"276 765 OFFCURVE",
"276 751 CURVE",
"277 741 OFFCURVE",
"275 726 OFFCURVE",
"271 716 CURVE SMOOTH",
"183 424 OFFCURVE",
"71 156 OFFCURVE",
"-108 -357 CURVE",
"-159 -483 OFFCURVE",
"-186 -520 OFFCURVE",
"-300 -568 CURVE",
"-314 -572 OFFCURVE",
"-306 -588 OFFCURVE",
"-292 -582 CURVE SMOOTH",
"-184 -538 OFFCURVE",
"-102 -544 OFFCURVE",
"-83 -486 CURVE SMOOTH",
"-63 -425 OFFCURVE",
"32 -84 OFFCURVE",
"75 26 CURVE SMOOTH",
"102 103 OFFCURVE",
"124 161 OFFCURVE",
"150 221 CURVE SMOOTH",
"188 303 OFFCURVE",
"258 334 OFFCURVE",
"278 334 CURVE SMOOTH",
"296 334 OFFCURVE",
"311 322 OFFCURVE",
"311 307 CURVE SMOOTH",
"314 221 OFFCURVE",
"181 74 OFFCURVE",
"34 37 CURVE"
);
}
);
width = 389;
}
);
note = thorn;
unicode = 00FE;
},
